{"glyphs":{"0":{"ha":861,"x_min":0,"x_max":0,"o":"m 418 -17 b 69 513 133 -17 69 263 b 447 1031 69 863 224 1031 b 792 501 731 1031 792 752 b 418 -17 792 151 641 -17 m 443 105 b 569 149 508 105 546 126 b 637 448 593 172 637 233 b 419 904 637 761 594 904 b 292 860 354 904 315 883 b 224 567 268 836 224 774 b 443 105 224 259 267 105 m 428 395 b 516 517 481 395 516 435 b 435 642 516 576 502 642 b 345 520 382 642 345 602 b 428 395 345 461 360 395 "},"1":{"ha":861,"x_min":0,"x_max":0,"o":"m 95 132 l 358 132 l 358 863 l 97 808 l 110 940 l 457 1021 l 516 1021 l 516 132 l 783 132 l 763 0 l 116 0 "},"2":{"ha":861,"x_min":0,"x_max":0,"o":"m 390 1031 b 102 967 289 1031 190 1007 l 93 817 b 377 894 185 864 287 894 b 569 737 501 894 569 838 b 269 281 569 599 441 435 l 88 117 l 126 0 l 760 0 l 799 131 l 292 131 l 381 208 b 726 748 567 371 726 542 b 390 1031 726 943 583 1031 "},"3":{"ha":861,"x_min":0,"x_max":0,"o":"m 254 532 l 260 514 b 615 297 481 461 615 401 b 256 126 615 187 456 126 b 106 139 191 126 145 132 l 141 -10 b 249 -17 167 -13 197 -17 b 756 313 585 -17 756 144 b 456 594 756 455 633 538 l 699 887 l 673 1014 l 115 1014 l 74 883 l 536 883 "},"4":{"ha":861,"x_min":0,"x_max":0,"o":"m 519 1021 l 676 1021 l 676 449 l 815 449 l 815 334 l 676 334 l 676 0 l 518 0 l 518 334 l 60 334 l 45 436 m 518 437 l 518 840 l 185 437 "},"5":{"ha":861,"x_min":0,"x_max":0,"o":"m 209 1014 l 153 527 b 611 307 430 480 611 417 b 251 134 611 197 427 134 b 115 147 199 134 155 140 l 150 -9 b 248 -17 175 -13 205 -17 b 744 328 501 -17 744 100 b 284 645 744 494 599 579 l 315 883 l 722 883 l 694 1014 "},"6":{"ha":861,"x_min":0,"x_max":0,"o":"m 85 463 b 673 1031 85 836 274 1023 l 706 890 b 294 777 447 884 329 819 b 241 492 262 738 244 625 l 258 492 b 528 599 347 565 438 599 b 785 333 665 599 785 520 b 444 -17 785 137 653 -17 b 85 463 219 -17 85 144 m 246 398 b 470 91 245 203 343 91 b 635 298 581 91 635 176 b 474 482 635 424 579 482 b 246 398 381 482 299 437 "},"7":{"ha":861,"x_min":0,"x_max":0,"o":"m 758 891 b 397 0 665 728 492 422 l 213 0 b 607 878 299 341 478 679 l 81 878 l 122 1014 l 728 1014 l 758 891 "},"8":{"ha":861,"x_min":0,"x_max":0,"o":"m 455 1031 b 746 791 653 1031 746 921 b 561 531 746 681 674 596 b 805 261 746 444 805 383 b 416 -17 805 93 624 -17 b 73 244 205 -17 73 99 b 299 501 73 380 189 456 b 126 764 184 572 126 658 b 455 1031 126 927 260 1031 m 231 281 b 455 101 231 168 318 101 b 604 142 538 101 582 124 b 653 236 623 157 653 186 b 407 447 653 317 594 368 l 365 465 b 231 281 279 415 231 357 m 258 793 b 461 576 258 708 315 638 l 501 558 b 613 749 562 601 613 667 b 415 917 613 861 524 917 b 294 881 353 917 315 899 b 258 793 277 867 258 840 "},"9":{"ha":861,"x_min":0,"x_max":0,"o":"m 776 551 b 188 -17 776 178 588 -9 l 156 124 b 567 238 415 131 532 196 b 621 522 599 276 618 389 l 603 522 b 333 415 515 449 424 415 b 76 681 196 415 76 494 b 417 1031 76 878 209 1031 b 776 551 642 1031 776 871 m 616 616 b 391 924 616 811 519 924 b 226 717 281 924 226 838 b 387 532 226 590 282 532 b 616 616 481 532 563 578 "}," ":{"ha":861,"x_min":0,"x_max":0,"o":""},"A":{"ha":861,"x_min":0,"x_max":0,"o":"m 664 0 l 587 264 l 267 264 l 191 0 l 32 0 l 345 1014 l 515 1014 l 830 0 m 553 378 l 431 797 l 422 797 l 301 378 "},"Á":{"ha":861,"x_min":0,"x_max":0,"o":"m 664 0 l 587 264 l 267 264 l 191 0 l 32 0 l 345 1014 l 515 1014 l 830 0 m 497 1135 l 671 1306 l 502 1306 l 362 1135 m 553 378 l 431 797 l 422 797 l 301 378 "},"Ă":{"ha":861,"x_min":0,"x_max":0,"o":"m 664 0 l 587 264 l 267 264 l 191 0 l 32 0 l 345 1014 l 515 1014 l 830 0 m 313 1306 b 431 1208 313 1249 347 1208 b 549 1306 515 1208 549 1249 l 649 1306 b 431 1126 654 1194 581 1126 b 213 1306 281 1126 207 1194 l 313 1306 m 553 378 l 431 797 l 422 797 l 301 378 "},"Â":{"ha":861,"x_min":0,"x_max":0,"o":"m 664 0 l 587 264 l 267 264 l 191 0 l 32 0 l 345 1014 l 515 1014 l 830 0 m 344 1306 l 518 1306 l 689 1135 l 544 1135 l 431 1258 l 317 1135 l 173 1135 m 553 378 l 431 797 l 422 797 l 301 378 "},"Ä":{"ha":861,"x_min":0,"x_max":0,"o":"m 664 0 l 587 264 l 267 264 l 191 0 l 32 0 l 345 1014 l 515 1014 l 830 0 m 248 1140 b 156 1227 194 1140 156 1173 b 248 1313 156 1281 194 1313 b 340 1227 303 1313 340 1281 b 248 1140 340 1173 303 1140 m 614 1140 b 522 1227 560 1140 522 1173 b 614 1313 522 1281 560 1313 b 706 1227 669 1313 706 1281 b 614 1140 706 1173 669 1140 m 553 378 l 431 797 l 422 797 l 301 378 "},"Ạ":{"ha":861,"x_min":0,"x_max":0,"o":"m 664 0 l 587 264 l 267 264 l 191 0 l 32 0 l 345 1014 l 515 1014 l 830 0 m 431 -360 b 322 -260 367 -360 322 -322 b 431 -160 322 -198 367 -160 b 539 -260 495 -160 539 -198 b 431 -360 539 -322 495 -360 m 553 378 l 431 797 l 422 797 l 301 378 "},"À":{"ha":861,"x_min":0,"x_max":0,"o":"m 664 0 l 587 264 l 267 264 l 191 0 l 32 0 l 345 1014 l 515 1014 l 830 0 m 365 1135 l 191 1306 l 359 1306 l 500 1135 m 553 378 l 431 797 l 422 797 l 301 378 "},"Ā":{"ha":861,"x_min":0,"x_max":0,"o":"m 664 0 l 587 264 l 267 264 l 191 0 l 32 0 l 345 1014 l 515 1014 l 830 0 m 658 1188 l 203 1188 l 203 1290 l 658 1290 m 553 378 l 431 797 l 422 797 l 301 378 "},"Ą":{"ha":861,"x_min":0,"x_max":0,"o":"m 830 0 b 732 -138 757 -59 732 -102 b 810 -192 732 -171 751 -192 l 830 -192 l 830 -292 l 773 -292 b 596 -171 631 -292 596 -232 b 697 0 596 -111 628 -60 l 664 0 l 587 264 l 267 264 l 191 0 l 32 0 l 345 1014 l 515 1014 l 830 0 m 553 378 l 431 797 l 422 797 l 301 378 "},"Å":{"ha":861,"x_min":0,"x_max":0,"o":"m 664 0 l 587 264 l 267 264 l 191 0 l 32 0 l 343 1006 b 270 1147 298 1035 270 1085 b 431 1312 270 1242 336 1312 b 592 1147 525 1312 592 1242 b 518 1006 592 1085 563 1034 l 830 0 m 431 1054 b 521 1147 486 1054 521 1094 b 431 1240 521 1200 486 1240 b 340 1147 376 1240 340 1200 b 431 1054 340 1094 376 1054 m 553 378 l 431 797 l 422 797 l 301 378 "},"Ã":{"ha":861,"x_min":0,"x_max":0,"o":"m 664 0 l 587 264 l 267 264 l 191 0 l 32 0 l 345 1014 l 515 1014 l 830 0 m 311 1319 b 524 1223 419 1319 453 1223 b 602 1310 564 1223 592 1253 l 706 1288 b 550 1126 693 1185 635 1126 b 338 1222 442 1126 408 1222 b 259 1134 298 1222 269 1192 l 155 1156 b 311 1319 169 1260 226 1319 m 553 378 l 431 797 l 422 797 l 301 378 "},"Æ":{"ha":861,"x_min":0,"x_max":0,"o":"m 436 260 l 244 260 l 189 0 l 31 0 l 265 1014 l 826 1014 l 844 882 l 584 882 l 584 575 l 747 575 l 747 449 l 584 449 l 584 132 l 844 132 l 826 0 l 436 0 m 436 378 l 436 882 l 376 882 l 269 378 "},"Ǽ":{"ha":861,"x_min":0,"x_max":0,"o":"m 436 260 l 244 260 l 189 0 l 31 0 l 265 1014 l 826 1014 l 844 882 l 584 882 l 584 575 l 747 575 l 747 449 l 584 449 l 584 132 l 844 132 l 826 0 l 436 0 m 592 1135 l 767 1306 l 598 1306 l 458 1135 m 436 378 l 436 882 l 376 882 l 269 378 "},"B":{"ha":861,"x_min":0,"x_max":0,"o":"m 120 1014 l 451 1014 b 745 809 618 1015 745 961 b 503 558 745 656 619 588 l 503 552 b 800 291 664 528 800 469 b 423 0 800 106 652 0 l 120 0 m 421 118 b 638 288 571 118 638 196 b 308 485 638 429 483 479 l 281 486 l 281 118 m 319 566 b 587 778 490 590 587 668 b 421 897 587 860 531 897 l 281 897 l 281 561 "},"C":{"ha":861,"x_min":0,"x_max":0,"o":"m 592 1030 b 769 1010 659 1030 717 1022 l 774 862 b 544 888 717 873 642 888 b 349 842 440 888 388 873 b 251 556 316 815 251 749 b 586 118 251 196 423 118 b 773 148 652 118 719 130 l 765 11 b 564 -17 722 -1 651 -17 b 92 505 301 -17 92 115 b 592 1030 92 827 228 1030 "},"Ć":{"ha":861,"x_min":0,"x_max":0,"o":"m 592 1030 b 769 1010 659 1030 717 1022 l 774 862 b 544 888 717 873 642 888 b 349 842 440 888 388 873 b 251 556 316 815 251 749 b 586 118 251 196 423 118 b 773 148 652 118 719 130 l 765 11 b 564 -17 722 -1 651 -17 b 92 505 301 -17 92 115 b 592 1030 92 827 228 1030 m 569 1135 l 744 1306 l 575 1306 l 435 1135 "},"Č":{"ha":861,"x_min":0,"x_max":0,"o":"m 592 1030 b 769 1010 659 1030 717 1022 l 774 862 b 544 888 717 873 642 888 b 349 842 440 888 388 873 b 251 556 316 815 251 749 b 586 118 251 196 423 118 b 773 148 652 118 719 130 l 765 11 b 564 -17 722 -1 651 -17 b 92 505 301 -17 92 115 b 592 1030 92 827 228 1030 m 417 1135 l 591 1135 l 762 1306 l 617 1306 l 503 1183 l 390 1306 l 246 1306 "},"Ç":{"ha":861,"x_min":0,"x_max":0,"o":"m 592 1030 b 769 1010 659 1030 717 1022 l 774 862 b 544 888 717 873 642 888 b 349 842 440 888 388 873 b 251 556 316 815 251 749 b 586 118 251 196 423 118 b 773 148 652 118 719 130 l 765 11 b 564 -17 722 -1 651 -17 l 519 -16 l 520 -117 b 642 -269 599 -135 642 -178 b 434 -417 642 -361 597 -417 l 379 -417 l 379 -328 l 417 -328 b 524 -260 497 -328 524 -303 b 424 -182 524 -208 485 -188 l 424 -3 b 92 505 231 40 92 187 b 592 1030 92 827 228 1030 "},"Ĉ":{"ha":861,"x_min":0,"x_max":0,"o":"m 592 1030 b 769 1010 659 1030 717 1022 l 774 862 b 544 888 717 873 642 888 b 349 842 440 888 388 873 b 251 556 316 815 251 749 b 586 118 251 196 423 118 b 773 148 652 118 719 130 l 765 11 b 564 -17 722 -1 651 -17 b 92 505 301 -17 92 115 b 592 1030 92 827 228 1030 m 417 1306 l 591 1306 l 762 1135 l 617 1135 l 503 1258 l 390 1135 l 246 1135 "},"Ċ":{"ha":861,"x_min":0,"x_max":0,"o":"m 592 1030 b 769 1010 659 1030 717 1022 l 774 862 b 544 888 717 873 642 888 b 349 842 440 888 388 873 b 251 556 316 815 251 749 b 586 118 251 196 423 118 b 773 148 652 118 719 130 l 765 11 b 564 -17 722 -1 651 -17 b 92 505 301 -17 92 115 b 592 1030 92 827 228 1030 m 502 1140 b 408 1226 447 1140 408 1173 b 502 1313 408 1281 447 1313 b 596 1226 558 1313 596 1281 b 502 1140 596 1173 558 1140 "},"D":{"ha":861,"x_min":0,"x_max":0,"o":"m 118 1014 l 345 1014 b 778 530 611 1014 778 883 b 321 0 778 196 640 0 l 118 0 m 336 135 b 533 181 430 135 495 152 b 610 505 571 210 610 279 b 340 890 610 806 532 890 l 276 890 l 276 135 "},"Ď":{"ha":861,"x_min":0,"x_max":0,"o":"m 118 1014 l 345 1014 b 778 530 611 1014 778 883 b 321 0 778 196 640 0 l 118 0 m 344 1135 l 518 1135 l 689 1306 l 544 1306 l 431 1183 l 317 1306 l 173 1306 m 336 135 b 533 181 430 135 495 152 b 610 505 571 210 610 279 b 340 890 610 806 532 890 l 276 890 l 276 135 "},"Đ":{"ha":861,"x_min":0,"x_max":0,"o":"m 456 451 l 276 451 l 276 135 l 336 135 b 533 181 430 135 495 152 b 610 505 571 210 610 279 b 340 890 610 806 532 890 l 276 890 l 276 584 l 456 584 m 118 451 l 19 451 l 19 584 l 118 584 l 118 1014 l 345 1014 b 778 530 611 1014 778 883 b 321 0 778 196 640 0 l 118 0 "},"Ð":{"ha":861,"x_min":0,"x_max":0,"o":"m 456 451 l 276 451 l 276 135 l 336 135 b 533 181 430 135 495 152 b 610 505 571 210 610 279 b 340 890 610 806 532 890 l 276 890 l 276 584 l 456 584 m 118 451 l 19 451 l 19 584 l 118 584 l 118 1014 l 345 1014 b 778 530 611 1014 778 883 b 321 0 778 196 640 0 l 118 0 "},"E":{"ha":861,"x_min":0,"x_max":0,"o":"m 125 1014 l 747 1014 l 764 882 l 283 882 l 283 575 l 667 575 l 667 449 l 283 449 l 283 132 l 764 132 l 747 0 l 125 0 "},"É":{"ha":861,"x_min":0,"x_max":0,"o":"m 125 1014 l 747 1014 l 764 882 l 283 882 l 283 575 l 667 575 l 667 449 l 283 449 l 283 132 l 764 132 l 747 0 l 125 0 m 497 1135 l 671 1306 l 502 1306 l 362 1135 "},"Ĕ":{"ha":861,"x_min":0,"x_max":0,"o":"m 125 1014 l 747 1014 l 764 882 l 283 882 l 283 575 l 667 575 l 667 449 l 283 449 l 283 132 l 764 132 l 747 0 l 125 0 m 313 1306 b 431 1208 313 1249 347 1208 b 549 1306 515 1208 549 1249 l 649 1306 b 431 1126 654 1194 581 1126 b 213 1306 281 1126 207 1194 l 313 1306 "},"Ě":{"ha":861,"x_min":0,"x_max":0,"o":"m 125 1014 l 747 1014 l 764 882 l 283 882 l 283 575 l 667 575 l 667 449 l 283 449 l 283 132 l 764 132 l 747 0 l 125 0 m 344 1135 l 518 1135 l 689 1306 l 544 1306 l 431 1183 l 317 1306 l 173 1306 "},"Ê":{"ha":861,"x_min":0,"x_max":0,"o":"m 125 1014 l 747 1014 l 764 882 l 283 882 l 283 575 l 667 575 l 667 449 l 283 449 l 283 132 l 764 132 l 747 0 l 125 0 m 344 1306 l 518 1306 l 689 1135 l 544 1135 l 431 1258 l 317 1135 l 173 1135 "},"Ë":{"ha":861,"x_min":0,"x_max":0,"o":"m 125 1014 l 747 1014 l 764 882 l 283 882 l 283 575 l 667 575 l 667 449 l 283 449 l 283 132 l 764 132 l 747 0 l 125 0 m 248 1140 b 156 1227 194 1140 156 1173 b 248 1313 156 1281 194 1313 b 340 1227 303 1313 340 1281 b 248 1140 340 1173 303 1140 m 614 1140 b 522 1227 560 1140 522 1173 b 614 1313 522 1281 560 1313 b 706 1227 669 1313 706 1281 b 614 1140 706 1173 669 1140 "},"Ė":{"ha":861,"x_min":0,"x_max":0,"o":"m 125 1014 l 747 1014 l 764 882 l 283 882 l 283 575 l 667 575 l 667 449 l 283 449 l 283 132 l 764 132 l 747 0 l 125 0 m 429 1140 b 335 1226 374 1140 335 1173 b 429 1313 335 1281 374 1313 b 523 1226 485 1313 523 1281 b 429 1140 523 1173 485 1140 "},"Ẹ":{"ha":861,"x_min":0,"x_max":0,"o":"m 125 1014 l 747 1014 l 764 882 l 283 882 l 283 575 l 667 575 l 667 449 l 283 449 l 283 132 l 764 132 l 747 0 l 125 0 m 431 -360 b 322 -260 367 -360 322 -322 b 431 -160 322 -198 367 -160 b 539 -260 495 -160 539 -198 b 431 -360 539 -322 495 -360 "},"È":{"ha":861,"x_min":0,"x_max":0,"o":"m 125 1014 l 747 1014 l 764 882 l 283 882 l 283 575 l 667 575 l 667 449 l 283 449 l 283 132 l 764 132 l 747 0 l 125 0 m 365 1135 l 191 1306 l 359 1306 l 500 1135 "},"Ē":{"ha":861,"x_min":0,"x_max":0,"o":"m 125 1014 l 747 1014 l 764 882 l 283 882 l 283 575 l 667 575 l 667 449 l 283 449 l 283 132 l 764 132 l 747 0 l 125 0 m 658 1188 l 203 1188 l 203 1290 l 658 1290 "},"Ę":{"ha":861,"x_min":0,"x_max":0,"o":"m 125 1014 l 747 1014 l 764 882 l 283 882 l 283 575 l 667 575 l 667 449 l 283 449 l 283 132 l 764 132 l 747 0 b 648 -138 673 -59 648 -102 b 726 -192 648 -171 667 -192 l 747 -192 l 747 -292 l 690 -292 b 512 -171 547 -292 512 -232 b 613 0 512 -111 545 -60 l 125 0 "},"Ẽ":{"ha":861,"x_min":0,"x_max":0,"o":"m 125 1014 l 747 1014 l 764 882 l 283 882 l 283 575 l 667 575 l 667 449 l 283 449 l 283 132 l 764 132 l 747 0 l 125 0 m 311 1319 b 524 1223 419 1319 453 1223 b 602 1310 564 1223 592 1253 l 706 1288 b 550 1126 693 1185 635 1126 b 338 1222 442 1126 408 1222 b 259 1134 298 1222 269 1192 l 155 1156 b 311 1319 169 1260 226 1319 "},"Ə":{"ha":861,"x_min":0,"x_max":0,"o":"m 418 -13 b 77 542 140 -13 77 264 l 623 542 l 623 571 b 321 904 623 781 580 904 b 98 869 225 904 152 888 l 103 988 b 365 1031 159 1008 245 1031 b 783 522 650 1031 783 903 b 418 -13 783 160 634 -13 m 243 417 b 435 107 251 233 291 107 b 561 150 498 107 538 126 b 619 417 580 169 610 214 l 243 417 "},"F":{"ha":861,"x_min":0,"x_max":0,"o":"m 132 0 l 132 1014 l 763 1014 l 780 884 l 290 884 l 290 543 l 687 543 l 680 419 l 290 419 l 290 0 "},"G":{"ha":861,"x_min":0,"x_max":0,"o":"m 768 866 b 553 888 711 876 638 888 b 338 838 435 888 378 871 b 245 531 294 804 245 724 b 532 108 245 206 369 108 b 635 118 569 108 603 112 l 635 417 l 449 417 l 466 542 l 772 542 l 773 18 b 534 -17 711 1 629 -17 b 86 495 262 -17 86 126 b 597 1030 86 828 228 1030 b 761 1013 659 1030 713 1024 l 768 866 "},"Ğ":{"ha":861,"x_min":0,"x_max":0,"o":"m 768 866 b 553 888 711 876 638 888 b 338 838 435 888 378 871 b 245 531 294 804 245 724 b 532 108 245 206 369 108 b 635 118 569 108 603 112 l 635 417 l 449 417 l 466 542 l 772 542 l 773 18 b 534 -17 711 1 629 -17 b 86 495 262 -17 86 126 b 597 1030 86 828 228 1030 b 761 1013 659 1030 713 1024 l 768 866 m 390 1306 b 507 1208 390 1249 423 1208 b 625 1306 591 1208 625 1249 l 725 1306 b 507 1126 731 1194 657 1126 b 290 1306 358 1126 283 1194 l 390 1306 "},"Ǧ":{"ha":861,"x_min":0,"x_max":0,"o":"m 768 866 b 553 888 711 876 638 888 b 338 838 435 888 378 871 b 245 531 294 804 245 724 b 532 108 245 206 369 108 b 635 118 569 108 603 112 l 635 417 l 449 417 l 466 542 l 772 542 l 773 18 b 534 -17 711 1 629 -17 b 86 495 262 -17 86 126 b 597 1030 86 828 228 1030 b 761 1013 659 1030 713 1024 l 768 866 m 420 1135 l 594 1135 l 765 1306 l 621 1306 l 507 1183 l 393 1306 l 249 1306 "},"Ĝ":{"ha":861,"x_min":0,"x_max":0,"o":"m 768 866 b 553 888 711 876 638 888 b 338 838 435 888 378 871 b 245 531 294 804 245 724 b 532 108 245 206 369 108 b 635 118 569 108 603 112 l 635 417 l 449 417 l 466 542 l 772 542 l 773 18 b 534 -17 711 1 629 -17 b 86 495 262 -17 86 126 b 597 1030 86 828 228 1030 b 761 1013 659 1030 713 1024 l 768 866 m 420 1306 l 594 1306 l 765 1135 l 621 1135 l 507 1258 l 393 1135 l 249 1135 "},"Ģ":{"ha":861,"x_min":0,"x_max":0,"o":"m 768 866 b 553 888 711 876 638 888 b 338 838 435 888 378 871 b 245 531 294 804 245 724 b 532 108 245 206 369 108 b 635 118 569 108 603 112 l 635 417 l 449 417 l 466 542 l 772 542 l 773 18 b 534 -17 711 1 629 -17 b 86 495 262 -17 86 126 b 597 1030 86 828 228 1030 b 761 1013 659 1030 713 1024 l 768 866 m 492 -356 b 385 -258 430 -356 385 -319 b 491 -160 385 -197 431 -160 b 608 -292 556 -160 608 -202 b 426 -532 608 -408 519 -488 l 376 -471 b 510 -354 434 -438 488 -405 b 492 -356 504 -355 498 -356 "},"Ġ":{"ha":861,"x_min":0,"x_max":0,"o":"m 768 866 b 553 888 711 876 638 888 b 338 838 435 888 378 871 b 245 531 294 804 245 724 b 532 108 245 206 369 108 b 635 118 569 108 603 112 l 635 417 l 449 417 l 466 542 l 772 542 l 773 18 b 534 -17 711 1 629 -17 b 86 495 262 -17 86 126 b 597 1030 86 828 228 1030 b 761 1013 659 1030 713 1024 l 768 866 m 506 1140 b 412 1226 450 1140 412 1173 b 506 1313 412 1281 450 1313 b 599 1226 561 1313 599 1281 b 506 1140 599 1173 561 1140 "},"H":{"ha":861,"x_min":0,"x_max":0,"o":"m 118 0 l 118 1014 l 278 1014 l 278 581 l 583 581 l 583 1014 l 744 1014 l 744 0 l 583 0 l 583 452 l 278 452 l 278 0 "},"Ħ":{"ha":861,"x_min":0,"x_max":0,"o":"m 833 758 l 744 758 l 744 0 l 583 0 l 583 452 l 278 452 l 278 0 l 118 0 l 118 758 l 28 758 l 28 870 l 118 870 l 118 1014 l 278 1014 l 278 870 l 583 870 l 583 1014 l 744 1014 l 744 870 l 833 870 m 583 581 l 583 758 l 278 758 l 278 581 "},"Ĥ":{"ha":861,"x_min":0,"x_max":0,"o":"m 118 0 l 118 1014 l 278 1014 l 278 581 l 583 581 l 583 1014 l 744 1014 l 744 0 l 583 0 l 583 452 l 278 452 l 278 0 m 344 1306 l 518 1306 l 689 1135 l 544 1135 l 431 1258 l 317 1135 l 173 1135 "},"I":{"ha":861,"x_min":0,"x_max":0,"o":"m 99 132 l 349 132 l 349 882 l 99 882 l 117 1014 l 744 1014 l 761 882 l 507 882 l 507 132 l 761 132 l 744 0 l 117 0 "},"Ĳ":{"ha":861,"x_min":0,"x_max":0,"o":"m 700 306 b 344 -16 700 56 563 -16 b 135 12 247 -16 188 -4 l 114 156 b 360 117 188 135 259 117 b 510 151 439 117 490 134 b 544 272 533 169 544 204 l 544 888 l 404 888 l 422 1014 l 700 1014 l 700 306 m 128 378 l 128 1014 l 278 1014 l 278 378 "},"Í":{"ha":861,"x_min":0,"x_max":0,"o":"m 99 132 l 349 132 l 349 882 l 99 882 l 117 1014 l 744 1014 l 761 882 l 507 882 l 507 132 l 761 132 l 744 0 l 117 0 m 497 1135 l 671 1306 l 502 1306 l 362 1135 "},"Ĭ":{"ha":861,"x_min":0,"x_max":0,"o":"m 99 132 l 349 132 l 349 882 l 99 882 l 117 1014 l 744 1014 l 761 882 l 507 882 l 507 132 l 761 132 l 744 0 l 117 0 m 313 1306 b 431 1208 313 1249 347 1208 b 549 1306 515 1208 549 1249 l 649 1306 b 431 1126 654 1194 581 1126 b 213 1306 281 1126 207 1194 l 313 1306 "},"Î":{"ha":861,"x_min":0,"x_max":0,"o":"m 99 132 l 349 132 l 349 882 l 99 882 l 117 1014 l 744 1014 l 761 882 l 507 882 l 507 132 l 761 132 l 744 0 l 117 0 m 344 1306 l 518 1306 l 689 1135 l 544 1135 l 431 1258 l 317 1135 l 173 1135 "},"Ï":{"ha":861,"x_min":0,"x_max":0,"o":"m 99 132 l 349 132 l 349 882 l 99 882 l 117 1014 l 744 1014 l 761 882 l 507 882 l 507 132 l 761 132 l 744 0 l 117 0 m 248 1140 b 156 1227 194 1140 156 1173 b 248 1313 156 1281 194 1313 b 340 1227 303 1313 340 1281 b 248 1140 340 1173 303 1140 m 614 1140 b 522 1227 560 1140 522 1173 b 614 1313 522 1281 560 1313 b 706 1227 669 1313 706 1281 b 614 1140 706 1173 669 1140 "},"İ":{"ha":861,"x_min":0,"x_max":0,"o":"m 99 132 l 349 132 l 349 882 l 99 882 l 117 1014 l 744 1014 l 761 882 l 507 882 l 507 132 l 761 132 l 744 0 l 117 0 m 429 1140 b 335 1226 374 1140 335 1173 b 429 1313 335 1281 374 1313 b 523 1226 485 1313 523 1281 b 429 1140 523 1173 485 1140 "},"Ị":{"ha":861,"x_min":0,"x_max":0,"o":"m 99 132 l 349 132 l 349 882 l 99 882 l 117 1014 l 744 1014 l 761 882 l 507 882 l 507 132 l 761 132 l 744 0 l 117 0 m 431 -360 b 322 -260 367 -360 322 -322 b 431 -160 322 -198 367 -160 b 539 -260 495 -160 539 -198 b 431 -360 539 -322 495 -360 "},"Ì":{"ha":861,"x_min":0,"x_max":0,"o":"m 99 132 l 349 132 l 349 882 l 99 882 l 117 1014 l 744 1014 l 761 882 l 507 882 l 507 132 l 761 132 l 744 0 l 117 0 m 365 1135 l 191 1306 l 359 1306 l 500 1135 "},"Ī":{"ha":861,"x_min":0,"x_max":0,"o":"m 99 132 l 349 132 l 349 882 l 99 882 l 117 1014 l 744 1014 l 761 882 l 507 882 l 507 132 l 761 132 l 744 0 l 117 0 m 658 1188 l 203 1188 l 203 1290 l 658 1290 "},"Į":{"ha":861,"x_min":0,"x_max":0,"o":"m 744 1014 l 761 882 l 507 882 l 507 132 l 761 132 l 744 0 l 510 0 b 412 -138 437 -59 412 -102 b 490 -192 412 -171 431 -192 l 510 -192 l 510 -292 l 453 -292 b 276 -171 310 -292 276 -232 b 377 0 276 -111 308 -60 l 117 0 l 99 132 l 349 132 l 349 882 l 99 882 l 117 1014 "},"Ĩ":{"ha":861,"x_min":0,"x_max":0,"o":"m 99 132 l 349 132 l 349 882 l 99 882 l 117 1014 l 744 1014 l 761 882 l 507 882 l 507 132 l 761 132 l 744 0 l 117 0 m 311 1319 b 524 1223 419 1319 453 1223 b 602 1310 564 1223 592 1253 l 706 1288 b 550 1126 693 1185 635 1126 b 338 1222 442 1126 408 1222 b 259 1134 298 1222 269 1192 l 155 1156 b 311 1319 169 1260 226 1319 "},"J":{"ha":861,"x_min":0,"x_max":0,"o":"m 700 306 b 344 -16 700 56 563 -16 b 135 12 247 -16 188 -4 l 114 156 b 360 117 188 135 259 117 b 503 151 432 117 483 134 b 538 272 526 169 538 204 l 538 888 l 142 888 l 160 1014 l 700 1014 l 700 306 "},"Ĵ":{"ha":861,"x_min":0,"x_max":0,"o":"m 700 306 b 344 -16 700 56 563 -16 b 135 12 247 -16 188 -4 l 114 156 b 360 117 188 135 259 117 b 503 151 432 117 483 134 b 538 272 526 169 538 204 l 538 888 l 142 888 l 160 1014 l 700 1014 l 700 306 m 353 1306 l 528 1306 l 699 1135 l 555 1135 l 441 1258 l 327 1135 l 183 1135 "},"K":{"ha":861,"x_min":0,"x_max":0,"o":"m 118 0 l 118 1014 l 278 1014 l 278 578 l 383 578 b 626 1014 484 730 556 860 l 796 1014 b 513 532 723 850 636 696 l 513 521 b 844 0 619 388 735 222 l 651 0 b 383 448 565 177 479 313 l 278 448 l 278 0 "},"Ķ":{"ha":861,"x_min":0,"x_max":0,"o":"m 118 0 l 118 1014 l 278 1014 l 278 578 l 383 578 b 626 1014 484 730 556 860 l 796 1014 b 513 532 723 850 636 696 l 513 521 b 844 0 619 388 735 222 l 651 0 b 383 448 565 177 479 313 l 278 448 l 278 0 m 429 -356 b 322 -258 367 -356 322 -319 b 428 -160 322 -197 368 -160 b 546 -292 494 -160 546 -202 b 363 -532 546 -408 456 -488 l 313 -471 b 448 -354 372 -438 425 -405 b 429 -356 442 -355 435 -356 "},"L":{"ha":861,"x_min":0,"x_max":0,"o":"m 135 1014 l 293 1014 l 293 132 l 787 133 l 766 0 l 135 0 "},"Ĺ":{"ha":861,"x_min":0,"x_max":0,"o":"m 135 1014 l 293 1014 l 293 132 l 787 133 l 766 0 l 135 0 m 281 1135 l 455 1306 l 287 1306 l 146 1135 "},"Ľ":{"ha":861,"x_min":0,"x_max":0,"o":"m 135 1014 l 293 1014 l 293 132 l 787 133 l 766 0 l 135 0 m 433 1106 l 569 1106 l 541 852 l 422 852 "},"Ļ":{"ha":861,"x_min":0,"x_max":0,"o":"m 135 1014 l 293 1014 l 293 132 l 787 133 l 766 0 l 135 0 m 429 -356 b 322 -258 367 -356 322 -319 b 428 -160 322 -197 368 -160 b 546 -292 494 -160 546 -202 b 363 -532 546 -408 456 -488 l 313 -471 b 448 -354 372 -438 425 -405 b 429 -356 442 -355 435 -356 "},"Ŀ":{"ha":861,"x_min":0,"x_max":0,"o":"m 647 484 b 556 576 593 484 556 519 b 647 666 556 632 593 666 b 738 576 701 666 738 632 b 647 484 738 519 701 484 m 135 1014 l 293 1014 l 293 132 l 787 133 l 766 0 l 135 0 "},"Ł":{"ha":861,"x_min":0,"x_max":0,"o":"m 550 650 l 293 525 l 293 132 l 787 133 l 766 0 l 135 0 l 135 448 l 7 385 l 7 522 l 135 585 l 135 1014 l 293 1014 l 293 662 l 550 787 "},"M":{"ha":861,"x_min":0,"x_max":0,"o":"m 261 1014 l 428 533 l 437 533 l 612 1014 l 748 1014 l 788 0 l 653 0 l 628 767 l 617 767 l 456 272 l 403 272 l 235 767 l 226 767 l 206 0 l 73 0 l 114 1014 "},"N":{"ha":861,"x_min":0,"x_max":0,"o":"m 118 1014 l 284 1014 l 603 265 l 611 265 l 611 1014 l 744 1014 l 744 0 l 578 0 l 259 756 l 251 756 l 251 0 l 118 0 "},"Ń":{"ha":861,"x_min":0,"x_max":0,"o":"m 118 1014 l 284 1014 l 603 265 l 611 265 l 611 1014 l 744 1014 l 744 0 l 578 0 l 259 756 l 251 756 l 251 0 l 118 0 m 497 1135 l 671 1306 l 502 1306 l 362 1135 "},"Ň":{"ha":861,"x_min":0,"x_max":0,"o":"m 118 1014 l 284 1014 l 603 265 l 611 265 l 611 1014 l 744 1014 l 744 0 l 578 0 l 259 756 l 251 756 l 251 0 l 118 0 m 344 1135 l 518 1135 l 689 1306 l 544 1306 l 431 1183 l 317 1306 l 173 1306 "},"Ņ":{"ha":861,"x_min":0,"x_max":0,"o":"m 118 1014 l 284 1014 l 603 265 l 611 265 l 611 1014 l 744 1014 l 744 0 l 578 0 l 259 756 l 251 756 l 251 0 l 118 0 m 429 -356 b 322 -258 367 -356 322 -319 b 428 -160 322 -197 368 -160 b 546 -292 494 -160 546 -202 b 363 -532 546 -408 456 -488 l 313 -471 b 448 -354 372 -438 425 -405 b 429 -356 442 -355 435 -356 "},"Ɲ":{"ha":861,"x_min":0,"x_max":0,"o":"m 61 -269 b -30 -248 25 -269 -7 -258 l -51 -117 b 44 -141 -17 -132 14 -141 b 99 -124 56 -141 82 -140 b 118 0 119 -106 118 -72 l 118 1014 l 284 1014 l 603 265 l 611 265 l 611 1014 l 744 1014 l 744 0 l 578 0 l 259 756 l 251 756 l 251 -25 b 61 -269 251 -179 167 -269 "},"Ñ":{"ha":861,"x_min":0,"x_max":0,"o":"m 118 1014 l 284 1014 l 603 265 l 611 265 l 611 1014 l 744 1014 l 744 0 l 578 0 l 259 756 l 251 756 l 251 0 l 118 0 m 311 1319 b 524 1223 419 1319 453 1223 b 602 1310 564 1223 592 1253 l 706 1288 b 550 1126 693 1185 635 1126 b 338 1222 442 1126 408 1222 b 259 1134 298 1222 269 1192 l 155 1156 b 311 1319 169 1260 226 1319 "},"Ŋ":{"ha":861,"x_min":0,"x_max":0,"o":"m 533 -269 b 440 -248 496 -269 465 -258 l 419 -117 b 513 -141 451 -132 482 -141 b 569 -124 527 -141 552 -140 b 588 -24 587 -108 588 -80 l 259 756 l 251 756 l 251 0 l 118 0 l 118 1014 l 284 1014 l 603 265 l 611 265 l 611 1015 l 744 1015 l 744 -25 b 533 -269 744 -179 650 -269 "},"O":{"ha":861,"x_min":0,"x_max":0,"o":"m 418 -13 b 77 513 140 -13 77 264 b 447 1026 77 853 231 1026 b 784 501 724 1026 784 750 b 418 -13 784 160 634 -13 m 435 107 b 561 150 498 107 538 126 b 619 435 584 173 619 235 b 425 901 619 755 586 901 b 300 858 363 901 323 881 b 242 583 276 835 242 769 b 435 107 242 263 275 107 "},"Ó":{"ha":861,"x_min":0,"x_max":0,"o":"m 418 -13 b 77 513 140 -13 77 264 b 447 1026 77 853 231 1026 b 784 501 724 1026 784 750 b 418 -13 784 160 634 -13 m 435 107 b 561 150 498 107 538 126 b 619 435 584 173 619 235 b 425 901 619 755 586 901 b 300 858 363 901 323 881 b 242 583 276 835 242 769 b 435 107 242 263 275 107 m 497 1135 l 671 1306 l 502 1306 l 362 1135 "},"Ŏ":{"ha":861,"x_min":0,"x_max":0,"o":"m 418 -13 b 77 513 140 -13 77 264 b 447 1026 77 853 231 1026 b 784 501 724 1026 784 750 b 418 -13 784 160 634 -13 m 435 107 b 561 150 498 107 538 126 b 619 435 584 173 619 235 b 425 901 619 755 586 901 b 300 858 363 901 323 881 b 242 583 276 835 242 769 b 435 107 242 263 275 107 m 313 1306 b 431 1208 313 1249 347 1208 b 549 1306 515 1208 549 1249 l 649 1306 b 431 1126 654 1194 581 1126 b 213 1306 281 1126 207 1194 l 313 1306 "},"Ô":{"ha":861,"x_min":0,"x_max":0,"o":"m 418 -13 b 77 513 140 -13 77 264 b 447 1026 77 853 231 1026 b 784 501 724 1026 784 750 b 418 -13 784 160 634 -13 m 435 107 b 561 150 498 107 538 126 b 619 435 584 173 619 235 b 425 901 619 755 586 901 b 300 858 363 901 323 881 b 242 583 276 835 242 769 b 435 107 242 263 275 107 m 344 1306 l 518 1306 l 689 1135 l 544 1135 l 431 1258 l 317 1135 l 173 1135 "},"Ö":{"ha":861,"x_min":0,"x_max":0,"o":"m 418 -13 b 77 513 140 -13 77 264 b 447 1026 77 853 231 1026 b 784 501 724 1026 784 750 b 418 -13 784 160 634 -13 m 435 107 b 561 150 498 107 538 126 b 619 435 584 173 619 235 b 425 901 619 755 586 901 b 300 858 363 901 323 881 b 242 583 276 835 242 769 b 435 107 242 263 275 107 m 248 1140 b 156 1227 194 1140 156 1173 b 248 1313 156 1281 194 1313 b 340 1227 303 1313 340 1281 b 248 1140 340 1173 303 1140 m 614 1140 b 522 1227 560 1140 522 1173 b 614 1313 522 1281 560 1313 b 706 1227 669 1313 706 1281 b 614 1140 706 1173 669 1140 "},"Ọ":{"ha":861,"x_min":0,"x_max":0,"o":"m 418 -13 b 77 513 140 -13 77 264 b 447 1026 77 853 231 1026 b 784 501 724 1026 784 750 b 418 -13 784 160 634 -13 m 435 107 b 561 150 498 107 538 126 b 619 435 584 173 619 235 b 425 901 619 755 586 901 b 300 858 363 901 323 881 b 242 583 276 835 242 769 b 435 107 242 263 275 107 m 431 -360 b 322 -260 367 -360 322 -322 b 431 -160 322 -198 367 -160 b 539 -260 495 -160 539 -198 b 431 -360 539 -322 495 -360 "},"Ò":{"ha":861,"x_min":0,"x_max":0,"o":"m 418 -13 b 77 513 140 -13 77 264 b 447 1026 77 853 231 1026 b 784 501 724 1026 784 750 b 418 -13 784 160 634 -13 m 435 107 b 561 150 498 107 538 126 b 619 435 584 173 619 235 b 425 901 619 755 586 901 b 300 858 363 901 323 881 b 242 583 276 835 242 769 b 435 107 242 263 275 107 m 365 1135 l 191 1306 l 359 1306 l 500 1135 "},"Ő":{"ha":861,"x_min":0,"x_max":0,"o":"m 418 -13 b 77 513 140 -13 77 264 b 447 1026 77 853 231 1026 b 784 501 724 1026 784 750 b 418 -13 784 160 634 -13 m 435 107 b 561 150 498 107 538 126 b 619 435 584 173 619 235 b 425 901 619 755 586 901 b 300 858 363 901 323 881 b 242 583 276 835 242 769 b 435 107 242 263 275 107 m 333 1306 l 463 1306 l 345 1135 l 238 1135 m 605 1306 l 735 1306 l 617 1135 l 510 1135 "},"Ō":{"ha":861,"x_min":0,"x_max":0,"o":"m 418 -13 b 77 513 140 -13 77 264 b 447 1026 77 853 231 1026 b 784 501 724 1026 784 750 b 418 -13 784 160 634 -13 m 435 107 b 561 150 498 107 538 126 b 619 435 584 173 619 235 b 425 901 619 755 586 901 b 300 858 363 901 323 881 b 242 583 276 835 242 769 b 435 107 242 263 275 107 m 658 1188 l 203 1188 l 203 1290 l 658 1290 "},"Ǫ":{"ha":861,"x_min":0,"x_max":0,"o":"m 435 107 b 561 150 498 107 538 126 b 619 435 584 173 619 235 b 425 901 619 755 586 901 b 300 858 363 901 323 881 b 242 583 276 835 242 769 b 435 107 242 263 275 107 m 77 513 b 447 1026 77 853 231 1026 b 784 501 724 1026 784 750 b 515 0 784 214 678 46 b 417 -138 442 -59 417 -102 b 495 -192 417 -171 436 -192 l 515 -192 l 515 -292 l 458 -292 b 281 -171 315 -292 281 -232 b 371 -10 281 -115 310 -65 b 77 513 133 20 77 278 "},"Ø":{"ha":861,"x_min":0,"x_max":0,"o":"m 418 -13 b 294 10 370 -13 329 -5 l 208 -183 l 76 -125 l 177 101 b 77 513 100 205 77 364 b 447 1026 77 853 231 1026 b 569 1005 493 1026 533 1019 l 655 1198 l 786 1140 l 685 913 b 784 501 763 810 784 651 b 418 -13 784 160 634 -13 m 435 107 b 561 150 498 107 538 126 b 619 435 584 173 619 235 b 592 756 619 574 613 681 l 336 138 b 435 107 362 117 394 107 m 242 583 b 269 257 242 443 248 335 l 524 872 b 425 901 498 892 466 901 b 300 858 363 901 323 881 b 242 583 276 835 242 769 "},"Ǿ":{"ha":861,"x_min":0,"x_max":0,"o":"m 418 -13 b 294 10 370 -13 329 -5 l 208 -183 l 76 -125 l 177 101 b 77 513 100 205 77 364 b 447 1026 77 853 231 1026 b 569 1005 493 1026 533 1019 l 655 1198 l 786 1140 l 685 913 b 784 501 763 810 784 651 b 418 -13 784 160 634 -13 m 435 107 b 561 150 498 107 538 126 b 619 435 584 173 619 235 b 592 756 619 574 613 681 l 336 138 b 435 107 362 117 394 107 m 465 1135 l 640 1306 l 471 1306 l 331 1135 m 242 583 b 269 257 242 443 248 335 l 524 872 b 425 901 498 892 466 901 b 300 858 363 901 323 881 b 242 583 276 835 242 769 "},"Õ":{"ha":861,"x_min":0,"x_max":0,"o":"m 418 -13 b 77 513 140 -13 77 264 b 447 1026 77 853 231 1026 b 784 501 724 1026 784 750 b 418 -13 784 160 634 -13 m 435 107 b 561 150 498 107 538 126 b 619 435 584 173 619 235 b 425 901 619 755 586 901 b 300 858 363 901 323 881 b 242 583 276 835 242 769 b 435 107 242 263 275 107 m 311 1319 b 524 1223 419 1319 453 1223 b 602 1310 564 1223 592 1253 l 706 1288 b 550 1126 693 1185 635 1126 b 338 1222 442 1126 408 1222 b 259 1134 298 1222 269 1192 l 155 1156 b 311 1319 169 1260 226 1319 "},"Œ":{"ha":861,"x_min":0,"x_max":0,"o":"m 418 0 b 77 513 140 0 77 277 b 444 1014 77 839 229 1013 l 826 1014 l 844 882 l 591 882 l 591 575 l 754 575 l 754 449 l 591 449 l 591 132 l 844 132 l 826 0 l 418 0 m 242 583 b 435 120 242 276 275 120 l 444 120 l 444 888 l 425 888 b 300 846 363 888 323 869 b 242 583 276 822 242 757 "},"P":{"ha":861,"x_min":0,"x_max":0,"o":"m 120 0 l 120 1014 l 465 1014 b 783 742 649 1014 783 938 b 303 353 783 512 611 385 l 281 350 l 281 0 m 298 471 b 622 724 492 489 622 569 b 423 897 622 828 565 897 l 281 897 l 281 469 l 298 471 "},"Þ":{"ha":861,"x_min":0,"x_max":0,"o":"m 120 0 l 120 1014 l 281 1014 l 281 853 l 465 853 b 783 581 649 853 783 777 b 303 192 783 351 611 224 l 281 189 l 281 0 m 298 310 b 622 563 492 328 622 408 b 423 736 622 667 565 736 l 281 736 l 281 308 l 298 310 "},"Q":{"ha":861,"x_min":0,"x_max":0,"o":"m 444 1026 b 71 555 213 1026 71 860 b 798 -191 71 141 328 -118 l 863 -69 b 477 65 702 -37 574 5 b 395 127 447 83 419 104 b 356 106 383 119 369 113 l 424 40 b 477 65 442 47 460 56 b 792 601 645 154 792 324 b 444 1026 792 798 715 1026 m 234 583 b 298 854 234 772 274 833 b 419 894 322 876 360 894 b 627 594 585 894 627 757 b 395 127 627 333 527 205 b 234 583 285 228 234 372 "},"R":{"ha":861,"x_min":0,"x_max":0,"o":"m 118 0 l 118 1014 l 450 1014 b 776 783 624 1014 776 965 b 510 454 776 633 671 526 l 822 0 l 631 0 l 336 460 l 335 488 b 608 758 508 553 608 633 b 435 897 608 856 549 897 l 278 897 l 278 0 "},"Ŕ":{"ha":861,"x_min":0,"x_max":0,"o":"m 118 0 l 118 1014 l 450 1014 b 776 783 624 1014 776 965 b 510 454 776 633 671 526 l 822 0 l 631 0 l 336 460 l 335 488 b 608 758 508 553 608 633 b 435 897 608 856 549 897 l 278 897 l 278 0 m 497 1135 l 671 1306 l 502 1306 l 362 1135 "},"Ř":{"ha":861,"x_min":0,"x_max":0,"o":"m 118 0 l 118 1014 l 450 1014 b 776 783 624 1014 776 965 b 510 454 776 633 671 526 l 822 0 l 631 0 l 336 460 l 335 488 b 608 758 508 553 608 633 b 435 897 608 856 549 897 l 278 897 l 278 0 m 344 1135 l 518 1135 l 689 1306 l 544 1306 l 431 1183 l 317 1306 l 173 1306 "},"Ŗ":{"ha":861,"x_min":0,"x_max":0,"o":"m 118 0 l 118 1014 l 450 1014 b 776 783 624 1014 776 965 b 510 454 776 633 671 526 l 822 0 l 631 0 l 336 460 l 335 488 b 608 758 508 553 608 633 b 435 897 608 856 549 897 l 278 897 l 278 0 m 429 -356 b 322 -258 367 -356 322 -319 b 428 -160 322 -197 368 -160 b 546 -292 494 -160 546 -202 b 363 -532 546 -408 456 -488 l 313 -471 b 448 -354 372 -438 425 -405 b 429 -356 442 -355 435 -356 "},"S":{"ha":861,"x_min":0,"x_max":0,"o":"m 737 868 b 489 894 647 887 565 894 b 293 856 368 894 317 875 b 259 780 274 840 259 819 b 473 586 259 693 349 644 b 765 290 633 511 760 460 b 362 -14 765 105 610 -14 b 101 33 258 -14 169 10 l 97 175 b 415 119 188 142 306 119 b 577 158 505 119 553 137 b 613 244 595 173 613 201 b 371 451 613 337 548 366 b 117 744 211 528 117 598 b 535 1032 117 963 326 1032 b 728 1010 598 1032 663 1025 l 737 868 "},"Ś":{"ha":861,"x_min":0,"x_max":0,"o":"m 737 868 b 489 894 647 887 565 894 b 293 856 368 894 317 875 b 259 780 274 840 259 819 b 473 586 259 693 349 644 b 765 290 633 511 760 460 b 362 -14 765 105 610 -14 b 101 33 258 -14 169 10 l 97 175 b 415 119 188 142 306 119 b 577 158 505 119 553 137 b 613 244 595 173 613 201 b 371 451 613 337 548 366 b 117 744 211 528 117 598 b 535 1032 117 963 326 1032 b 728 1010 598 1032 663 1025 l 737 868 m 497 1135 l 671 1306 l 502 1306 l 362 1135 "},"Š":{"ha":861,"x_min":0,"x_max":0,"o":"m 737 868 b 489 894 647 887 565 894 b 293 856 368 894 317 875 b 259 780 274 840 259 819 b 473 586 259 693 349 644 b 765 290 633 511 760 460 b 362 -14 765 105 610 -14 b 101 33 258 -14 169 10 l 97 175 b 415 119 188 142 306 119 b 577 158 505 119 553 137 b 613 244 595 173 613 201 b 371 451 613 337 548 366 b 117 744 211 528 117 598 b 535 1032 117 963 326 1032 b 728 1010 598 1032 663 1025 l 737 868 m 344 1135 l 518 1135 l 689 1306 l 544 1306 l 431 1183 l 317 1306 l 173 1306 "},"Ş":{"ha":861,"x_min":0,"x_max":0,"o":"m 737 868 b 489 894 647 887 565 894 b 293 856 368 894 317 875 b 259 780 274 840 259 819 b 473 586 259 693 349 644 b 765 290 633 511 760 460 b 477 -4 765 135 657 27 l 478 -117 b 600 -269 557 -135 600 -178 b 392 -417 600 -361 556 -417 l 338 -417 l 338 -328 l 375 -328 b 483 -260 456 -328 483 -303 b 383 -182 483 -208 443 -188 l 383 -14 l 362 -14 b 101 33 258 -14 169 10 l 97 175 b 415 119 188 142 306 119 b 577 158 505 119 553 137 b 613 244 595 173 613 201 b 371 451 613 337 548 366 b 117 744 211 528 117 598 b 535 1032 117 963 326 1032 b 728 1010 598 1032 663 1025 l 737 868 "},"Ŝ":{"ha":861,"x_min":0,"x_max":0,"o":"m 737 868 b 489 894 647 887 565 894 b 293 856 368 894 317 875 b 259 780 274 840 259 819 b 473 586 259 693 349 644 b 765 290 633 511 760 460 b 362 -14 765 105 610 -14 b 101 33 258 -14 169 10 l 97 175 b 415 119 188 142 306 119 b 577 158 505 119 553 137 b 613 244 595 173 613 201 b 371 451 613 337 548 366 b 117 744 211 528 117 598 b 535 1032 117 963 326 1032 b 728 1010 598 1032 663 1025 l 737 868 m 344 1306 l 518 1306 l 689 1135 l 544 1135 l 431 1258 l 317 1135 l 173 1135 "},"Ș":{"ha":861,"x_min":0,"x_max":0,"o":"m 737 868 b 489 894 647 887 565 894 b 293 856 368 894 317 875 b 259 780 274 840 259 819 b 473 586 259 693 349 644 b 765 290 633 511 760 460 b 362 -14 765 105 610 -14 b 101 33 258 -14 169 10 l 97 175 b 415 119 188 142 306 119 b 577 158 505 119 553 137 b 613 244 595 173 613 201 b 371 451 613 337 548 366 b 117 744 211 528 117 598 b 535 1032 117 963 326 1032 b 728 1010 598 1032 663 1025 l 737 868 m 429 -356 b 322 -258 367 -356 322 -319 b 428 -160 322 -197 368 -160 b 546 -292 494 -160 546 -202 b 363 -532 546 -408 456 -488 l 313 -471 b 448 -354 372 -438 425 -405 b 429 -356 442 -355 435 -356 "},"ẞ":{"ha":861,"x_min":0,"x_max":0,"o":"m 112 0 l 112 1014 l 749 1014 l 749 917 l 617 573 b 821 319 724 540 821 465 b 463 -10 821 143 677 26 l 427 -15 l 404 105 l 457 113 b 661 319 579 128 661 215 b 478 525 661 443 556 496 l 478 599 l 588 890 l 265 890 l 265 0 "},"T":{"ha":861,"x_min":0,"x_max":0,"o":"m 349 0 l 349 882 l 64 882 l 81 1014 l 780 1014 l 797 882 l 507 882 l 507 0 "},"Ŧ":{"ha":861,"x_min":0,"x_max":0,"o":"m 181 583 l 349 583 l 349 882 l 64 882 l 81 1014 l 780 1014 l 797 882 l 507 882 l 507 583 l 681 583 l 681 451 l 507 451 l 507 0 l 349 0 l 349 451 l 181 451 "},"Ť":{"ha":861,"x_min":0,"x_max":0,"o":"m 349 0 l 349 882 l 64 882 l 81 1014 l 780 1014 l 797 882 l 507 882 l 507 0 m 344 1135 l 518 1135 l 689 1306 l 544 1306 l 431 1183 l 317 1306 l 173 1306 "},"Ţ":{"ha":861,"x_min":0,"x_max":0,"o":"m 476 0 l 477 -117 b 599 -269 556 -135 599 -178 b 391 -417 599 -361 554 -417 l 336 -417 l 336 -328 l 374 -328 b 481 -260 454 -328 481 -303 b 381 -182 481 -208 442 -188 l 381 0 l 349 0 l 349 882 l 64 882 l 81 1014 l 780 1014 l 797 882 l 507 882 l 507 0 "},"Ț":{"ha":861,"x_min":0,"x_max":0,"o":"m 349 0 l 349 882 l 64 882 l 81 1014 l 780 1014 l 797 882 l 507 882 l 507 0 m 428 -356 b 321 -258 366 -356 321 -319 b 427 -160 321 -197 367 -160 b 544 -292 492 -160 544 -202 b 362 -532 544 -408 455 -488 l 312 -471 b 447 -354 370 -438 424 -405 b 428 -356 440 -355 434 -356 "},"U":{"ha":861,"x_min":0,"x_max":0,"o":"m 411 -13 b 100 303 198 -13 100 115 l 100 1014 l 260 1014 l 260 333 b 442 121 260 201 301 121 b 563 151 501 121 542 132 b 603 281 584 169 603 199 l 603 1014 l 762 1014 l 762 315 b 411 -13 762 64 606 -13 "},"Ú":{"ha":861,"x_min":0,"x_max":0,"o":"m 411 -13 b 100 303 198 -13 100 115 l 100 1014 l 260 1014 l 260 333 b 442 121 260 201 301 121 b 563 151 501 121 542 132 b 603 281 584 169 603 199 l 603 1014 l 762 1014 l 762 315 b 411 -13 762 64 606 -13 m 497 1135 l 671 1306 l 502 1306 l 362 1135 "},"Ŭ":{"ha":861,"x_min":0,"x_max":0,"o":"m 411 -13 b 100 303 198 -13 100 115 l 100 1014 l 260 1014 l 260 333 b 442 121 260 201 301 121 b 563 151 501 121 542 132 b 603 281 584 169 603 199 l 603 1014 l 762 1014 l 762 315 b 411 -13 762 64 606 -13 m 313 1306 b 431 1208 313 1249 347 1208 b 549 1306 515 1208 549 1249 l 649 1306 b 431 1126 654 1194 581 1126 b 213 1306 281 1126 207 1194 l 313 1306 "},"Û":{"ha":861,"x_min":0,"x_max":0,"o":"m 411 -13 b 100 303 198 -13 100 115 l 100 1014 l 260 1014 l 260 333 b 442 121 260 201 301 121 b 563 151 501 121 542 132 b 603 281 584 169 603 199 l 603 1014 l 762 1014 l 762 315 b 411 -13 762 64 606 -13 m 344 1306 l 518 1306 l 689 1135 l 544 1135 l 431 1258 l 317 1135 l 173 1135 "},"Ü":{"ha":861,"x_min":0,"x_max":0,"o":"m 411 -13 b 100 303 198 -13 100 115 l 100 1014 l 260 1014 l 260 333 b 442 121 260 201 301 121 b 563 151 501 121 542 132 b 603 281 584 169 603 199 l 603 1014 l 762 1014 l 762 315 b 411 -13 762 64 606 -13 m 248 1140 b 156 1227 194 1140 156 1173 b 248 1313 156 1281 194 1313 b 340 1227 303 1313 340 1281 b 248 1140 340 1173 303 1140 m 614 1140 b 522 1227 560 1140 522 1173 b 614 1313 522 1281 560 1313 b 706 1227 669 1313 706 1281 b 614 1140 706 1173 669 1140 "},"Ụ":{"ha":861,"x_min":0,"x_max":0,"o":"m 411 -13 b 100 303 198 -13 100 115 l 100 1014 l 260 1014 l 260 333 b 442 121 260 201 301 121 b 563 151 501 121 542 132 b 603 281 584 169 603 199 l 603 1014 l 762 1014 l 762 315 b 411 -13 762 64 606 -13 m 431 -360 b 322 -260 367 -360 322 -322 b 431 -160 322 -198 367 -160 b 539 -260 495 -160 539 -198 b 431 -360 539 -322 495 -360 "},"Ù":{"ha":861,"x_min":0,"x_max":0,"o":"m 411 -13 b 100 303 198 -13 100 115 l 100 1014 l 260 1014 l 260 333 b 442 121 260 201 301 121 b 563 151 501 121 542 132 b 603 281 584 169 603 199 l 603 1014 l 762 1014 l 762 315 b 411 -13 762 64 606 -13 m 365 1135 l 191 1306 l 359 1306 l 500 1135 "},"Ű":{"ha":861,"x_min":0,"x_max":0,"o":"m 411 -13 b 100 303 198 -13 100 115 l 100 1014 l 260 1014 l 260 333 b 442 121 260 201 301 121 b 563 151 501 121 542 132 b 603 281 584 169 603 199 l 603 1014 l 762 1014 l 762 315 b 411 -13 762 64 606 -13 m 333 1306 l 463 1306 l 345 1135 l 238 1135 m 605 1306 l 735 1306 l 617 1135 l 510 1135 "},"Ū":{"ha":861,"x_min":0,"x_max":0,"o":"m 411 -13 b 100 303 198 -13 100 115 l 100 1014 l 260 1014 l 260 333 b 442 121 260 201 301 121 b 563 151 501 121 542 132 b 603 281 584 169 603 199 l 603 1014 l 762 1014 l 762 315 b 411 -13 762 64 606 -13 m 658 1188 l 203 1188 l 203 1290 l 658 1290 "},"Ų":{"ha":861,"x_min":0,"x_max":0,"o":"m 100 1014 l 260 1014 l 260 333 b 442 121 260 201 301 121 b 563 151 501 121 542 132 b 603 281 584 169 603 199 l 603 1014 l 762 1014 l 762 315 b 535 0 762 121 669 31 b 438 -138 463 -59 438 -102 b 516 -192 438 -171 457 -192 l 536 -192 l 536 -292 l 479 -292 b 301 -171 336 -292 301 -232 b 389 -12 301 -115 330 -67 b 100 303 191 -4 100 122 "},"Ů":{"ha":861,"x_min":0,"x_max":0,"o":"m 411 -13 b 100 303 198 -13 100 115 l 100 1014 l 260 1014 l 260 333 b 442 121 260 201 301 121 b 563 151 501 121 542 132 b 603 281 584 169 603 199 l 603 1014 l 762 1014 l 762 315 b 411 -13 762 64 606 -13 m 431 982 b 270 1147 336 982 270 1052 b 431 1312 270 1242 336 1312 b 592 1147 525 1312 592 1242 b 431 982 592 1052 525 982 m 431 1054 b 521 1147 486 1054 521 1094 b 431 1240 521 1200 486 1240 b 340 1147 376 1240 340 1200 b 431 1054 340 1094 376 1054 "},"Ũ":{"ha":861,"x_min":0,"x_max":0,"o":"m 411 -13 b 100 303 198 -13 100 115 l 100 1014 l 260 1014 l 260 333 b 442 121 260 201 301 121 b 563 151 501 121 542 132 b 603 281 584 169 603 199 l 603 1014 l 762 1014 l 762 315 b 411 -13 762 64 606 -13 m 311 1319 b 524 1223 419 1319 453 1223 b 602 1310 564 1223 592 1253 l 706 1288 b 550 1126 693 1185 635 1126 b 338 1222 442 1126 408 1222 b 259 1134 298 1222 269 1192 l 155 1156 b 311 1319 169 1260 226 1319 "},"V":{"ha":861,"x_min":0,"x_max":0,"o":"m 235 1014 b 431 200 268 724 328 448 l 444 200 b 640 1014 547 448 606 724 l 790 1014 b 506 0 749 675 669 336 l 360 0 b 71 1014 192 340 116 672 l 235 1014 "},"W":{"ha":861,"x_min":0,"x_max":0,"o":"m 561 0 b 438 612 503 212 465 433 l 426 612 b 294 0 396 432 356 212 l 198 0 b 23 1014 99 334 44 681 l 172 1014 b 267 314 187 787 221 538 l 278 314 b 386 845 325 492 361 696 l 490 845 b 590 314 512 696 547 492 l 603 314 b 701 1014 649 535 685 787 l 839 1014 b 665 0 819 681 763 334 l 561 0 "},"Ẃ":{"ha":861,"x_min":0,"x_max":0,"o":"m 561 0 b 438 612 503 212 465 433 l 426 612 b 294 0 396 432 356 212 l 198 0 b 23 1014 99 334 44 681 l 172 1014 b 267 314 187 787 221 538 l 278 314 b 386 845 325 492 361 696 l 490 845 b 590 314 512 696 547 492 l 603 314 b 701 1014 649 535 685 787 l 839 1014 b 665 0 819 681 763 334 l 561 0 m 497 1135 l 671 1306 l 502 1306 l 362 1135 "},"Ŵ":{"ha":861,"x_min":0,"x_max":0,"o":"m 561 0 b 438 612 503 212 465 433 l 426 612 b 294 0 396 432 356 212 l 198 0 b 23 1014 99 334 44 681 l 172 1014 b 267 314 187 787 221 538 l 278 314 b 386 845 325 492 361 696 l 490 845 b 590 314 512 696 547 492 l 603 314 b 701 1014 649 535 685 787 l 839 1014 b 665 0 819 681 763 334 l 561 0 m 344 1306 l 518 1306 l 689 1135 l 544 1135 l 431 1258 l 317 1135 l 173 1135 "},"Ẅ":{"ha":861,"x_min":0,"x_max":0,"o":"m 561 0 b 438 612 503 212 465 433 l 426 612 b 294 0 396 432 356 212 l 198 0 b 23 1014 99 334 44 681 l 172 1014 b 267 314 187 787 221 538 l 278 314 b 386 845 325 492 361 696 l 490 845 b 590 314 512 696 547 492 l 603 314 b 701 1014 649 535 685 787 l 839 1014 b 665 0 819 681 763 334 l 561 0 m 248 1140 b 156 1227 194 1140 156 1173 b 248 1313 156 1281 194 1313 b 340 1227 303 1313 340 1281 b 248 1140 340 1173 303 1140 m 614 1140 b 522 1227 560 1140 522 1173 b 614 1313 522 1281 560 1313 b 706 1227 669 1313 706 1281 b 614 1140 706 1173 669 1140 "},"Ẁ":{"ha":861,"x_min":0,"x_max":0,"o":"m 561 0 b 438 612 503 212 465 433 l 426 612 b 294 0 396 432 356 212 l 198 0 b 23 1014 99 334 44 681 l 172 1014 b 267 314 187 787 221 538 l 278 314 b 386 845 325 492 361 696 l 490 845 b 590 314 512 696 547 492 l 603 314 b 701 1014 649 535 685 787 l 839 1014 b 665 0 819 681 763 334 l 561 0 m 365 1135 l 191 1306 l 359 1306 l 500 1135 "},"X":{"ha":861,"x_min":0,"x_max":0,"o":"m 231 1014 l 447 638 l 642 1014 l 807 1014 l 520 511 l 815 0 l 638 0 l 419 382 l 221 0 l 47 0 l 340 519 l 57 1014 "},"Y":{"ha":861,"x_min":0,"x_max":0,"o":"m 352 0 l 352 448 b 47 1014 206 637 107 825 l 213 1014 b 431 580 260 855 340 708 l 444 580 b 663 1014 535 708 616 855 l 815 1014 b 510 444 757 827 655 633 l 510 0 "},"Ý":{"ha":861,"x_min":0,"x_max":0,"o":"m 352 0 l 352 448 b 47 1014 206 637 107 825 l 213 1014 b 431 580 260 855 340 708 l 444 580 b 663 1014 535 708 616 855 l 815 1014 b 510 444 757 827 655 633 l 510 0 m 497 1135 l 671 1306 l 503 1306 l 362 1135 "},"Ŷ":{"ha":861,"x_min":0,"x_max":0,"o":"m 352 0 l 352 448 b 47 1014 206 637 107 825 l 213 1014 b 431 580 260 855 340 708 l 444 580 b 663 1014 535 708 616 855 l 815 1014 b 510 444 757 827 655 633 l 510 0 m 344 1306 l 518 1306 l 689 1135 l 545 1135 l 431 1258 l 317 1135 l 173 1135 "},"Ÿ":{"ha":861,"x_min":0,"x_max":0,"o":"m 352 0 l 352 448 b 47 1014 206 637 107 825 l 213 1014 b 431 580 260 855 340 708 l 444 580 b 663 1014 535 708 616 855 l 815 1014 b 510 444 757 827 655 633 l 510 0 m 249 1140 b 156 1227 194 1140 156 1173 b 249 1313 156 1281 194 1313 b 340 1227 303 1313 340 1281 b 249 1140 340 1173 303 1140 m 615 1140 b 522 1227 560 1140 522 1173 b 615 1313 522 1281 560 1313 b 706 1227 669 1313 706 1281 b 615 1140 706 1173 669 1140 "},"Ỳ":{"ha":861,"x_min":0,"x_max":0,"o":"m 352 0 l 352 448 b 47 1014 206 637 107 825 l 213 1014 b 431 580 260 855 340 708 l 444 580 b 663 1014 535 708 616 855 l 815 1014 b 510 444 757 827 655 633 l 510 0 m 365 1135 l 191 1306 l 360 1306 l 500 1135 "},"Ȳ":{"ha":861,"x_min":0,"x_max":0,"o":"m 352 0 l 352 448 b 47 1014 206 637 107 825 l 213 1014 b 431 580 260 855 340 708 l 444 580 b 663 1014 535 708 616 855 l 815 1014 b 510 444 757 827 655 633 l 510 0 m 659 1188 l 203 1188 l 203 1290 l 659 1290 "},"Ỹ":{"ha":861,"x_min":0,"x_max":0,"o":"m 352 0 l 352 448 b 47 1014 206 637 107 825 l 213 1014 b 431 580 260 855 340 708 l 444 580 b 663 1014 535 708 616 855 l 815 1014 b 510 444 757 827 655 633 l 510 0 m 311 1319 b 524 1223 419 1319 453 1223 b 603 1310 564 1223 592 1253 l 707 1288 b 550 1126 693 1185 635 1126 b 338 1222 442 1126 408 1222 b 260 1134 299 1222 270 1192 l 156 1156 b 311 1319 169 1260 226 1319 "},"Z":{"ha":861,"x_min":0,"x_max":0,"o":"m 717 1014 l 733 933 l 301 137 l 788 137 l 738 0 l 115 0 l 101 85 l 536 885 l 81 885 l 126 1014 "},"Ź":{"ha":861,"x_min":0,"x_max":0,"o":"m 717 1014 l 733 933 l 301 137 l 788 137 l 738 0 l 115 0 l 101 85 l 536 885 l 81 885 l 126 1014 m 497 1135 l 671 1306 l 502 1306 l 362 1135 "},"Ž":{"ha":861,"x_min":0,"x_max":0,"o":"m 717 1014 l 733 933 l 301 137 l 788 137 l 738 0 l 115 0 l 101 85 l 536 885 l 81 885 l 126 1014 m 344 1135 l 518 1135 l 689 1306 l 544 1306 l 431 1183 l 317 1306 l 173 1306 "},"Ż":{"ha":861,"x_min":0,"x_max":0,"o":"m 717 1014 l 733 933 l 301 137 l 788 137 l 738 0 l 115 0 l 101 85 l 536 885 l 81 885 l 126 1014 m 429 1140 b 335 1226 374 1140 335 1173 b 429 1313 335 1281 374 1313 b 523 1226 485 1313 523 1281 b 429 1140 523 1173 485 1140 "},"a":{"ha":861,"x_min":0,"x_max":0,"o":"m 579 0 l 579 61 l 567 61 b 315 -16 476 3 383 -16 b 88 177 169 -16 88 67 b 579 420 88 375 388 414 l 579 501 b 440 604 579 578 519 604 b 114 540 349 604 238 585 l 135 688 b 450 739 226 717 338 739 b 736 532 647 739 736 674 l 736 0 m 246 204 b 383 97 246 140 299 97 b 579 148 438 97 512 116 l 579 313 b 328 294 507 315 398 314 b 246 204 264 276 246 245 "},"á":{"ha":861,"x_min":0,"x_max":0,"o":"m 579 0 l 579 61 l 567 61 b 315 -16 476 3 383 -16 b 88 177 169 -16 88 67 b 579 420 88 375 388 414 l 579 501 b 440 604 579 578 519 604 b 114 540 349 604 238 585 l 135 688 b 450 739 226 717 338 739 b 736 532 647 739 736 674 l 736 0 m 497 885 l 671 1125 l 502 1125 l 362 885 m 246 204 b 383 97 246 140 299 97 b 579 148 438 97 512 116 l 579 313 b 328 294 507 315 398 314 b 246 204 264 276 246 245 "},"ă":{"ha":861,"x_min":0,"x_max":0,"o":"m 579 0 l 579 61 l 567 61 b 315 -16 476 3 383 -16 b 88 177 169 -16 88 67 b 579 420 88 375 388 414 l 579 501 b 440 604 579 578 519 604 b 114 540 349 604 238 585 l 135 688 b 450 739 226 717 338 739 b 736 532 647 739 736 674 l 736 0 m 313 1125 b 431 980 313 1033 347 980 b 549 1125 515 980 549 1033 l 649 1125 b 431 879 654 966 581 879 b 213 1125 281 879 207 966 l 313 1125 m 246 204 b 383 97 246 140 299 97 b 579 148 438 97 512 116 l 579 313 b 328 294 507 315 398 314 b 246 204 264 276 246 245 "},"â":{"ha":861,"x_min":0,"x_max":0,"o":"m 579 0 l 579 61 l 567 61 b 315 -16 476 3 383 -16 b 88 177 169 -16 88 67 b 579 420 88 375 388 414 l 579 501 b 440 604 579 578 519 604 b 114 540 349 604 238 585 l 135 688 b 450 739 226 717 338 739 b 736 532 647 739 736 674 l 736 0 m 347 1125 l 515 1125 l 689 885 l 551 885 l 431 1063 l 310 885 l 173 885 m 246 204 b 383 97 246 140 299 97 b 579 148 438 97 512 116 l 579 313 b 328 294 507 315 398 314 b 246 204 264 276 246 245 "},"ä":{"ha":861,"x_min":0,"x_max":0,"o":"m 579 0 l 579 61 l 567 61 b 315 -16 476 3 383 -16 b 88 177 169 -16 88 67 b 579 420 88 375 388 414 l 579 501 b 440 604 579 578 519 604 b 114 540 349 604 238 585 l 135 688 b 450 739 226 717 338 739 b 736 532 647 739 736 674 l 736 0 m 248 882 b 149 983 189 882 149 921 b 248 1081 149 1044 189 1081 b 347 983 306 1081 347 1044 b 248 882 347 921 306 882 m 614 882 b 515 983 555 882 515 921 b 614 1081 515 1044 555 1081 b 713 983 672 1081 713 1044 b 614 882 713 921 672 882 m 246 204 b 383 97 246 140 299 97 b 579 148 438 97 512 116 l 579 313 b 328 294 507 315 398 314 b 246 204 264 276 246 245 "},"à":{"ha":861,"x_min":0,"x_max":0,"o":"m 579 0 l 579 61 l 567 61 b 315 -16 476 3 383 -16 b 88 177 169 -16 88 67 b 579 420 88 375 388 414 l 579 501 b 440 604 579 578 519 604 b 114 540 349 604 238 585 l 135 688 b 450 739 226 717 338 739 b 736 532 647 739 736 674 l 736 0 m 365 885 l 191 1125 l 359 1125 l 500 885 m 246 204 b 383 97 246 140 299 97 b 579 148 438 97 512 116 l 579 313 b 328 294 507 315 398 314 b 246 204 264 276 246 245 "},"ā":{"ha":861,"x_min":0,"x_max":0,"o":"m 579 0 l 579 61 l 567 61 b 315 -16 476 3 383 -16 b 88 177 169 -16 88 67 b 579 420 88 375 388 414 l 579 501 b 440 604 579 578 519 604 b 114 540 349 604 238 585 l 135 688 b 450 739 226 717 338 739 b 736 532 647 739 736 674 l 736 0 m 658 916 l 203 916 l 203 1018 l 658 1018 m 246 204 b 383 97 246 140 299 97 b 579 148 438 97 512 116 l 579 313 b 328 294 507 315 398 314 b 246 204 264 276 246 245 "},"ą":{"ha":861,"x_min":0,"x_max":0,"o":"m 736 0 b 638 -138 663 -59 638 -102 b 716 -192 638 -171 658 -192 l 736 -192 l 736 -292 l 679 -292 b 502 -171 537 -292 502 -232 b 603 0 502 -111 535 -60 l 579 0 l 579 61 l 567 61 b 315 -16 476 3 383 -16 b 88 177 169 -16 88 67 b 579 420 88 375 388 414 l 579 501 b 440 604 579 578 519 604 b 114 540 349 604 238 585 l 135 688 b 450 739 226 717 338 739 b 736 532 647 739 736 674 l 736 0 m 246 204 b 383 97 246 140 299 97 b 579 148 438 97 512 116 l 579 313 b 328 294 507 315 398 314 b 246 204 264 276 246 245 "},"å":{"ha":861,"x_min":0,"x_max":0,"o":"m 579 0 l 579 61 l 567 61 b 315 -16 476 3 383 -16 b 88 177 169 -16 88 67 b 579 420 88 375 388 414 l 579 501 b 440 604 579 578 519 604 b 114 540 349 604 238 585 l 135 688 b 450 739 226 717 338 739 b 736 532 647 739 736 674 l 736 0 m 431 842 b 270 1008 336 842 270 913 b 431 1172 270 1103 336 1172 b 592 1008 525 1172 592 1103 b 431 842 592 913 525 842 m 431 915 b 521 1008 486 915 521 954 b 431 1100 521 1060 486 1100 b 340 1008 376 1100 340 1060 b 431 915 340 954 376 915 m 246 204 b 383 97 246 140 299 97 b 579 148 438 97 512 116 l 579 313 b 328 294 507 315 398 314 b 246 204 264 276 246 245 "},"ã":{"ha":861,"x_min":0,"x_max":0,"o":"m 579 0 l 579 61 l 567 61 b 315 -16 476 3 383 -16 b 88 177 169 -16 88 67 b 579 420 88 375 388 414 l 579 501 b 440 604 579 578 519 604 b 114 540 349 604 238 585 l 135 688 b 450 739 226 717 338 739 b 736 532 647 739 736 674 l 736 0 m 306 1122 b 523 989 415 1122 453 989 b 599 1112 563 989 589 1035 l 703 1082 b 548 867 690 945 632 867 b 333 1000 440 867 401 1000 b 256 877 292 1000 267 953 l 152 907 b 306 1122 165 1044 223 1122 m 246 204 b 383 97 246 140 299 97 b 579 148 438 97 512 116 l 579 313 b 328 294 507 315 398 314 b 246 204 264 276 246 245 "},"æ":{"ha":861,"x_min":0,"x_max":0,"o":"m 620 -17 b 449 69 547 -17 490 13 l 423 69 b 226 -17 369 12 296 -17 b 40 173 114 -17 40 60 b 378 419 40 353 233 410 l 378 494 b 259 608 378 581 315 608 b 65 544 206 608 135 585 l 85 688 b 269 739 139 719 204 739 b 455 647 345 739 417 710 b 623 739 498 712 562 739 b 818 442 759 739 818 623 l 818 351 l 501 351 b 653 110 507 216 548 110 b 793 145 696 110 743 125 l 788 27 b 620 -17 743 5 683 -17 m 168 202 b 279 94 168 140 206 94 b 415 134 321 94 371 109 b 383 313 397 183 385 242 b 244 295 342 313 290 310 b 168 202 185 276 168 245 m 702 441 l 703 465 b 603 626 703 568 665 626 b 542 601 583 626 558 620 b 502 441 524 581 507 533 "},"ǽ":{"ha":861,"x_min":0,"x_max":0,"o":"m 620 -17 b 449 69 547 -17 490 13 l 423 69 b 226 -17 369 12 296 -17 b 40 173 114 -17 40 60 b 378 419 40 353 233 410 l 378 494 b 259 608 378 581 315 608 b 65 544 206 608 135 585 l 85 688 b 269 739 139 719 204 739 b 455 647 345 739 417 710 b 623 739 498 712 562 739 b 818 442 759 739 818 623 l 818 351 l 501 351 b 653 110 507 216 548 110 b 793 145 696 110 743 125 l 788 27 b 620 -17 743 5 683 -17 m 497 885 l 671 1125 l 502 1125 l 362 885 m 168 202 b 279 94 168 140 206 94 b 415 134 321 94 371 109 b 383 313 397 183 385 242 b 244 295 342 313 290 310 b 168 202 185 276 168 245 m 702 441 l 703 465 b 603 626 703 568 665 626 b 542 601 583 626 558 620 b 502 441 524 581 507 533 "},"b":{"ha":861,"x_min":0,"x_max":0,"o":"m 792 397 b 401 -16 792 122 618 -16 b 185 33 324 -16 251 1 l 144 0 l 101 0 l 101 1063 l 259 1063 l 259 644 l 267 644 b 506 738 328 698 403 738 b 792 397 690 738 792 608 m 259 139 b 428 101 313 113 369 101 b 549 135 476 101 513 110 b 627 359 587 160 627 212 b 437 617 627 490 593 617 b 259 572 379 617 319 599 l 259 139 "},"c":{"ha":861,"x_min":0,"x_max":0,"o":"m 543 739 b 744 712 617 739 685 728 l 757 567 b 492 594 667 584 566 594 b 335 559 412 594 367 582 b 264 384 305 538 264 490 b 538 119 264 199 380 119 b 758 153 612 119 691 135 l 751 28 b 509 -17 704 9 625 -17 b 108 351 252 -17 108 117 b 543 739 108 630 309 739 "},"ć":{"ha":861,"x_min":0,"x_max":0,"o":"m 543 739 b 744 712 617 739 685 728 l 757 567 b 492 594 667 584 566 594 b 335 559 412 594 367 582 b 264 384 305 538 264 490 b 538 119 264 199 380 119 b 758 153 612 119 691 135 l 751 28 b 509 -17 704 9 625 -17 b 108 351 252 -17 108 117 b 543 739 108 630 309 739 m 542 885 l 716 1125 l 547 1125 l 407 885 "},"č":{"ha":861,"x_min":0,"x_max":0,"o":"m 543 739 b 744 712 617 739 685 728 l 757 567 b 492 594 667 584 566 594 b 335 559 412 594 367 582 b 264 384 305 538 264 490 b 538 119 264 199 380 119 b 758 153 612 119 691 135 l 751 28 b 509 -17 704 9 625 -17 b 108 351 252 -17 108 117 b 543 739 108 630 309 739 m 392 885 l 560 885 l 734 1125 l 597 1125 l 476 947 l 355 1125 l 218 1125 "},"ç":{"ha":861,"x_min":0,"x_max":0,"o":"m 543 739 b 744 712 617 739 685 728 l 757 567 b 492 594 667 584 566 594 b 335 559 412 594 367 582 b 264 384 305 538 264 490 b 538 119 264 199 380 119 b 758 153 612 119 691 135 l 751 28 b 509 -17 704 9 625 -17 l 477 -16 l 478 -117 b 600 -269 557 -135 600 -178 b 392 -417 600 -361 556 -417 l 338 -417 l 338 -328 l 375 -328 b 483 -260 456 -328 483 -303 b 383 -182 483 -208 443 -188 l 383 -4 b 108 351 206 34 108 158 b 543 739 108 630 309 739 "},"ĉ":{"ha":861,"x_min":0,"x_max":0,"o":"m 543 739 b 744 712 617 739 685 728 l 757 567 b 492 594 667 584 566 594 b 335 559 412 594 367 582 b 264 384 305 538 264 490 b 538 119 264 199 380 119 b 758 153 612 119 691 135 l 751 28 b 509 -17 704 9 625 -17 b 108 351 252 -17 108 117 b 543 739 108 630 309 739 m 392 1125 l 560 1125 l 734 885 l 597 885 l 476 1063 l 355 885 l 218 885 "},"ċ":{"ha":861,"x_min":0,"x_max":0,"o":"m 543 739 b 744 712 617 739 685 728 l 757 567 b 492 594 667 584 566 594 b 335 559 412 594 367 582 b 264 384 305 538 264 490 b 538 119 264 199 380 119 b 758 153 612 119 691 135 l 751 28 b 509 -17 704 9 625 -17 b 108 351 252 -17 108 117 b 543 739 108 630 309 739 m 476 883 b 367 984 412 883 367 922 b 476 1083 367 1046 412 1083 b 584 984 540 1083 584 1046 b 476 883 584 922 540 883 "},"d":{"ha":861,"x_min":0,"x_max":0,"o":"m 69 325 b 460 738 69 601 243 738 b 603 718 510 738 558 731 l 603 1063 l 760 1063 l 760 0 l 613 0 l 613 78 l 594 78 b 356 -16 534 25 458 -16 b 69 325 171 -16 69 115 m 235 364 b 424 106 235 233 268 106 b 603 151 482 106 543 124 l 603 584 b 433 622 548 609 492 622 b 312 588 385 622 349 613 b 235 364 275 563 235 510 "},"ď":{"ha":861,"x_min":0,"x_max":0,"o":"m 74 325 b 429 738 74 598 237 738 b 541 720 465 738 503 732 l 541 1063 l 695 1063 l 695 0 l 551 0 l 551 78 l 535 78 b 331 -16 479 25 419 -16 b 74 325 167 -16 74 115 m 806 1155 l 931 1155 l 903 901 l 795 901 m 229 364 b 390 106 229 233 261 106 b 541 149 435 106 486 123 l 541 594 b 426 622 499 613 463 622 b 298 587 378 622 329 611 b 229 364 263 559 229 510 "},"đ":{"ha":861,"x_min":0,"x_max":0,"o":"m 69 325 b 460 738 69 601 243 738 b 603 718 510 738 558 731 l 603 872 l 293 872 l 293 962 l 603 962 l 603 1063 l 760 1063 l 760 962 l 828 962 l 828 872 l 760 872 l 760 0 l 613 0 l 613 78 l 594 78 b 356 -16 534 25 458 -16 b 69 325 171 -16 69 115 m 235 364 b 424 106 235 233 268 106 b 603 151 482 106 543 124 l 603 584 b 433 622 548 609 492 622 b 312 588 385 622 349 613 b 235 364 275 563 235 510 "},"ð":{"ha":861,"x_min":0,"x_max":0,"o":"m 720 990 l 553 925 l 592 876 b 782 378 696 741 782 579 b 424 -17 782 90 601 -17 b 77 335 223 -17 77 106 b 424 694 77 588 261 694 b 544 674 467 694 507 686 b 453 813 518 719 488 765 b 410 870 439 833 424 852 l 201 790 l 172 869 l 352 939 b 273 1025 324 970 297 999 l 410 1078 b 493 993 435 1053 464 1025 l 691 1069 m 233 351 b 440 101 233 240 255 101 b 562 131 495 101 534 112 b 629 348 590 151 629 206 b 604 533 630 417 621 476 b 417 578 550 563 488 578 b 297 549 367 578 326 568 b 233 351 267 529 233 474 "},"e":{"ha":861,"x_min":0,"x_max":0,"o":"m 326 592 b 253 444 299 572 263 530 l 617 444 l 617 465 b 449 626 617 574 562 626 b 326 592 388 626 349 610 m 98 342 b 483 739 98 618 287 739 b 763 442 685 739 763 613 l 763 354 l 251 354 b 522 110 260 213 318 110 b 732 145 605 110 678 126 l 726 27 b 479 -17 670 6 585 -17 b 98 342 230 -17 98 110 "},"é":{"ha":861,"x_min":0,"x_max":0,"o":"m 326 592 b 253 444 299 572 263 530 l 617 444 l 617 465 b 449 626 617 574 562 626 b 326 592 388 626 349 610 m 510 885 l 685 1125 l 516 1125 l 376 885 m 98 342 b 483 739 98 618 287 739 b 763 442 685 739 763 613 l 763 354 l 251 354 b 522 110 260 213 318 110 b 732 145 605 110 678 126 l 726 27 b 479 -17 670 6 585 -17 b 98 342 230 -17 98 110 "},"ĕ":{"ha":861,"x_min":0,"x_max":0,"o":"m 326 592 b 253 444 299 572 263 530 l 617 444 l 617 465 b 449 626 617 574 562 626 b 326 592 388 626 349 610 m 327 1125 b 444 980 327 1033 360 980 b 563 1125 528 980 563 1033 l 663 1125 b 444 879 668 966 594 879 b 227 1125 295 879 221 966 l 327 1125 m 98 342 b 483 739 98 618 287 739 b 763 442 685 739 763 613 l 763 354 l 251 354 b 522 110 260 213 318 110 b 732 145 605 110 678 126 l 726 27 b 479 -17 670 6 585 -17 b 98 342 230 -17 98 110 "},"ě":{"ha":861,"x_min":0,"x_max":0,"o":"m 326 592 b 253 444 299 572 263 530 l 617 444 l 617 465 b 449 626 617 574 562 626 b 326 592 388 626 349 610 m 361 885 l 528 885 l 703 1125 l 565 1125 l 444 947 l 324 1125 l 187 1125 m 98 342 b 483 739 98 618 287 739 b 763 442 685 739 763 613 l 763 354 l 251 354 b 522 110 260 213 318 110 b 732 145 605 110 678 126 l 726 27 b 479 -17 670 6 585 -17 b 98 342 230 -17 98 110 "},"ê":{"ha":861,"x_min":0,"x_max":0,"o":"m 326 592 b 253 444 299 572 263 530 l 617 444 l 617 465 b 449 626 617 574 562 626 b 326 592 388 626 349 610 m 361 1125 l 528 1125 l 703 885 l 565 885 l 444 1063 l 324 885 l 187 885 m 98 342 b 483 739 98 618 287 739 b 763 442 685 739 763 613 l 763 354 l 251 354 b 522 110 260 213 318 110 b 732 145 605 110 678 126 l 726 27 b 479 -17 670 6 585 -17 b 98 342 230 -17 98 110 "},"ë":{"ha":861,"x_min":0,"x_max":0,"o":"m 326 592 b 253 444 299 572 263 530 l 617 444 l 617 465 b 449 626 617 574 562 626 b 326 592 388 626 349 610 m 262 882 b 163 983 203 882 163 921 b 262 1081 163 1044 203 1081 b 360 983 320 1081 360 1044 b 262 882 360 921 320 882 m 628 882 b 528 983 569 882 528 921 b 628 1081 528 1044 569 1081 b 726 983 686 1081 726 1044 b 628 882 726 921 686 882 m 98 342 b 483 739 98 618 287 739 b 763 442 685 739 763 613 l 763 354 l 251 354 b 522 110 260 213 318 110 b 732 145 605 110 678 126 l 726 27 b 479 -17 670 6 585 -17 b 98 342 230 -17 98 110 "},"ė":{"ha":861,"x_min":0,"x_max":0,"o":"m 326 592 b 253 444 299 572 263 530 l 617 444 l 617 465 b 449 626 617 574 562 626 b 326 592 388 626 349 610 m 444 883 b 336 984 381 883 336 922 b 444 1083 336 1046 381 1083 b 553 984 509 1083 553 1046 b 444 883 553 922 509 883 m 98 342 b 483 739 98 618 287 739 b 763 442 685 739 763 613 l 763 354 l 251 354 b 522 110 260 213 318 110 b 732 145 605 110 678 126 l 726 27 b 479 -17 670 6 585 -17 b 98 342 230 -17 98 110 "},"ẹ":{"ha":861,"x_min":0,"x_max":0,"o":"m 326 592 b 253 444 299 572 263 530 l 617 444 l 617 465 b 449 626 617 574 562 626 b 326 592 388 626 349 610 m 431 -360 b 322 -260 367 -360 322 -322 b 431 -160 322 -198 367 -160 b 539 -260 495 -160 539 -198 b 431 -360 539 -322 495 -360 m 98 342 b 483 739 98 618 287 739 b 763 442 685 739 763 613 l 763 354 l 251 354 b 522 110 260 213 318 110 b 732 145 605 110 678 126 l 726 27 b 479 -17 670 6 585 -17 b 98 342 230 -17 98 110 "},"è":{"ha":861,"x_min":0,"x_max":0,"o":"m 326 592 b 253 444 299 572 263 530 l 617 444 l 617 465 b 449 626 617 574 562 626 b 326 592 388 626 349 610 m 379 885 l 205 1125 l 373 1125 l 514 885 m 98 342 b 483 739 98 618 287 739 b 763 442 685 739 763 613 l 763 354 l 251 354 b 522 110 260 213 318 110 b 732 145 605 110 678 126 l 726 27 b 479 -17 670 6 585 -17 b 98 342 230 -17 98 110 "},"ē":{"ha":861,"x_min":0,"x_max":0,"o":"m 326 592 b 253 444 299 572 263 530 l 617 444 l 617 465 b 449 626 617 574 562 626 b 326 592 388 626 349 610 m 672 916 l 217 916 l 217 1018 l 672 1018 m 98 342 b 483 739 98 618 287 739 b 763 442 685 739 763 613 l 763 354 l 251 354 b 522 110 260 213 318 110 b 732 145 605 110 678 126 l 726 27 b 479 -17 670 6 585 -17 b 98 342 230 -17 98 110 "},"ę":{"ha":861,"x_min":0,"x_max":0,"o":"m 326 592 b 253 444 299 572 263 530 l 617 444 l 617 465 b 449 626 617 574 562 626 b 326 592 388 626 349 610 m 98 342 b 483 739 98 618 287 739 b 763 442 685 739 763 613 l 763 354 l 251 354 b 522 110 260 213 318 110 b 732 145 605 110 678 126 l 726 27 b 556 -12 685 12 626 -5 b 466 -144 489 -68 466 -110 b 544 -198 466 -177 485 -198 l 564 -198 l 564 -299 l 507 -299 b 330 -177 365 -299 330 -238 b 422 -15 330 -120 360 -70 b 98 342 210 4 98 128 "},"ẽ":{"ha":861,"x_min":0,"x_max":0,"o":"m 326 592 b 253 444 299 572 263 530 l 617 444 l 617 465 b 449 626 617 574 562 626 b 326 592 388 626 349 610 m 320 1122 b 537 989 429 1122 467 989 b 613 1112 577 989 603 1035 l 717 1082 b 562 867 703 945 646 867 b 347 1000 453 867 415 1000 b 270 877 306 1000 281 953 l 166 907 b 320 1122 179 1044 237 1122 m 98 342 b 483 739 98 618 287 739 b 763 442 685 739 763 613 l 763 354 l 251 354 b 522 110 260 213 318 110 b 732 145 605 110 678 126 l 726 27 b 479 -17 670 6 585 -17 b 98 342 230 -17 98 110 "},"ə":{"ha":861,"x_min":0,"x_max":0,"o":"m 535 130 b 609 278 563 151 599 192 l 245 278 l 244 258 b 413 97 244 149 300 97 b 535 130 474 97 513 113 m 99 368 l 610 368 b 339 613 601 510 544 613 b 130 578 257 613 184 596 l 135 696 b 383 739 191 716 277 739 b 764 381 632 739 764 612 b 378 -17 764 104 575 -17 b 99 281 176 -17 99 110 "},"f":{"ha":861,"x_min":0,"x_max":0,"o":"m 825 968 b 627 992 772 983 708 992 b 503 958 562 992 523 977 b 472 853 483 940 472 911 l 472 722 l 806 722 l 781 601 l 472 601 l 472 121 l 702 121 l 684 0 l 144 0 l 126 121 l 313 121 l 313 601 l 71 601 l 71 672 l 313 728 l 313 735 b 676 1123 313 972 428 1123 b 800 1109 723 1123 765 1117 l 825 968 "},"g":{"ha":861,"x_min":0,"x_max":0,"o":"m 345 259 l 327 205 b 360 153 317 167 333 158 l 626 106 b 807 -52 704 92 807 65 b 368 -301 807 -214 607 -301 b 40 -134 187 -301 40 -250 b 151 16 40 -78 74 -33 l 229 64 b 202 118 212 79 202 97 b 246 239 202 155 231 205 l 261 274 b 83 489 152 308 83 390 b 410 740 83 637 225 740 b 603 689 487 740 551 722 b 792 748 647 713 722 744 l 815 639 l 649 629 b 706 499 680 599 706 559 b 376 258 706 352 556 258 m 559 478 b 372 632 559 570 510 632 b 260 607 308 632 278 620 b 232 515 244 593 232 567 b 419 360 232 423 281 360 b 531 386 483 360 514 372 b 559 478 547 399 559 425 m 191 -103 b 397 -199 191 -172 275 -199 b 664 -90 545 -199 664 -159 b 549 -17 664 -50 623 -30 l 342 20 b 301 30 327 23 314 26 b 191 -103 247 -1 191 -43 "},"ğ":{"ha":861,"x_min":0,"x_max":0,"o":"m 345 259 l 327 205 b 360 153 317 167 333 158 l 626 106 b 807 -52 704 92 807 65 b 368 -301 807 -214 607 -301 b 40 -134 187 -301 40 -250 b 151 16 40 -78 74 -33 l 229 64 b 202 118 212 79 202 97 b 246 239 202 155 231 205 l 261 274 b 83 489 152 308 83 390 b 410 740 83 637 225 740 b 603 689 487 740 551 722 b 792 748 647 713 722 744 l 815 639 l 649 629 b 706 499 680 599 706 559 b 376 258 706 352 556 258 m 559 478 b 372 632 559 570 510 632 b 260 607 308 632 278 620 b 232 515 244 593 232 567 b 419 360 232 423 281 360 b 531 386 483 360 514 372 b 559 478 547 399 559 425 m 313 1125 b 431 980 313 1033 347 980 b 549 1125 515 980 549 1033 l 649 1125 b 431 879 654 966 581 879 b 213 1125 281 879 207 966 l 313 1125 m 191 -103 b 397 -199 191 -172 275 -199 b 664 -90 545 -199 664 -159 b 549 -17 664 -50 623 -30 l 342 20 b 301 30 327 23 314 26 b 191 -103 247 -1 191 -43 "},"ǧ":{"ha":861,"x_min":0,"x_max":0,"o":"m 345 259 l 327 205 b 360 153 317 167 333 158 l 626 106 b 807 -52 704 92 807 65 b 368 -301 807 -214 607 -301 b 40 -134 187 -301 40 -250 b 151 16 40 -78 74 -33 l 229 64 b 202 118 212 79 202 97 b 246 239 202 155 231 205 l 261 274 b 83 489 152 308 83 390 b 410 740 83 637 225 740 b 603 689 487 740 551 722 b 792 748 647 713 722 744 l 815 639 l 649 629 b 706 499 680 599 706 559 b 376 258 706 352 556 258 m 559 478 b 372 632 559 570 510 632 b 260 607 308 632 278 620 b 232 515 244 593 232 567 b 419 360 232 423 281 360 b 531 386 483 360 514 372 b 559 478 547 399 559 425 m 347 885 l 515 885 l 689 1125 l 551 1125 l 431 947 l 310 1125 l 173 1125 m 191 -103 b 397 -199 191 -172 275 -199 b 664 -90 545 -199 664 -159 b 549 -17 664 -50 623 -30 l 342 20 b 301 30 327 23 314 26 b 191 -103 247 -1 191 -43 "},"ĝ":{"ha":861,"x_min":0,"x_max":0,"o":"m 345 259 l 327 205 b 360 153 317 167 333 158 l 626 106 b 807 -52 704 92 807 65 b 368 -301 807 -214 607 -301 b 40 -134 187 -301 40 -250 b 151 16 40 -78 74 -33 l 229 64 b 202 118 212 79 202 97 b 246 239 202 155 231 205 l 261 274 b 83 489 152 308 83 390 b 410 740 83 637 225 740 b 603 689 487 740 551 722 b 792 748 647 713 722 744 l 815 639 l 649 629 b 706 499 680 599 706 559 b 376 258 706 352 556 258 m 559 478 b 372 632 559 570 510 632 b 260 607 308 632 278 620 b 232 515 244 593 232 567 b 419 360 232 423 281 360 b 531 386 483 360 514 372 b 559 478 547 399 559 425 m 347 1125 l 515 1125 l 689 885 l 551 885 l 431 1063 l 310 885 l 173 885 m 191 -103 b 397 -199 191 -172 275 -199 b 664 -90 545 -199 664 -159 b 549 -17 664 -50 623 -30 l 342 20 b 301 30 327 23 314 26 b 191 -103 247 -1 191 -43 "},"ģ":{"ha":861,"x_min":0,"x_max":0,"o":"m 345 259 l 327 205 b 360 153 317 167 333 158 l 626 106 b 807 -52 704 92 807 65 b 368 -301 807 -214 607 -301 b 40 -134 187 -301 40 -250 b 151 16 40 -78 74 -33 l 229 64 b 202 118 212 79 202 97 b 246 239 202 155 231 205 l 261 274 b 83 489 152 308 83 390 b 410 740 83 637 225 740 b 603 689 487 740 551 722 b 792 748 647 713 722 744 l 815 639 l 649 629 b 706 499 680 599 706 559 b 376 258 706 352 556 258 m 559 478 b 372 632 559 570 510 632 b 260 607 308 632 278 620 b 232 515 244 593 232 567 b 419 360 232 423 281 360 b 531 386 483 360 514 372 b 559 478 547 399 559 425 m 432 1079 b 540 981 494 1079 540 1042 b 433 884 540 920 494 884 b 315 1016 367 884 315 926 b 499 1256 315 1132 405 1211 l 549 1194 b 413 1078 490 1161 436 1128 b 432 1079 419 1078 426 1079 m 191 -103 b 397 -199 191 -172 275 -199 b 664 -90 545 -199 664 -159 b 549 -17 664 -50 623 -30 l 342 20 b 301 30 327 23 314 26 b 191 -103 247 -1 191 -43 "},"ġ":{"ha":861,"x_min":0,"x_max":0,"o":"m 345 259 l 327 205 b 360 153 317 167 333 158 l 626 106 b 807 -52 704 92 807 65 b 368 -301 807 -214 607 -301 b 40 -134 187 -301 40 -250 b 151 16 40 -78 74 -33 l 229 64 b 202 118 212 79 202 97 b 246 239 202 155 231 205 l 261 274 b 83 489 152 308 83 390 b 410 740 83 637 225 740 b 603 689 487 740 551 722 b 792 748 647 713 722 744 l 815 639 l 649 629 b 706 499 680 599 706 559 b 376 258 706 352 556 258 m 559 478 b 372 632 559 570 510 632 b 260 607 308 632 278 620 b 232 515 244 593 232 567 b 419 360 232 423 281 360 b 531 386 483 360 514 372 b 559 478 547 399 559 425 m 431 883 b 322 984 367 883 322 922 b 431 1083 322 1046 367 1083 b 539 984 495 1083 539 1046 b 431 883 539 922 495 883 m 191 -103 b 397 -199 191 -172 275 -199 b 664 -90 545 -199 664 -159 b 549 -17 664 -50 623 -30 l 342 20 b 301 30 327 23 314 26 b 191 -103 247 -1 191 -43 "},"h":{"ha":861,"x_min":0,"x_max":0,"o":"m 585 0 l 585 501 b 470 615 585 586 540 615 b 274 547 402 615 335 588 l 274 0 l 117 0 l 117 1063 l 274 1063 l 274 628 l 281 628 b 540 738 347 694 438 738 b 741 549 669 738 740 667 l 744 0 "},"ħ":{"ha":861,"x_min":0,"x_max":0,"o":"m 585 0 l 585 501 b 470 615 585 586 540 615 b 274 547 402 615 335 588 l 274 0 l 117 0 l 117 872 l 33 872 l 33 962 l 117 962 l 117 1063 l 274 1063 l 274 962 l 568 962 l 568 872 l 274 872 l 274 628 l 281 628 b 540 738 347 694 438 738 b 741 549 669 738 740 667 l 744 0 "},"ĥ":{"ha":861,"x_min":0,"x_max":0,"o":"m 585 0 l 585 501 b 470 615 585 586 540 615 b 274 547 402 615 335 588 l 274 0 l 117 0 l 117 1063 l 274 1063 l 274 628 l 281 628 b 540 738 347 694 438 738 b 741 549 669 738 740 667 l 744 0 m 110 1355 l 285 1355 l 456 1184 l 311 1184 l 197 1306 l 83 1184 l -60 1184 "},"i":{"ha":861,"x_min":0,"x_max":0,"o":"m 349 598 l 105 598 l 119 722 l 507 722 l 507 215 b 607 114 507 149 526 114 b 744 140 656 114 710 129 l 733 21 b 545 -16 685 1 621 -16 b 349 186 407 -16 349 40 m 403 883 b 295 984 340 883 295 922 b 403 1083 295 1046 340 1083 b 512 984 468 1083 512 1046 b 403 883 512 922 468 883 "},"ı":{"ha":861,"x_min":0,"x_max":0,"o":"m 349 598 l 105 598 l 119 722 l 507 722 l 507 215 b 607 114 507 149 526 114 b 744 140 656 114 710 129 l 733 21 b 545 -16 685 1 621 -16 b 349 186 407 -16 349 40 "},"í":{"ha":861,"x_min":0,"x_max":0,"o":"m 349 598 l 105 598 l 119 722 l 507 722 l 507 215 b 607 114 507 149 526 114 b 744 140 656 114 710 129 l 733 21 b 545 -16 685 1 621 -16 b 349 186 407 -16 349 40 m 469 885 l 644 1125 l 475 1125 l 335 885 "},"ĭ":{"ha":861,"x_min":0,"x_max":0,"o":"m 349 598 l 105 598 l 119 722 l 507 722 l 507 215 b 607 114 507 149 526 114 b 744 140 656 114 710 129 l 733 21 b 545 -16 685 1 621 -16 b 349 186 407 -16 349 40 m 286 1125 b 403 980 286 1033 319 980 b 522 1125 488 980 522 1033 l 622 1125 b 403 879 627 966 553 879 b 186 1125 254 879 180 966 l 286 1125 "},"î":{"ha":861,"x_min":0,"x_max":0,"o":"m 349 598 l 105 598 l 119 722 l 507 722 l 507 215 b 607 114 507 149 526 114 b 744 140 656 114 710 129 l 733 21 b 545 -16 685 1 621 -16 b 349 186 407 -16 349 40 m 320 1125 l 488 1125 l 662 885 l 524 885 l 403 1063 l 283 885 l 146 885 "},"ï":{"ha":861,"x_min":0,"x_max":0,"o":"m 349 598 l 105 598 l 119 722 l 507 722 l 507 215 b 607 114 507 149 526 114 b 744 140 656 114 710 129 l 733 21 b 545 -16 685 1 621 -16 b 349 186 407 -16 349 40 m 221 882 b 122 983 162 882 122 921 b 221 1081 122 1044 162 1081 b 319 983 279 1081 319 1044 b 221 882 319 921 279 882 m 587 882 b 488 983 528 882 488 921 b 587 1081 488 1044 528 1081 b 685 983 645 1081 685 1044 b 587 882 685 921 645 882 "},"ị":{"ha":861,"x_min":0,"x_max":0,"o":"m 349 598 l 105 598 l 119 722 l 507 722 l 507 215 b 607 114 507 149 526 114 b 744 140 656 114 710 129 l 733 21 b 545 -16 685 1 621 -16 b 349 186 407 -16 349 40 m 403 883 b 295 984 340 883 295 922 b 403 1083 295 1046 340 1083 b 512 984 468 1083 512 1046 b 403 883 512 922 468 883 m 431 -360 b 322 -260 367 -360 322 -322 b 431 -160 322 -198 367 -160 b 539 -260 495 -160 539 -198 b 431 -360 539 -322 495 -360 "},"ì":{"ha":861,"x_min":0,"x_max":0,"o":"m 349 598 l 105 598 l 119 722 l 507 722 l 507 215 b 607 114 507 149 526 114 b 744 140 656 114 710 129 l 733 21 b 545 -16 685 1 621 -16 b 349 186 407 -16 349 40 m 338 885 l 164 1125 l 332 1125 l 473 885 "},"ī":{"ha":861,"x_min":0,"x_max":0,"o":"m 349 598 l 105 598 l 119 722 l 507 722 l 507 215 b 607 114 507 149 526 114 b 744 140 656 114 710 129 l 733 21 b 545 -16 685 1 621 -16 b 349 186 407 -16 349 40 m 631 916 l 176 916 l 176 1018 l 631 1018 "},"į":{"ha":861,"x_min":0,"x_max":0,"o":"m 349 598 l 105 598 l 119 722 l 507 722 l 507 215 b 607 114 507 149 526 114 b 744 140 656 114 710 129 l 733 21 b 653 -4 710 12 683 3 b 560 -138 584 -61 560 -103 b 638 -192 560 -171 580 -192 l 658 -192 l 658 -292 l 601 -292 b 424 -171 459 -292 424 -232 b 510 -15 424 -116 451 -68 b 349 186 397 -5 349 53 m 403 883 b 295 984 340 883 295 922 b 403 1083 295 1046 340 1083 b 512 984 468 1083 512 1046 b 403 883 512 922 468 883 "},"ĳ":{"ha":861,"x_min":0,"x_max":0,"o":"m 239 883 b 131 984 175 883 131 922 b 239 1083 131 1046 175 1083 b 347 984 303 1083 347 1046 b 239 883 347 922 303 883 m 759 722 l 759 40 b 391 -309 759 -217 628 -309 b 257 -294 333 -309 293 -302 l 232 -154 b 416 -178 283 -169 344 -178 b 560 -142 478 -178 535 -162 b 599 -28 580 -126 599 -97 l 599 598 l 469 598 l 487 722 m 657 883 b 549 984 592 883 549 922 b 657 1083 549 1046 592 1083 b 765 984 721 1083 765 1046 b 657 883 765 922 721 883 m 189 598 l 59 598 l 73 722 l 346 722 l 343 188 b 406 119 343 136 361 119 b 486 135 435 119 462 127 l 477 12 b 351 -16 447 -3 402 -16 b 188 170 238 -16 188 35 "},"j":{"ha":861,"x_min":0,"x_max":0,"o":"m 635 722 l 635 40 b 242 -309 635 -217 505 -309 b 109 -294 184 -309 144 -302 l 84 -154 b 267 -178 135 -169 195 -178 b 436 -142 354 -178 410 -162 b 476 -28 456 -126 476 -97 l 476 598 l 113 598 l 131 722 m 533 883 b 424 984 469 883 424 922 b 533 1083 424 1046 469 1083 b 641 984 597 1083 641 1046 b 533 883 641 922 597 883 "},"ȷ":{"ha":861,"x_min":0,"x_max":0,"o":"m 635 722 l 635 40 b 242 -309 635 -217 505 -309 b 109 -294 184 -309 144 -302 l 84 -154 b 267 -178 135 -169 195 -178 b 436 -142 354 -178 410 -162 b 476 -28 456 -126 476 -97 l 476 598 l 113 598 l 131 722 "},"ĵ":{"ha":861,"x_min":0,"x_max":0,"o":"m 635 722 l 635 40 b 242 -309 635 -217 505 -309 b 109 -294 184 -309 144 -302 l 84 -154 b 267 -178 135 -169 195 -178 b 436 -142 354 -178 410 -162 b 476 -28 456 -126 476 -97 l 476 598 l 113 598 l 131 722 m 449 1125 l 617 1125 l 791 885 l 653 885 l 533 1063 l 412 885 l 275 885 "},"k":{"ha":861,"x_min":0,"x_max":0,"o":"m 274 1063 l 274 448 l 389 448 b 621 722 489 549 561 637 l 796 722 b 513 407 705 601 619 509 l 513 398 b 844 0 611 301 733 172 l 649 0 b 392 324 568 123 487 224 l 274 324 l 274 0 l 117 0 l 117 1063 "},"ķ":{"ha":861,"x_min":0,"x_max":0,"o":"m 274 1063 l 274 448 l 389 448 b 621 722 489 549 561 637 l 796 722 b 513 407 705 601 619 509 l 513 398 b 844 0 611 301 733 172 l 649 0 b 392 324 568 123 487 224 l 274 324 l 274 0 l 117 0 l 117 1063 m 429 -356 b 322 -258 367 -356 322 -319 b 428 -160 322 -197 368 -160 b 546 -292 494 -160 546 -202 b 363 -532 546 -408 456 -488 l 313 -471 b 448 -354 372 -438 425 -405 b 429 -356 442 -355 435 -356 "},"ĸ":{"ha":861,"x_min":0,"x_max":0,"o":"m 117 0 l 117 723 l 274 723 l 274 448 l 389 448 b 621 722 489 549 561 637 l 796 722 b 513 407 705 601 619 509 l 513 398 b 844 0 611 301 733 172 l 649 0 b 392 324 568 123 487 224 l 274 324 l 274 0 "},"l":{"ha":861,"x_min":0,"x_max":0,"o":"m 349 938 l 105 938 l 119 1063 l 507 1063 l 507 215 b 607 114 507 149 526 114 b 744 140 656 114 710 129 l 733 21 b 545 -16 685 1 621 -16 b 349 186 407 -16 349 40 "},"ĺ":{"ha":861,"x_min":0,"x_max":0,"o":"m 349 938 l 105 938 l 119 1063 l 507 1063 l 507 215 b 607 114 507 149 526 114 b 744 140 656 114 710 129 l 733 21 b 545 -16 685 1 621 -16 b 349 186 407 -16 349 40 m 497 1184 l 671 1354 l 502 1354 l 362 1184 "},"ľ":{"ha":861,"x_min":0,"x_max":0,"o":"m 349 938 l 105 938 l 119 1063 l 507 1063 l 507 215 b 607 114 507 149 526 114 b 744 140 656 114 710 129 l 733 21 b 545 -16 685 1 621 -16 b 349 186 407 -16 349 40 m 649 1155 l 785 1155 l 756 901 l 637 901 "},"ļ":{"ha":861,"x_min":0,"x_max":0,"o":"m 349 938 l 105 938 l 119 1063 l 507 1063 l 507 215 b 607 114 507 149 526 114 b 744 140 656 114 710 129 l 733 21 b 545 -16 685 1 621 -16 b 349 186 407 -16 349 40 m 531 -364 b 424 -266 469 -364 424 -326 b 531 -169 424 -205 470 -169 b 648 -301 596 -169 648 -210 b 465 -540 648 -417 558 -496 l 415 -478 b 550 -362 474 -446 527 -413 b 531 -364 544 -363 538 -364 "},"ŀ":{"ha":861,"x_min":0,"x_max":0,"o":"m 763 484 b 672 576 709 484 672 519 b 763 666 672 632 709 666 b 854 576 817 666 854 632 b 763 484 854 519 817 484 m 349 938 l 105 938 l 119 1063 l 507 1063 l 507 215 b 607 114 507 149 526 114 b 744 140 656 114 710 129 l 733 21 b 545 -16 685 1 621 -16 b 349 186 407 -16 349 40 "},"ł":{"ha":861,"x_min":0,"x_max":0,"o":"m 702 660 l 507 565 l 507 215 b 607 114 507 149 526 114 b 744 140 656 114 710 129 l 733 21 b 545 -16 685 1 621 -16 b 349 186 407 -16 349 40 l 349 488 l 159 396 l 159 533 l 349 625 l 349 938 l 105 938 l 119 1063 l 507 1063 l 507 702 l 702 797 "},"m":{"ha":861,"x_min":0,"x_max":0,"o":"m 361 0 l 361 547 b 312 608 361 595 338 608 b 231 571 281 608 255 592 l 231 0 l 94 0 l 94 722 l 223 722 l 223 628 l 231 628 b 388 738 260 688 312 738 b 496 628 453 738 489 704 l 502 628 b 656 738 531 688 581 738 b 765 601 728 738 765 696 l 767 0 l 630 0 l 630 547 b 580 608 630 595 607 608 b 497 570 549 608 522 592 l 499 0 "},"n":{"ha":861,"x_min":0,"x_max":0,"o":"m 585 0 l 585 501 b 470 615 585 586 540 615 b 274 547 402 615 335 588 l 274 0 l 117 0 l 117 722 l 266 722 l 266 628 l 274 628 b 540 738 339 694 438 738 b 741 549 669 738 740 667 l 744 0 "},"ń":{"ha":861,"x_min":0,"x_max":0,"o":"m 585 0 l 585 501 b 470 615 585 586 540 615 b 274 547 402 615 335 588 l 274 0 l 117 0 l 117 722 l 266 722 l 266 628 l 274 628 b 540 738 339 694 438 738 b 741 549 669 738 740 667 l 744 0 m 497 885 l 671 1125 l 502 1125 l 362 885 "},"ň":{"ha":861,"x_min":0,"x_max":0,"o":"m 585 0 l 585 501 b 470 615 585 586 540 615 b 274 547 402 615 335 588 l 274 0 l 117 0 l 117 722 l 266 722 l 266 628 l 274 628 b 540 738 339 694 438 738 b 741 549 669 738 740 667 l 744 0 m 347 885 l 515 885 l 689 1125 l 551 1125 l 431 947 l 310 1125 l 173 1125 "},"ņ":{"ha":861,"x_min":0,"x_max":0,"o":"m 585 0 l 585 501 b 470 615 585 586 540 615 b 274 547 402 615 335 588 l 274 0 l 117 0 l 117 722 l 266 722 l 266 628 l 274 628 b 540 738 339 694 438 738 b 741 549 669 738 740 667 l 744 0 m 429 -356 b 322 -258 367 -356 322 -319 b 428 -160 322 -197 368 -160 b 546 -292 494 -160 546 -202 b 363 -532 546 -408 456 -488 l 313 -471 b 448 -354 372 -438 425 -405 b 429 -356 442 -355 435 -356 "},"ɲ":{"ha":861,"x_min":0,"x_max":0,"o":"m 63 -269 b -31 -248 26 -269 -6 -258 l -51 -117 b 42 -141 -19 -132 11 -141 b 98 -124 56 -141 81 -140 b 117 0 117 -106 117 -76 l 117 722 l 266 722 l 266 628 l 274 628 b 540 738 339 694 438 738 b 741 549 669 738 740 667 l 744 0 l 585 0 l 585 501 b 470 615 585 586 540 615 b 274 547 402 615 335 588 l 274 -25 b 63 -269 274 -179 181 -269 "},"ñ":{"ha":861,"x_min":0,"x_max":0,"o":"m 585 0 l 585 501 b 470 615 585 586 540 615 b 274 547 402 615 335 588 l 274 0 l 117 0 l 117 722 l 266 722 l 266 628 l 274 628 b 540 738 339 694 438 738 b 741 549 669 738 740 667 l 744 0 m 306 1122 b 523 989 415 1122 453 989 b 599 1112 563 989 589 1035 l 703 1082 b 548 867 690 945 632 867 b 333 1000 440 867 401 1000 b 256 877 292 1000 267 953 l 152 907 b 306 1122 165 1044 223 1122 "},"ŋ":{"ha":861,"x_min":0,"x_max":0,"o":"m 531 -269 b 438 -248 494 -269 463 -258 l 417 -117 b 506 -141 449 -132 480 -141 b 565 -124 524 -141 549 -140 b 585 0 585 -106 585 -76 l 585 501 b 470 615 585 586 540 615 b 274 547 402 615 335 588 l 274 0 l 117 0 l 117 722 l 266 722 l 266 628 l 274 628 b 540 738 339 694 438 738 b 741 549 669 738 740 667 l 744 14 l 744 -25 b 531 -269 744 -179 650 -269 "},"o":{"ha":861,"x_min":0,"x_max":0,"o":"m 424 -17 b 77 359 223 -17 77 117 b 441 739 77 633 265 739 b 782 363 638 739 782 606 b 424 -17 782 90 601 -17 m 440 101 b 562 131 495 101 534 112 b 626 332 590 151 626 206 b 418 623 626 478 604 623 b 297 594 363 623 326 613 b 233 393 267 574 233 519 b 440 101 233 247 255 101 "},"ó":{"ha":861,"x_min":0,"x_max":0,"o":"m 424 -17 b 77 359 223 -17 77 117 b 441 739 77 633 265 739 b 782 363 638 739 782 606 b 424 -17 782 90 601 -17 m 440 101 b 562 131 495 101 534 112 b 626 332 590 151 626 206 b 418 623 626 478 604 623 b 297 594 363 623 326 613 b 233 393 267 574 233 519 b 440 101 233 247 255 101 m 497 885 l 671 1125 l 502 1125 l 362 885 "},"ŏ":{"ha":861,"x_min":0,"x_max":0,"o":"m 424 -17 b 77 359 223 -17 77 117 b 441 739 77 633 265 739 b 782 363 638 739 782 606 b 424 -17 782 90 601 -17 m 440 101 b 562 131 495 101 534 112 b 626 332 590 151 626 206 b 418 623 626 478 604 623 b 297 594 363 623 326 613 b 233 393 267 574 233 519 b 440 101 233 247 255 101 m 313 1125 b 431 980 313 1033 347 980 b 549 1125 515 980 549 1033 l 649 1125 b 431 879 654 966 581 879 b 213 1125 281 879 207 966 l 313 1125 "},"ô":{"ha":861,"x_min":0,"x_max":0,"o":"m 424 -17 b 77 359 223 -17 77 117 b 441 739 77 633 265 739 b 782 363 638 739 782 606 b 424 -17 782 90 601 -17 m 440 101 b 562 131 495 101 534 112 b 626 332 590 151 626 206 b 418 623 626 478 604 623 b 297 594 363 623 326 613 b 233 393 267 574 233 519 b 440 101 233 247 255 101 m 347 1125 l 515 1125 l 689 885 l 551 885 l 431 1063 l 310 885 l 173 885 "},"ö":{"ha":861,"x_min":0,"x_max":0,"o":"m 424 -17 b 77 359 223 -17 77 117 b 441 739 77 633 265 739 b 782 363 638 739 782 606 b 424 -17 782 90 601 -17 m 440 101 b 562 131 495 101 534 112 b 626 332 590 151 626 206 b 418 623 626 478 604 623 b 297 594 363 623 326 613 b 233 393 267 574 233 519 b 440 101 233 247 255 101 m 248 882 b 149 983 189 882 149 921 b 248 1081 149 1044 189 1081 b 347 983 306 1081 347 1044 b 248 882 347 921 306 882 m 614 882 b 515 983 555 882 515 921 b 614 1081 515 1044 555 1081 b 713 983 672 1081 713 1044 b 614 882 713 921 672 882 "},"ọ":{"ha":861,"x_min":0,"x_max":0,"o":"m 424 -17 b 77 359 223 -17 77 117 b 441 739 77 633 265 739 b 782 363 638 739 782 606 b 424 -17 782 90 601 -17 m 440 101 b 562 131 495 101 534 112 b 626 332 590 151 626 206 b 418 623 626 478 604 623 b 297 594 363 623 326 613 b 233 393 267 574 233 519 b 440 101 233 247 255 101 m 431 -360 b 322 -260 367 -360 322 -322 b 431 -160 322 -198 367 -160 b 539 -260 495 -160 539 -198 b 431 -360 539 -322 495 -360 "},"ò":{"ha":861,"x_min":0,"x_max":0,"o":"m 424 -17 b 77 359 223 -17 77 117 b 441 739 77 633 265 739 b 782 363 638 739 782 606 b 424 -17 782 90 601 -17 m 440 101 b 562 131 495 101 534 112 b 626 332 590 151 626 206 b 418 623 626 478 604 623 b 297 594 363 623 326 613 b 233 393 267 574 233 519 b 440 101 233 247 255 101 m 365 885 l 191 1125 l 359 1125 l 500 885 "},"ő":{"ha":861,"x_min":0,"x_max":0,"o":"m 424 -17 b 77 359 223 -17 77 117 b 441 739 77 633 265 739 b 782 363 638 739 782 606 b 424 -17 782 90 601 -17 m 440 101 b 562 131 495 101 534 112 b 626 332 590 151 626 206 b 418 623 626 478 604 623 b 297 594 363 623 326 613 b 233 393 267 574 233 519 b 440 101 233 247 255 101 m 333 1125 l 463 1125 l 345 885 l 238 885 m 605 1125 l 735 1125 l 617 885 l 510 885 "},"ō":{"ha":861,"x_min":0,"x_max":0,"o":"m 424 -17 b 77 359 223 -17 77 117 b 441 739 77 633 265 739 b 782 363 638 739 782 606 b 424 -17 782 90 601 -17 m 440 101 b 562 131 495 101 534 112 b 626 332 590 151 626 206 b 418 623 626 478 604 623 b 297 594 363 623 326 613 b 233 393 267 574 233 519 b 440 101 233 247 255 101 m 658 916 l 203 916 l 203 1018 l 658 1018 "},"ǫ":{"ha":861,"x_min":0,"x_max":0,"o":"m 440 101 b 562 131 495 101 534 112 b 626 332 590 151 626 206 b 418 623 626 478 604 623 b 297 594 363 623 326 613 b 233 393 267 574 233 519 b 440 101 233 247 255 101 m 550 0 b 451 -138 476 -59 451 -102 b 530 -192 451 -171 471 -192 l 550 -192 l 550 -292 l 493 -292 b 315 -171 350 -292 315 -232 b 399 -16 315 -117 342 -69 b 77 359 211 -6 77 127 b 441 739 77 633 265 739 b 782 363 638 739 782 606 b 545 1 782 153 675 42 l 550 0 "},"ø":{"ha":861,"x_min":0,"x_max":0,"o":"m 424 -17 b 283 9 373 -17 326 -8 l 176 -152 l 57 -73 l 166 90 b 77 359 110 154 77 244 b 441 739 77 633 265 739 b 578 714 491 739 537 731 l 685 875 l 804 796 l 695 632 b 782 363 750 569 782 478 b 424 -17 782 90 601 -17 m 440 101 b 562 131 495 101 534 112 b 626 332 590 151 626 206 b 598 519 626 399 621 467 l 336 123 b 440 101 363 109 397 101 m 233 393 b 263 203 233 324 238 256 l 526 600 b 418 623 498 615 463 623 b 297 594 363 623 326 613 b 233 393 267 574 233 519 "},"ǿ":{"ha":861,"x_min":0,"x_max":0,"o":"m 424 -17 b 283 9 373 -17 326 -8 l 176 -152 l 57 -73 l 166 90 b 77 359 110 154 77 244 b 441 739 77 633 265 739 b 578 714 491 739 537 731 l 685 875 l 804 796 l 695 632 b 782 363 750 569 782 478 b 424 -17 782 90 601 -17 m 440 101 b 562 131 495 101 534 112 b 626 332 590 151 626 206 b 598 519 626 399 621 467 l 336 123 b 440 101 363 109 397 101 m 497 885 l 671 1125 l 502 1125 l 362 885 m 233 393 b 263 203 233 324 238 256 l 526 600 b 418 623 498 615 463 623 b 297 594 363 623 326 613 b 233 393 267 574 233 519 "},"õ":{"ha":861,"x_min":0,"x_max":0,"o":"m 424 -17 b 77 359 223 -17 77 117 b 441 739 77 633 265 739 b 782 363 638 739 782 606 b 424 -17 782 90 601 -17 m 440 101 b 562 131 495 101 534 112 b 626 332 590 151 626 206 b 418 623 626 478 604 623 b 297 594 363 623 326 613 b 233 393 267 574 233 519 b 440 101 233 247 255 101 m 306 1122 b 523 989 415 1122 453 989 b 599 1112 563 989 589 1035 l 703 1082 b 548 867 690 945 632 867 b 333 1000 440 867 401 1000 b 256 877 292 1000 267 953 l 152 907 b 306 1122 165 1044 223 1122 "},"œ":{"ha":861,"x_min":0,"x_max":0,"o":"m 620 -17 b 428 106 533 -17 467 25 b 256 -17 389 18 326 -17 b 40 359 115 -17 40 96 b 265 739 40 640 147 739 b 433 607 338 739 397 698 b 623 739 474 701 550 739 b 818 442 759 739 818 623 l 818 351 l 501 351 b 653 110 507 216 548 110 b 792 145 696 110 742 125 l 788 27 b 620 -17 743 5 683 -17 m 266 101 b 328 126 291 101 313 109 b 362 331 344 145 361 204 b 263 622 363 475 348 622 b 203 598 241 622 219 616 b 169 394 187 578 170 521 b 266 101 168 248 182 101 m 702 441 l 703 465 b 603 626 703 568 665 626 b 542 601 583 626 558 620 b 502 441 524 581 507 533 "},"p":{"ha":861,"x_min":0,"x_max":0,"o":"m 792 397 b 401 -16 792 122 618 -16 b 259 4 351 -16 304 -9 l 259 -278 l 101 -278 l 101 723 l 249 723 l 249 644 l 267 644 b 506 738 328 698 403 738 b 792 397 690 738 792 608 m 259 139 b 428 101 313 113 369 101 b 549 135 476 101 513 110 b 627 359 587 160 627 212 b 437 617 627 490 593 617 b 259 572 379 617 319 599 l 259 139 "},"þ":{"ha":861,"x_min":0,"x_max":0,"o":"m 274 652 b 503 738 333 702 407 738 b 790 397 688 738 790 608 b 399 -16 790 122 616 -16 b 274 -1 356 -16 314 -11 l 274 -264 l 120 -264 l 120 1063 l 274 1063 m 274 131 b 426 101 324 111 374 101 b 547 135 474 101 510 110 b 624 359 584 160 624 212 b 435 617 624 490 591 617 b 274 579 383 617 328 602 l 274 131 "},"q":{"ha":861,"x_min":0,"x_max":0,"o":"m 69 326 b 460 739 69 601 243 739 b 676 690 538 739 610 722 l 717 722 l 760 722 l 760 -278 l 603 -278 l 603 79 l 594 79 b 356 -15 534 25 458 -15 b 69 326 171 -15 69 115 m 235 364 b 424 106 235 233 268 106 b 603 151 482 106 543 124 l 603 584 b 433 622 548 609 492 622 b 312 588 385 622 349 613 b 235 364 275 563 235 511 "},"r":{"ha":861,"x_min":0,"x_max":0,"o":"m 420 562 l 431 562 b 728 738 485 670 602 738 b 787 732 749 738 767 737 l 793 588 b 433 495 651 591 547 558 l 433 125 l 681 125 l 664 0 l 101 0 l 83 125 l 276 125 l 276 598 l 80 598 l 97 722 l 420 722 "},"ŕ":{"ha":861,"x_min":0,"x_max":0,"o":"m 420 562 l 431 562 b 728 738 485 670 602 738 b 787 732 749 738 767 737 l 793 588 b 433 495 651 591 547 558 l 433 125 l 681 125 l 664 0 l 101 0 l 83 125 l 276 125 l 276 598 l 80 598 l 97 722 l 420 722 m 497 885 l 671 1125 l 502 1125 l 362 885 "},"ř":{"ha":861,"x_min":0,"x_max":0,"o":"m 420 562 l 431 562 b 728 738 485 670 602 738 b 787 732 749 738 767 737 l 793 588 b 433 495 651 591 547 558 l 433 125 l 681 125 l 664 0 l 101 0 l 83 125 l 276 125 l 276 598 l 80 598 l 97 722 l 420 722 m 347 885 l 515 885 l 689 1125 l 551 1125 l 431 947 l 310 1125 l 173 1125 "},"ŗ":{"ha":861,"x_min":0,"x_max":0,"o":"m 420 562 l 431 562 b 728 738 485 670 602 738 b 787 732 749 738 767 737 l 793 588 b 433 495 651 591 547 558 l 433 125 l 681 125 l 664 0 l 101 0 l 83 125 l 276 125 l 276 598 l 80 598 l 97 722 l 420 722 m 392 -356 b 285 -258 330 -356 285 -319 b 391 -160 285 -197 331 -160 b 508 -292 456 -160 508 -202 b 326 -532 508 -408 419 -488 l 276 -471 b 410 -354 334 -438 388 -405 b 392 -356 404 -355 398 -356 "},"s":{"ha":861,"x_min":0,"x_max":0,"o":"m 510 739 b 714 713 588 739 653 729 l 719 579 b 433 613 617 599 528 613 b 287 583 359 613 313 602 b 263 539 270 572 263 557 b 483 429 263 489 331 465 b 747 225 635 393 747 358 b 369 -15 747 83 617 -15 b 127 17 271 -15 190 1 l 115 164 b 456 108 222 134 348 108 b 583 135 516 108 557 117 b 607 186 598 146 607 163 b 349 315 607 260 510 273 b 126 508 212 349 126 399 b 510 739 126 667 306 739 "},"ś":{"ha":861,"x_min":0,"x_max":0,"o":"m 510 739 b 714 713 588 739 653 729 l 719 579 b 433 613 617 599 528 613 b 287 583 359 613 313 602 b 263 539 270 572 263 557 b 483 429 263 489 331 465 b 747 225 635 393 747 358 b 369 -15 747 83 617 -15 b 127 17 271 -15 190 1 l 115 164 b 456 108 222 134 348 108 b 583 135 516 108 557 117 b 607 186 598 146 607 163 b 349 315 607 260 510 273 b 126 508 212 349 126 399 b 510 739 126 667 306 739 m 497 885 l 671 1125 l 502 1125 l 362 885 "},"š":{"ha":861,"x_min":0,"x_max":0,"o":"m 510 739 b 714 713 588 739 653 729 l 719 579 b 433 613 617 599 528 613 b 287 583 359 613 313 602 b 263 539 270 572 263 557 b 483 429 263 489 331 465 b 747 225 635 393 747 358 b 369 -15 747 83 617 -15 b 127 17 271 -15 190 1 l 115 164 b 456 108 222 134 348 108 b 583 135 516 108 557 117 b 607 186 598 146 607 163 b 349 315 607 260 510 273 b 126 508 212 349 126 399 b 510 739 126 667 306 739 m 347 885 l 515 885 l 689 1125 l 551 1125 l 431 947 l 310 1125 l 173 1125 "},"ş":{"ha":861,"x_min":0,"x_max":0,"o":"m 510 739 b 714 713 588 739 653 729 l 719 579 b 433 613 617 599 528 613 b 287 583 359 613 313 602 b 263 539 270 572 263 557 b 483 429 263 489 331 465 b 747 225 635 393 747 358 b 477 -8 747 106 655 17 l 478 -117 b 600 -269 557 -135 600 -178 b 392 -417 600 -361 556 -417 l 338 -417 l 338 -328 l 375 -328 b 483 -260 456 -328 483 -303 b 383 -182 483 -208 443 -188 l 383 -15 l 369 -15 b 127 17 271 -15 190 1 l 115 164 b 456 108 222 134 348 108 b 583 135 516 108 557 117 b 607 186 598 146 607 163 b 349 315 607 260 510 273 b 126 508 212 349 126 399 b 510 739 126 667 306 739 "},"ŝ":{"ha":861,"x_min":0,"x_max":0,"o":"m 510 739 b 714 713 588 739 653 729 l 719 579 b 433 613 617 599 528 613 b 287 583 359 613 313 602 b 263 539 270 572 263 557 b 483 429 263 489 331 465 b 747 225 635 393 747 358 b 369 -15 747 83 617 -15 b 127 17 271 -15 190 1 l 115 164 b 456 108 222 134 348 108 b 583 135 516 108 557 117 b 607 186 598 146 607 163 b 349 315 607 260 510 273 b 126 508 212 349 126 399 b 510 739 126 667 306 739 m 347 1125 l 515 1125 l 689 885 l 551 885 l 431 1063 l 310 885 l 173 885 "},"ș":{"ha":861,"x_min":0,"x_max":0,"o":"m 510 739 b 714 713 588 739 653 729 l 719 579 b 433 613 617 599 528 613 b 287 583 359 613 313 602 b 263 539 270 572 263 557 b 483 429 263 489 331 465 b 747 225 635 393 747 358 b 369 -15 747 83 617 -15 b 127 17 271 -15 190 1 l 115 164 b 456 108 222 134 348 108 b 583 135 516 108 557 117 b 607 186 598 146 607 163 b 349 315 607 260 510 273 b 126 508 212 349 126 399 b 510 739 126 667 306 739 m 429 -356 b 322 -258 367 -356 322 -319 b 428 -160 322 -197 368 -160 b 546 -292 494 -160 546 -202 b 363 -532 546 -408 456 -488 l 313 -471 b 448 -354 372 -438 425 -405 b 429 -356 442 -355 435 -356 "},"ß":{"ha":861,"x_min":0,"x_max":0,"o":"m 447 957 b 319 915 388 957 342 940 b 270 620 295 890 270 826 l 270 0 l 117 0 l 117 548 b 467 1079 117 918 232 1079 b 745 845 613 1079 745 1003 b 528 573 745 694 626 602 l 528 567 b 800 298 671 542 800 483 b 440 0 800 106 656 0 l 392 0 l 392 118 l 456 118 b 649 295 581 118 649 196 b 392 511 649 443 494 494 l 392 581 b 590 822 512 617 590 713 b 447 957 590 916 535 957 "},"t":{"ha":861,"x_min":0,"x_max":0,"o":"m 70 671 l 369 894 l 420 894 l 420 722 l 753 722 l 728 601 l 423 601 l 423 215 b 559 114 423 149 450 114 b 744 140 624 114 697 129 l 731 21 b 507 -16 674 1 600 -16 b 266 186 339 -16 266 40 l 266 601 l 70 601 "},"ŧ":{"ha":861,"x_min":0,"x_max":0,"o":"m 70 515 l 266 515 l 266 664 l 70 664 l 70 717 l 369 940 l 420 940 l 420 768 l 753 768 l 728 664 l 423 664 l 423 515 l 753 515 l 728 411 l 423 411 l 423 215 b 559 114 423 149 450 114 b 744 140 624 114 697 129 l 731 21 b 507 -16 674 1 600 -16 b 266 186 339 -16 266 40 l 266 411 l 70 411 "},"ť":{"ha":861,"x_min":0,"x_max":0,"o":"m 649 1106 l 785 1106 l 756 852 l 637 852 m 70 671 l 369 894 l 420 894 l 420 722 l 753 722 l 728 601 l 423 601 l 423 215 b 559 114 423 149 450 114 b 744 140 624 114 697 129 l 731 21 b 507 -16 674 1 600 -16 b 266 186 339 -16 266 40 l 266 601 l 70 601 "},"ţ":{"ha":861,"x_min":0,"x_max":0,"o":"m 70 671 l 369 894 l 420 894 l 420 722 l 753 722 l 728 601 l 423 601 l 423 215 b 559 114 423 149 450 114 b 744 140 624 114 697 129 l 731 21 b 544 -15 681 4 620 -11 l 546 -117 b 667 -269 624 -135 667 -178 b 460 -417 667 -361 623 -417 l 405 -417 l 405 -328 l 442 -328 b 549 -260 522 -328 549 -303 b 450 -182 549 -208 510 -188 l 450 -13 b 266 186 322 -1 266 58 l 266 601 l 70 601 "},"ț":{"ha":861,"x_min":0,"x_max":0,"o":"m 497 -356 b 389 -258 434 -356 389 -319 b 496 -160 389 -197 435 -160 b 613 -292 561 -160 613 -202 b 430 -532 613 -408 524 -488 l 380 -471 b 515 -354 438 -438 492 -405 b 497 -356 509 -355 503 -356 m 70 671 l 369 894 l 420 894 l 420 722 l 753 722 l 728 601 l 423 601 l 423 215 b 559 114 423 149 450 114 b 744 140 624 114 697 129 l 731 21 b 507 -16 674 1 600 -16 b 266 186 339 -16 266 40 l 266 601 l 70 601 "},"u":{"ha":861,"x_min":0,"x_max":0,"o":"m 276 722 l 276 221 b 391 108 276 136 322 108 b 587 175 460 108 526 135 l 587 722 l 744 722 l 744 0 l 595 0 l 595 95 l 588 95 b 322 -16 522 28 424 -16 b 120 174 192 -16 121 56 l 117 722 "},"ú":{"ha":861,"x_min":0,"x_max":0,"o":"m 276 722 l 276 221 b 391 108 276 136 322 108 b 587 175 460 108 526 135 l 587 722 l 744 722 l 744 0 l 595 0 l 595 95 l 588 95 b 322 -16 522 28 424 -16 b 120 174 192 -16 121 56 l 117 722 m 497 885 l 671 1125 l 502 1125 l 362 885 "},"ŭ":{"ha":861,"x_min":0,"x_max":0,"o":"m 276 722 l 276 221 b 391 108 276 136 322 108 b 587 175 460 108 526 135 l 587 722 l 744 722 l 744 0 l 595 0 l 595 95 l 588 95 b 322 -16 522 28 424 -16 b 120 174 192 -16 121 56 l 117 722 m 313 1125 b 431 980 313 1033 347 980 b 549 1125 515 980 549 1033 l 649 1125 b 431 879 654 966 581 879 b 213 1125 281 879 207 966 l 313 1125 "},"û":{"ha":861,"x_min":0,"x_max":0,"o":"m 276 722 l 276 221 b 391 108 276 136 322 108 b 587 175 460 108 526 135 l 587 722 l 744 722 l 744 0 l 595 0 l 595 95 l 588 95 b 322 -16 522 28 424 -16 b 120 174 192 -16 121 56 l 117 722 m 347 1125 l 515 1125 l 689 885 l 551 885 l 431 1063 l 310 885 l 173 885 "},"ü":{"ha":861,"x_min":0,"x_max":0,"o":"m 276 722 l 276 221 b 391 108 276 136 322 108 b 587 175 460 108 526 135 l 587 722 l 744 722 l 744 0 l 595 0 l 595 95 l 588 95 b 322 -16 522 28 424 -16 b 120 174 192 -16 121 56 l 117 722 m 248 882 b 149 983 189 882 149 921 b 248 1081 149 1044 189 1081 b 347 983 306 1081 347 1044 b 248 882 347 921 306 882 m 614 882 b 515 983 555 882 515 921 b 614 1081 515 1044 555 1081 b 713 983 672 1081 713 1044 b 614 882 713 921 672 882 "},"ụ":{"ha":861,"x_min":0,"x_max":0,"o":"m 276 722 l 276 221 b 391 108 276 136 322 108 b 587 175 460 108 526 135 l 587 722 l 744 722 l 744 0 l 595 0 l 595 95 l 588 95 b 322 -16 522 28 424 -16 b 120 174 192 -16 121 56 l 117 722 m 431 -360 b 322 -260 367 -360 322 -322 b 431 -160 322 -198 367 -160 b 539 -260 495 -160 539 -198 b 431 -360 539 -322 495 -360 "},"ù":{"ha":861,"x_min":0,"x_max":0,"o":"m 276 722 l 276 221 b 391 108 276 136 322 108 b 587 175 460 108 526 135 l 587 722 l 744 722 l 744 0 l 595 0 l 595 95 l 588 95 b 322 -16 522 28 424 -16 b 120 174 192 -16 121 56 l 117 722 m 365 885 l 191 1125 l 359 1125 l 500 885 "},"ű":{"ha":861,"x_min":0,"x_max":0,"o":"m 276 722 l 276 221 b 391 108 276 136 322 108 b 587 175 460 108 526 135 l 587 722 l 744 722 l 744 0 l 595 0 l 595 95 l 588 95 b 322 -16 522 28 424 -16 b 120 174 192 -16 121 56 l 117 722 m 333 1125 l 463 1125 l 345 885 l 238 885 m 605 1125 l 735 1125 l 617 885 l 510 885 "},"ū":{"ha":861,"x_min":0,"x_max":0,"o":"m 276 722 l 276 221 b 391 108 276 136 322 108 b 587 175 460 108 526 135 l 587 722 l 744 722 l 744 0 l 595 0 l 595 95 l 588 95 b 322 -16 522 28 424 -16 b 120 174 192 -16 121 56 l 117 722 m 658 916 l 203 916 l 203 1018 l 658 1018 "},"ų":{"ha":861,"x_min":0,"x_max":0,"o":"m 276 722 l 276 221 b 391 108 276 136 322 108 b 587 175 460 108 526 135 l 587 722 l 744 722 l 744 0 b 646 -139 671 -59 646 -102 b 724 -192 646 -171 665 -192 l 744 -192 l 744 -293 l 687 -293 b 510 -172 544 -293 510 -233 b 611 0 510 -112 542 -60 l 595 0 l 595 95 l 588 95 b 322 -16 522 28 424 -16 b 120 174 192 -16 121 56 l 117 722 "},"ů":{"ha":861,"x_min":0,"x_max":0,"o":"m 276 722 l 276 221 b 391 108 276 136 322 108 b 587 175 460 108 526 135 l 587 722 l 744 722 l 744 0 l 595 0 l 595 95 l 588 95 b 322 -16 522 28 424 -16 b 120 174 192 -16 121 56 l 117 722 m 431 842 b 270 1008 336 842 270 913 b 431 1172 270 1103 336 1172 b 592 1008 525 1172 592 1103 b 431 842 592 913 525 842 m 431 915 b 521 1008 486 915 521 954 b 431 1100 521 1060 486 1100 b 340 1008 376 1100 340 1060 b 431 915 340 954 376 915 "},"ũ":{"ha":861,"x_min":0,"x_max":0,"o":"m 276 722 l 276 221 b 391 108 276 136 322 108 b 587 175 460 108 526 135 l 587 722 l 744 722 l 744 0 l 595 0 l 595 95 l 588 95 b 322 -16 522 28 424 -16 b 120 174 192 -16 121 56 l 117 722 m 306 1122 b 523 989 415 1122 453 989 b 599 1112 563 989 589 1035 l 703 1082 b 548 867 690 945 632 867 b 333 1000 440 867 401 1000 b 256 877 292 1000 267 953 l 152 907 b 306 1122 165 1044 223 1122 "},"v":{"ha":861,"x_min":0,"x_max":0,"o":"m 233 722 b 431 161 269 517 340 328 l 444 161 b 642 722 535 328 606 517 l 794 722 b 502 0 745 484 651 238 l 363 0 b 67 722 211 241 119 482 l 233 722 "},"w":{"ha":861,"x_min":0,"x_max":0,"o":"m 563 0 b 435 426 506 151 464 299 l 424 426 b 290 0 394 299 351 151 l 195 0 b 17 722 98 235 38 467 l 167 722 b 265 228 182 544 217 379 l 277 228 b 388 602 325 353 363 497 l 486 602 b 588 228 510 497 544 353 l 600 228 b 703 722 647 377 687 544 l 844 722 b 664 0 824 467 763 235 l 563 0 "},"ẃ":{"ha":861,"x_min":0,"x_max":0,"o":"m 563 0 b 435 426 506 151 464 299 l 424 426 b 290 0 394 299 351 151 l 195 0 b 17 722 98 235 38 467 l 167 722 b 265 228 182 544 217 379 l 277 228 b 388 602 325 353 363 497 l 486 602 b 588 228 510 497 544 353 l 600 228 b 703 722 647 377 687 544 l 844 722 b 664 0 824 467 763 235 l 563 0 m 497 885 l 671 1125 l 502 1125 l 362 885 "},"ŵ":{"ha":861,"x_min":0,"x_max":0,"o":"m 563 0 b 435 426 506 151 464 299 l 424 426 b 290 0 394 299 351 151 l 195 0 b 17 722 98 235 38 467 l 167 722 b 265 228 182 544 217 379 l 277 228 b 388 602 325 353 363 497 l 486 602 b 588 228 510 497 544 353 l 600 228 b 703 722 647 377 687 544 l 844 722 b 664 0 824 467 763 235 l 563 0 m 347 1125 l 515 1125 l 689 885 l 551 885 l 431 1063 l 310 885 l 173 885 "},"ẅ":{"ha":861,"x_min":0,"x_max":0,"o":"m 563 0 b 435 426 506 151 464 299 l 424 426 b 290 0 394 299 351 151 l 195 0 b 17 722 98 235 38 467 l 167 722 b 265 228 182 544 217 379 l 277 228 b 388 602 325 353 363 497 l 486 602 b 588 228 510 497 544 353 l 600 228 b 703 722 647 377 687 544 l 844 722 b 664 0 824 467 763 235 l 563 0 m 248 882 b 149 983 189 882 149 921 b 248 1081 149 1044 189 1081 b 347 983 306 1081 347 1044 b 248 882 347 921 306 882 m 614 882 b 515 983 555 882 515 921 b 614 1081 515 1044 555 1081 b 713 983 672 1081 713 1044 b 614 882 713 921 672 882 "},"ẁ":{"ha":861,"x_min":0,"x_max":0,"o":"m 563 0 b 435 426 506 151 464 299 l 424 426 b 290 0 394 299 351 151 l 195 0 b 17 722 98 235 38 467 l 167 722 b 265 228 182 544 217 379 l 277 228 b 388 602 325 353 363 497 l 486 602 b 588 228 510 497 544 353 l 600 228 b 703 722 647 377 687 544 l 844 722 b 664 0 824 467 763 235 l 563 0 m 365 885 l 191 1125 l 359 1125 l 500 885 "},"x":{"ha":861,"x_min":0,"x_max":0,"o":"m 240 722 l 445 463 l 638 722 l 805 722 l 519 369 l 813 0 l 629 0 l 419 267 l 224 0 l 48 0 l 338 369 l 58 722 "},"y":{"ha":861,"x_min":0,"x_max":0,"o":"m 222 722 b 439 167 273 517 352 328 l 449 167 b 644 722 534 334 597 505 l 801 722 b 565 95 749 502 648 267 l 535 37 b 146 -294 460 -119 320 -294 b 65 -284 115 -294 86 -289 l 32 -147 b 135 -159 63 -153 100 -159 b 350 -29 253 -159 315 -97 l 364 -3 b 60 722 232 228 135 447 l 222 722 "},"ý":{"ha":861,"x_min":0,"x_max":0,"o":"m 222 722 b 439 167 273 517 352 328 l 449 167 b 644 722 534 334 597 505 l 801 722 b 565 95 749 502 648 267 l 535 37 b 146 -294 460 -119 320 -294 b 65 -284 115 -294 86 -289 l 32 -147 b 135 -159 63 -153 100 -159 b 350 -29 253 -159 315 -97 l 364 -3 b 60 722 232 228 135 447 l 222 722 m 497 885 l 671 1125 l 502 1125 l 362 885 "},"ŷ":{"ha":861,"x_min":0,"x_max":0,"o":"m 222 722 b 439 167 273 517 352 328 l 449 167 b 644 722 534 334 597 505 l 801 722 b 565 95 749 502 648 267 l 535 37 b 146 -294 460 -119 320 -294 b 65 -284 115 -294 86 -289 l 32 -147 b 135 -159 63 -153 100 -159 b 350 -29 253 -159 315 -97 l 364 -3 b 60 722 232 228 135 447 l 222 722 m 347 1125 l 515 1125 l 689 885 l 551 885 l 431 1063 l 310 885 l 173 885 "},"ÿ":{"ha":861,"x_min":0,"x_max":0,"o":"m 222 722 b 439 167 273 517 352 328 l 449 167 b 644 722 534 334 597 505 l 801 722 b 565 95 749 502 648 267 l 535 37 b 146 -294 460 -119 320 -294 b 65 -284 115 -294 86 -289 l 32 -147 b 135 -159 63 -153 100 -159 b 350 -29 253 -159 315 -97 l 364 -3 b 60 722 232 228 135 447 l 222 722 m 248 882 b 149 983 189 882 149 921 b 248 1081 149 1044 189 1081 b 347 983 306 1081 347 1044 b 248 882 347 921 306 882 m 614 882 b 515 983 555 882 515 921 b 614 1081 515 1044 555 1081 b 713 983 672 1081 713 1044 b 614 882 713 921 672 882 "},"ỳ":{"ha":861,"x_min":0,"x_max":0,"o":"m 222 722 b 439 167 273 517 352 328 l 449 167 b 644 722 534 334 597 505 l 801 722 b 565 95 749 502 648 267 l 535 37 b 146 -294 460 -119 320 -294 b 65 -284 115 -294 86 -289 l 32 -147 b 135 -159 63 -153 100 -159 b 350 -29 253 -159 315 -97 l 364 -3 b 60 722 232 228 135 447 l 222 722 m 365 885 l 191 1125 l 359 1125 l 500 885 "},"ȳ":{"ha":861,"x_min":0,"x_max":0,"o":"m 222 722 b 439 167 273 517 352 328 l 449 167 b 644 722 534 334 597 505 l 801 722 b 565 95 749 502 648 267 l 535 37 b 146 -294 460 -119 320 -294 b 65 -284 115 -294 86 -289 l 32 -147 b 135 -159 63 -153 100 -159 b 350 -29 253 -159 315 -97 l 364 -3 b 60 722 232 228 135 447 l 222 722 m 658 916 l 203 916 l 203 1018 l 658 1018 "},"ỹ":{"ha":861,"x_min":0,"x_max":0,"o":"m 222 722 b 439 167 273 517 352 328 l 449 167 b 644 722 534 334 597 505 l 801 722 b 565 95 749 502 648 267 l 535 37 b 146 -294 460 -119 320 -294 b 65 -284 115 -294 86 -289 l 32 -147 b 135 -159 63 -153 100 -159 b 350 -29 253 -159 315 -97 l 364 -3 b 60 722 232 228 135 447 l 222 722 m 306 1122 b 523 989 415 1122 453 989 b 599 1112 563 989 589 1035 l 703 1082 b 548 867 690 945 632 867 b 333 1000 440 867 401 1000 b 256 877 292 1000 267 953 l 152 907 b 306 1122 165 1044 223 1122 "},"z":{"ha":861,"x_min":0,"x_max":0,"o":"m 708 723 l 719 642 l 315 133 l 774 133 l 720 0 l 110 0 l 102 88 l 510 599 l 92 599 l 141 723 "},"ź":{"ha":861,"x_min":0,"x_max":0,"o":"m 708 723 l 719 642 l 315 133 l 774 133 l 720 0 l 110 0 l 102 88 l 510 599 l 92 599 l 141 723 m 497 885 l 671 1125 l 502 1125 l 362 885 "},"ž":{"ha":861,"x_min":0,"x_max":0,"o":"m 708 723 l 719 642 l 315 133 l 774 133 l 720 0 l 110 0 l 102 88 l 510 599 l 92 599 l 141 723 m 347 885 l 515 885 l 689 1125 l 551 1125 l 431 947 l 310 1125 l 173 1125 "},"ż":{"ha":861,"x_min":0,"x_max":0,"o":"m 708 723 l 719 642 l 315 133 l 774 133 l 720 0 l 110 0 l 102 88 l 510 599 l 92 599 l 141 723 m 431 883 b 322 984 367 883 322 922 b 431 1083 322 1046 367 1083 b 539 984 495 1083 539 1046 b 431 883 539 922 495 883 "},"":{"ha":861,"x_min":0,"x_max":0,"o":"m 634 -1 b 473 -203 634 -121 578 -203 b 349 -146 413 -203 372 -178 l 337 -146 l 331 -194 l 252 -194 l 252 367 l 343 367 l 343 142 l 348 142 b 476 200 376 174 417 200 b 634 -1 581 200 634 117 m 343 -99 b 435 -128 373 -120 404 -128 b 541 -1 503 -128 541 -88 b 435 125 541 85 506 125 b 343 96 403 125 373 117 l 343 -99 "},"":{"ha":861,"x_min":0,"x_max":0,"o":"m 628 -74 b 433 -203 604 -167 523 -203 b 227 -1 310 -203 227 -133 b 438 200 227 137 316 200 b 628 60 544 200 619 153 l 540 53 b 435 129 531 103 492 129 b 320 -1 360 129 320 83 b 435 -132 320 -90 364 -132 b 541 -62 491 -132 526 -105 l 628 -74 "},"":{"ha":861,"x_min":0,"x_max":0,"o":"m 227 -3 b 389 200 227 117 283 200 b 513 142 449 200 488 174 l 518 142 l 518 367 l 609 367 l 609 -194 l 531 -194 l 525 -146 l 513 -146 b 385 -203 485 -178 444 -203 b 227 -3 280 -203 227 -120 m 320 -3 b 426 -128 320 -88 356 -128 b 518 -99 458 -128 488 -120 l 518 97 b 426 125 489 117 458 125 b 320 -3 358 125 320 84 "},"":{"ha":861,"x_min":0,"x_max":0,"o":"m 632 310 b 542 320 601 316 574 320 b 441 226 474 320 441 301 l 441 191 l 618 191 l 618 118 l 441 118 l 441 -121 l 577 -121 l 577 -194 l 248 -194 l 248 -121 l 350 -121 l 350 118 l 224 118 l 224 191 l 350 191 l 350 208 b 538 398 350 346 416 398 b 632 387 572 398 603 394 l 632 310 "},"":{"ha":861,"x_min":0,"x_max":0,"o":"m 227 19 b 388 200 227 126 288 200 b 513 142 448 200 489 174 l 525 142 l 531 191 l 609 191 l 609 -172 b 419 -341 609 -292 544 -341 b 239 -237 301 -341 254 -297 l 322 -220 b 419 -278 338 -260 370 -278 b 518 -182 477 -278 518 -255 l 518 -103 l 513 -103 b 385 -160 485 -135 444 -160 b 227 19 285 -160 227 -87 m 320 19 b 426 -85 320 -48 358 -85 b 518 -56 458 -85 489 -77 l 518 97 b 426 125 489 117 458 125 b 320 19 360 125 320 87 "},"":{"ha":861,"x_min":0,"x_max":0,"o":"m 227 -3 b 389 200 227 117 283 200 b 513 142 449 200 489 174 l 525 142 l 531 191 l 609 191 l 609 -332 l 518 -332 l 518 -146 l 513 -146 b 385 -203 485 -178 444 -203 b 227 -3 281 -203 227 -121 m 320 -3 b 426 -128 320 -88 356 -128 b 518 -99 458 -128 488 -119 l 518 96 b 426 125 488 117 457 125 b 320 -3 358 125 320 84 "},"ₐ":{"ha":861,"x_min":0,"x_max":0,"o":"m 419 200 b 585 78 521 200 585 168 l 585 -101 b 629 -129 585 -126 594 -133 l 629 -194 b 572 -202 608 -200 590 -202 b 499 -147 520 -202 503 -178 l 490 -147 b 356 -203 459 -177 417 -203 b 233 -99 281 -203 233 -164 b 493 22 233 8 366 24 l 493 74 b 412 138 493 124 460 138 b 330 83 365 138 330 124 l 330 68 l 247 68 l 247 88 b 419 200 247 153 295 200 m 328 -87 b 399 -137 328 -119 355 -137 b 493 -108 435 -137 465 -126 l 493 -27 b 461 -25 481 -26 470 -25 b 328 -87 378 -25 328 -44 "},"ₑ":{"ha":861,"x_min":0,"x_max":0,"o":"m 227 -1 b 439 200 227 133 313 200 b 626 25 557 200 626 142 l 626 -11 l 320 -11 b 435 -132 324 -90 364 -132 b 535 -78 479 -132 517 -117 l 624 -91 b 435 -203 596 -169 524 -203 b 227 -1 313 -203 227 -134 m 537 44 b 436 129 537 103 494 129 b 324 44 378 129 338 103 "},"ᵢ":{"ha":861,"x_min":0,"x_max":0,"o":"m 245 -121 l 385 -121 l 385 119 l 245 119 l 245 191 l 465 200 l 476 190 l 476 -121 l 616 -121 l 616 -194 l 245 -194 m 415 269 b 351 326 377 269 351 291 b 415 383 351 361 377 383 b 478 326 452 383 478 361 b 415 269 478 291 452 269 "},"ⱼ":{"ha":861,"x_min":0,"x_max":0,"o":"m 544 -161 b 355 -348 544 -309 495 -348 b 245 -335 317 -348 280 -344 l 245 -258 b 351 -270 281 -266 315 -270 b 453 -162 426 -270 453 -247 l 453 119 l 265 119 l 265 191 l 533 200 l 544 190 l 544 -161 m 481 269 b 418 326 444 269 418 291 b 481 383 418 361 444 383 b 544 326 519 383 544 361 b 481 269 544 291 519 269 "},"ₒ":{"ha":861,"x_min":0,"x_max":0,"o":"m 634 -3 b 431 -203 634 -141 542 -203 b 227 -3 319 -203 227 -142 b 431 200 227 135 319 200 b 634 -3 542 200 634 135 m 541 -3 b 431 129 541 92 495 129 b 320 -3 366 129 320 92 b 431 -132 320 -97 366 -132 b 541 -3 495 -132 541 -97 "},"ᵣ":{"ha":861,"x_min":0,"x_max":0,"o":"m 427 135 l 439 135 b 587 200 480 178 520 200 b 627 196 601 200 615 199 l 627 111 b 434 77 545 111 492 107 l 434 -121 l 569 -121 l 569 -194 l 240 -194 l 240 -121 l 342 -121 l 342 118 l 240 118 l 240 191 l 421 191 "},"ₔ":{"ha":861,"x_min":0,"x_max":0,"o":"m 634 -2 b 423 -203 634 -135 549 -203 b 236 -28 305 -203 236 -145 l 236 8 l 542 8 b 426 129 538 87 497 129 b 326 75 382 129 344 115 l 238 88 b 426 200 266 166 338 200 b 634 -2 549 200 634 131 m 325 -47 b 425 -132 325 -106 367 -132 b 537 -47 483 -132 524 -106 l 325 -47 "},"ᵤ":{"ha":861,"x_min":0,"x_max":0,"o":"m 343 191 l 343 -65 b 410 -131 343 -117 373 -131 b 518 -84 451 -131 487 -114 l 518 191 l 609 191 l 609 -194 l 531 -194 l 524 -137 l 513 -137 b 367 -203 477 -175 434 -203 b 252 -89 295 -203 252 -169 l 252 191 "},"ᵥ":{"ha":861,"x_min":0,"x_max":0,"o":"m 315 191 l 432 -85 l 438 -85 l 553 191 l 643 191 l 478 -194 l 383 -194 l 217 191 "},"ₓ":{"ha":861,"x_min":0,"x_max":0,"o":"m 324 191 l 436 58 l 542 191 l 644 191 l 485 0 l 649 -194 l 542 -194 l 426 -56 l 317 -194 l 212 -194 l 376 2 l 217 191 "},"ª":{"ha":861,"x_min":0,"x_max":0,"o":"m 419 1158 b 585 1037 521 1158 585 1126 l 585 857 b 629 829 585 832 594 826 l 629 764 b 572 756 608 758 590 756 b 499 811 520 756 503 780 l 490 811 b 356 756 459 781 417 756 b 233 859 281 756 233 794 b 493 981 233 967 366 982 l 493 1033 b 412 1097 493 1083 460 1097 b 330 1042 365 1097 330 1082 l 330 1026 l 247 1026 l 247 1046 b 419 1158 247 1112 295 1158 m 328 871 b 399 821 328 839 355 821 b 493 851 435 821 465 833 l 493 931 b 461 933 481 933 470 933 b 328 871 378 933 328 914 "},"º":{"ha":861,"x_min":0,"x_max":0,"o":"m 634 956 b 431 756 634 817 542 756 b 227 956 319 756 227 817 b 431 1158 227 1094 319 1158 b 634 956 542 1158 634 1094 m 541 956 b 431 1088 541 1050 495 1088 b 320 956 366 1088 320 1050 b 431 826 320 861 366 826 b 541 956 495 826 541 861 "},"ʰ":{"ha":861,"x_min":0,"x_max":0,"o":"m 252 764 l 252 1326 l 343 1326 l 343 1093 l 354 1093 b 496 1158 390 1131 430 1158 b 609 1044 567 1158 609 1125 l 609 764 l 518 764 l 518 1021 b 451 1086 518 1072 488 1086 b 343 1038 408 1086 372 1067 l 343 764 "},"ⁱ":{"ha":861,"x_min":0,"x_max":0,"o":"m 245 838 l 385 838 l 385 1077 l 245 1077 l 245 1149 l 465 1158 l 476 1148 l 476 838 l 616 838 l 616 764 l 245 764 m 415 1227 b 351 1285 377 1227 351 1249 b 415 1341 351 1319 377 1341 b 478 1285 452 1341 478 1319 b 415 1227 478 1249 452 1227 "},"ʲ":{"ha":861,"x_min":0,"x_max":0,"o":"m 544 797 b 355 610 544 649 495 610 b 245 623 317 610 280 615 l 245 700 b 351 688 281 692 315 688 b 453 796 426 688 453 712 l 453 1077 l 265 1077 l 265 1149 l 533 1158 l 544 1148 l 544 797 m 481 1227 b 418 1285 444 1227 418 1249 b 481 1341 418 1319 444 1341 b 544 1285 519 1341 544 1319 b 481 1227 544 1249 519 1227 "},"ˡ":{"ha":861,"x_min":0,"x_max":0,"o":"m 245 838 l 385 838 l 385 1253 l 245 1253 l 245 1326 l 465 1335 l 476 1324 l 476 838 l 616 838 l 616 764 l 245 764 "},"ⁿ":{"ha":861,"x_min":0,"x_max":0,"o":"m 518 764 l 518 1021 b 451 1086 518 1072 488 1086 b 343 1039 408 1086 373 1067 l 343 764 l 252 764 l 252 1149 l 331 1149 l 337 1093 l 349 1093 b 494 1158 386 1132 429 1158 b 609 1044 566 1158 609 1125 l 609 764 "},"ʳ":{"ha":861,"x_min":0,"x_max":0,"o":"m 427 1093 l 439 1093 b 587 1158 480 1137 520 1158 b 627 1154 601 1158 615 1157 l 627 1069 b 434 1035 545 1069 492 1065 l 434 838 l 569 838 l 569 764 l 240 764 l 240 838 l 342 838 l 342 1076 l 240 1076 l 240 1149 l 421 1149 "},"ˢ":{"ha":861,"x_min":0,"x_max":0,"o":"m 433 1158 b 607 1043 547 1158 607 1118 l 525 1037 b 426 1094 520 1074 491 1094 b 337 1050 371 1094 337 1079 b 456 992 337 1021 369 1010 b 614 878 556 972 614 951 b 426 756 614 803 549 756 b 232 875 311 756 249 788 l 315 884 b 430 821 331 830 374 821 b 523 868 497 821 523 843 b 398 926 523 897 490 908 b 250 1042 306 944 250 972 b 433 1158 250 1115 308 1158 "},"ʷ":{"ha":861,"x_min":0,"x_max":0,"o":"m 283 1149 l 338 902 l 344 902 l 406 1099 l 465 1099 l 519 902 l 526 902 l 581 1149 l 663 1149 l 574 764 l 497 764 l 433 985 l 428 985 l 359 764 l 288 764 l 198 1149 "},"ˣ":{"ha":861,"x_min":0,"x_max":0,"o":"m 324 1149 l 436 1017 l 542 1149 l 644 1149 l 485 958 l 649 764 l 542 764 l 426 902 l 317 764 l 212 764 l 376 960 l 217 1149 "},"ʸ":{"ha":861,"x_min":0,"x_max":0,"o":"m 315 1149 l 440 881 l 445 881 l 555 1149 l 646 1149 l 491 781 b 285 617 450 681 398 617 b 235 622 268 617 250 619 l 235 702 b 288 697 252 699 267 697 b 389 754 351 697 377 722 l 394 768 l 217 1149 "},"ℂ":{"ha":861,"x_min":0,"x_max":0,"o":"m 178 506 b 275 144 178 327 216 211 l 275 871 b 178 506 216 803 178 686 m 85 506 b 450 1030 85 861 239 1030 b 774 702 643 1030 765 894 l 689 694 b 452 949 676 847 592 949 b 358 931 419 949 388 943 l 358 83 b 452 66 388 72 419 66 b 689 321 592 66 676 167 l 774 313 b 450 -15 765 120 643 -15 b 85 506 239 -15 85 153 "},"ℕ":{"ha":861,"x_min":0,"x_max":0,"o":"m 132 1014 l 253 1014 l 646 415 l 646 1014 l 729 1014 l 729 0 l 608 0 l 215 599 l 215 0 l 132 0 m 646 90 l 646 267 l 215 924 l 215 747 "},"ℚ":{"ha":861,"x_min":0,"x_max":0,"o":"m 575 114 b 691 508 648 175 691 299 b 431 949 691 831 588 949 b 353 938 403 949 377 946 l 353 76 b 431 65 377 69 403 65 b 513 78 460 65 488 69 l 417 273 l 501 273 m 785 508 b 615 40 785 269 721 115 l 728 -176 l 638 -176 l 548 4 b 431 -16 512 -10 472 -16 b 76 508 218 -16 76 153 b 431 1031 76 862 218 1031 b 785 508 643 1031 785 862 m 170 508 b 270 128 170 315 207 194 l 270 886 b 170 508 207 822 170 701 "},"ℝ":{"ha":861,"x_min":0,"x_max":0,"o":"m 399 490 b 676 726 610 490 676 585 b 419 938 676 881 597 938 l 392 938 l 392 490 l 399 490 m 132 1014 l 436 1014 b 763 726 639 1014 763 928 b 572 440 763 587 703 484 l 789 0 l 690 0 l 490 422 b 408 417 465 418 438 417 l 392 417 l 392 0 l 132 0 m 309 76 l 309 938 l 215 938 l 215 76 "},"ℤ":{"ha":861,"x_min":0,"x_max":0,"o":"m 757 1014 l 757 931 l 388 83 l 757 83 l 757 0 l 104 0 l 104 83 l 473 931 l 104 931 l 104 1014 m 297 83 l 665 931 l 565 931 l 197 83 "},"ₕ":{"ha":861,"x_min":0,"x_max":0,"o":"m 252 -194 l 252 367 l 343 367 l 343 135 l 354 135 b 496 200 390 172 430 200 b 609 86 567 200 609 167 l 609 -194 l 518 -194 l 518 63 b 451 128 518 114 488 128 b 343 80 408 128 372 108 l 343 -194 "},"ₖ":{"ha":861,"x_min":0,"x_max":0,"o":"m 252 -194 l 252 367 l 343 367 l 343 47 l 416 47 l 542 191 l 643 191 l 483 10 l 483 6 l 656 -194 l 549 -194 l 402 -25 l 343 -25 l 343 -194 "},"ₗ":{"ha":861,"x_min":0,"x_max":0,"o":"m 245 -121 l 385 -121 l 385 295 l 245 295 l 245 367 l 465 376 l 476 365 l 476 -121 l 616 -121 l 616 -194 l 245 -194 "},"ₘ":{"ha":861,"x_min":0,"x_max":0,"o":"m 390 -194 l 390 92 b 362 124 390 117 376 124 b 318 104 345 124 331 115 l 318 -194 l 238 -194 l 238 191 l 306 191 l 311 140 l 319 140 b 406 199 333 170 362 199 b 470 140 443 199 465 181 l 473 140 b 559 199 488 170 515 199 b 624 124 600 199 624 176 l 624 -194 l 544 -194 l 544 92 b 515 124 544 117 530 124 b 471 104 499 124 484 116 l 471 -194 "},"ₙ":{"ha":861,"x_min":0,"x_max":0,"o":"m 518 -194 l 518 63 b 451 128 518 114 488 128 b 343 81 408 128 373 109 l 343 -194 l 252 -194 l 252 191 l 331 191 l 337 135 l 349 135 b 494 200 386 174 429 200 b 609 86 566 200 609 167 l 609 -194 "},"ₚ":{"ha":861,"x_min":0,"x_max":0,"o":"m 634 -1 b 473 -203 634 -121 578 -203 b 349 -146 413 -203 372 -178 l 343 -146 l 343 -332 l 252 -332 l 252 191 l 331 191 l 336 142 l 348 142 b 476 200 376 174 417 200 b 634 -1 581 200 634 117 m 343 -99 b 435 -128 373 -120 404 -128 b 541 -1 503 -128 541 -88 b 435 125 541 85 506 125 b 343 96 403 125 373 117 l 343 -99 "},"ₛ":{"ha":861,"x_min":0,"x_max":0,"o":"m 433 200 b 607 85 547 200 607 160 l 525 78 b 426 135 520 116 491 135 b 337 92 371 135 337 121 b 456 34 337 63 369 52 b 614 -80 556 14 614 -7 b 426 -203 614 -155 549 -203 b 232 -83 311 -203 249 -170 l 315 -74 b 430 -137 331 -128 374 -137 b 523 -90 497 -137 523 -115 b 398 -33 523 -61 490 -51 b 250 84 306 -14 250 14 b 433 200 250 156 308 200 "},"ₜ":{"ha":861,"x_min":0,"x_max":0,"o":"m 509 -203 b 336 -37 386 -203 336 -171 l 336 118 l 224 118 l 224 191 l 336 191 l 336 303 l 427 303 l 427 191 l 604 191 l 604 118 l 427 118 l 427 -36 b 519 -126 427 -109 452 -126 b 614 -114 550 -126 583 -122 l 614 -191 b 509 -203 583 -199 546 -203 "},"ᴬ":{"ha":861,"x_min":0,"x_max":0,"o":"m 527 764 l 498 842 l 359 842 l 331 764 l 239 764 l 381 1149 l 479 1149 l 623 764 m 477 899 l 430 1024 l 425 1024 l 379 899 "},"ᴮ":{"ha":861,"x_min":0,"x_max":0,"o":"m 281 1149 l 436 1149 b 590 1065 525 1150 590 1138 b 483 969 590 1002 532 973 l 483 966 b 613 878 551 965 613 941 b 436 764 613 804 540 764 l 281 764 m 412 826 b 519 881 476 826 519 838 b 412 932 519 922 477 932 l 373 932 l 373 826 m 405 991 b 499 1042 466 991 499 1009 b 412 1088 499 1074 471 1088 l 373 1088 l 373 991 "},"ᴰ":{"ha":861,"x_min":0,"x_max":0,"o":"m 276 1149 l 404 1149 b 607 955 526 1149 607 1107 b 404 764 607 803 526 764 l 276 764 m 513 955 b 404 1080 513 1046 483 1080 l 368 1080 l 368 833 l 404 833 b 513 955 483 833 513 864 "},"ᴱ":{"ha":861,"x_min":0,"x_max":0,"o":"m 276 1149 l 583 1149 l 583 1076 l 368 1076 l 368 990 l 542 990 l 542 921 l 368 921 l 368 838 l 583 838 l 583 764 l 276 764 "},"ᴳ":{"ha":861,"x_min":0,"x_max":0,"o":"m 601 974 l 601 908 b 438 758 601 794 526 758 b 256 957 324 758 256 815 b 438 1156 256 1098 324 1156 b 599 1040 526 1156 585 1124 l 513 1033 b 439 1078 504 1064 481 1078 b 350 959 380 1078 350 1046 b 440 831 350 865 379 831 b 516 894 485 831 516 847 l 516 905 l 443 905 l 443 974 "},"ᴴ":{"ha":861,"x_min":0,"x_max":0,"o":"m 276 764 l 276 1149 l 368 1149 l 368 992 l 494 992 l 494 1149 l 585 1149 l 585 764 l 494 764 l 494 919 l 368 919 l 368 764 "},"ᴵ":{"ha":861,"x_min":0,"x_max":0,"o":"m 279 838 l 385 838 l 385 1076 l 279 1076 l 279 1149 l 583 1149 l 583 1076 l 477 1076 l 477 838 l 583 838 l 583 764 l 279 764 "},"ᴶ":{"ha":861,"x_min":0,"x_max":0,"o":"m 357 920 l 358 879 b 422 833 359 851 381 833 b 488 888 465 833 488 849 l 488 1076 l 297 1076 l 297 1149 l 580 1149 l 580 894 b 417 758 580 797 527 758 b 274 869 324 758 276 797 l 273 920 "},"ᴷ":{"ha":861,"x_min":0,"x_max":0,"o":"m 276 764 l 276 1149 l 368 1149 l 368 992 l 415 992 l 514 1149 l 610 1149 l 482 962 l 482 956 l 615 764 l 515 764 l 406 918 l 368 918 l 368 764 "},"ᴸ":{"ha":861,"x_min":0,"x_max":0,"o":"m 287 1149 l 378 1149 l 378 838 l 594 838 l 594 764 l 287 764 "},"ᴹ":{"ha":861,"x_min":0,"x_max":0,"o":"m 349 1149 l 430 987 l 433 987 l 517 1149 l 595 1149 l 595 764 l 523 764 l 523 1017 l 518 1017 l 439 862 l 419 862 l 341 1017 l 338 1017 l 338 764 l 266 764 l 266 1149 "},"ᴺ":{"ha":861,"x_min":0,"x_max":0,"o":"m 360 1007 l 351 1007 l 351 764 l 276 764 l 276 1149 l 365 1149 l 502 902 l 511 902 l 511 1149 l 585 1149 l 585 764 l 498 764 "},"ᴼ":{"ha":861,"x_min":0,"x_max":0,"o":"m 607 957 b 431 758 607 822 542 758 b 255 957 320 758 255 822 b 431 1156 255 1099 320 1156 b 607 957 542 1156 607 1099 m 513 957 b 431 1080 513 1050 488 1080 b 349 957 375 1080 349 1050 b 431 834 349 864 375 834 b 513 957 488 834 513 864 "},"ᴾ":{"ha":861,"x_min":0,"x_max":0,"o":"m 281 764 l 281 1149 l 446 1149 b 604 1026 540 1149 604 1108 b 400 893 604 946 544 893 l 373 893 l 373 764 m 412 960 b 510 1026 487 960 510 987 b 419 1085 510 1067 481 1085 l 373 1085 l 373 960 l 412 960 "},"ᴿ":{"ha":861,"x_min":0,"x_max":0,"o":"m 281 764 l 281 1149 l 443 1149 b 601 1033 539 1149 601 1106 b 516 926 601 981 572 945 l 618 764 l 510 764 l 426 912 l 409 912 l 373 912 l 373 764 m 410 978 b 506 1033 485 978 506 1000 b 415 1085 506 1069 478 1085 l 373 1085 l 373 978 l 410 978 "},"ᵀ":{"ha":861,"x_min":0,"x_max":0,"o":"m 385 764 l 385 1076 l 266 1076 l 266 1149 l 596 1149 l 596 1076 l 477 1076 l 477 764 "},"ᵁ":{"ha":861,"x_min":0,"x_max":0,"o":"m 431 833 b 498 901 481 833 498 858 l 498 1149 l 590 1149 l 590 901 b 431 758 590 807 535 758 b 273 901 326 758 273 807 l 273 1149 l 365 1149 l 365 901 b 431 833 365 858 381 833 "},"ᵂ":{"ha":861,"x_min":0,"x_max":0,"o":"m 326 1149 l 361 936 l 367 936 l 410 1088 l 460 1088 l 497 936 l 502 936 l 539 1149 l 621 1149 l 553 764 l 479 764 l 432 963 l 428 963 l 377 764 l 309 764 l 241 1149 "},"ᵃ":{"ha":861,"x_min":0,"x_max":0,"o":"m 419 1158 b 585 1037 521 1158 585 1126 l 585 857 b 629 829 585 832 594 826 l 629 764 b 572 756 608 758 590 756 b 499 811 520 756 503 780 l 490 811 b 356 756 459 781 417 756 b 233 859 281 756 233 794 b 493 981 233 967 366 982 l 493 1033 b 412 1097 493 1083 460 1097 b 330 1042 365 1097 330 1082 l 330 1026 l 247 1026 l 247 1046 b 419 1158 247 1112 295 1158 m 328 871 b 399 821 328 839 355 821 b 493 851 435 821 465 833 l 493 931 b 461 933 481 933 470 933 b 328 871 378 933 328 914 "},"ᵇ":{"ha":861,"x_min":0,"x_max":0,"o":"m 634 958 b 473 756 634 838 578 756 b 349 813 413 756 372 781 l 337 813 l 331 764 l 252 764 l 252 1326 l 343 1326 l 343 1101 l 348 1101 b 476 1158 376 1133 417 1158 b 634 958 581 1158 634 1076 m 343 859 b 435 830 373 838 404 830 b 541 958 503 830 541 870 b 435 1083 541 1043 506 1083 b 343 1054 403 1083 373 1075 l 343 859 "},"ᶜ":{"ha":861,"x_min":0,"x_max":0,"o":"m 628 884 b 433 756 604 791 523 756 b 227 957 310 756 227 825 b 438 1158 227 1095 316 1158 b 628 1019 544 1158 619 1111 l 540 1011 b 435 1088 531 1061 492 1088 b 320 957 360 1088 320 1042 b 435 826 320 869 364 826 b 541 896 491 826 526 853 l 628 884 "},"ᵈ":{"ha":861,"x_min":0,"x_max":0,"o":"m 227 956 b 389 1158 227 1076 283 1158 b 513 1101 449 1158 488 1133 l 518 1101 l 518 1326 l 609 1326 l 609 764 l 531 764 l 525 813 l 513 813 b 385 755 485 781 444 755 b 227 956 280 755 227 838 m 320 956 b 426 830 320 870 356 830 b 518 859 458 830 488 838 l 518 1055 b 426 1083 489 1075 458 1083 b 320 956 358 1083 320 1042 "},"ᵉ":{"ha":861,"x_min":0,"x_max":0,"o":"m 227 958 b 439 1158 227 1091 313 1158 b 626 983 557 1158 626 1101 l 626 947 l 320 947 b 435 826 324 869 364 826 b 535 881 479 826 517 841 l 624 867 b 435 756 596 790 524 756 b 227 958 313 756 227 824 m 537 1003 b 436 1088 537 1061 494 1088 b 324 1003 378 1088 338 1061 "},"ᶠ":{"ha":861,"x_min":0,"x_max":0,"o":"m 632 1268 b 542 1278 601 1274 574 1278 b 441 1184 474 1278 441 1260 l 441 1149 l 618 1149 l 618 1076 l 441 1076 l 441 838 l 577 838 l 577 764 l 248 764 l 248 838 l 350 838 l 350 1076 l 224 1076 l 224 1149 l 350 1149 l 350 1167 b 538 1356 350 1304 416 1356 b 632 1345 572 1356 603 1352 l 632 1268 "},"ᵍ":{"ha":861,"x_min":0,"x_max":0,"o":"m 227 977 b 388 1158 227 1085 288 1158 b 513 1101 448 1158 489 1132 l 525 1101 l 531 1149 l 609 1149 l 609 786 b 419 617 609 666 544 617 b 239 721 301 617 254 662 l 322 738 b 419 681 338 698 370 681 b 518 776 477 681 518 703 l 518 855 l 513 855 b 385 798 485 824 444 798 b 227 977 285 798 227 871 m 320 977 b 426 873 320 910 358 873 b 518 902 458 873 489 881 l 518 1055 b 426 1083 489 1075 458 1083 b 320 977 360 1083 320 1045 "},"ᵏ":{"ha":861,"x_min":0,"x_max":0,"o":"m 252 764 l 252 1326 l 343 1326 l 343 1005 l 416 1005 l 542 1149 l 643 1149 l 483 969 l 483 964 l 656 764 l 549 764 l 402 933 l 343 933 l 343 764 "},"ᵐ":{"ha":861,"x_min":0,"x_max":0,"o":"m 390 764 l 390 1051 b 362 1082 390 1075 376 1082 b 318 1063 345 1082 331 1074 l 318 764 l 238 764 l 238 1149 l 306 1149 l 311 1098 l 319 1098 b 406 1158 333 1128 362 1158 b 470 1098 443 1158 465 1139 l 473 1098 b 559 1158 488 1128 515 1158 b 624 1082 600 1158 624 1134 l 624 764 l 544 764 l 544 1051 b 515 1082 544 1075 530 1082 b 471 1063 499 1082 484 1074 l 471 764 "},"ᵒ":{"ha":861,"x_min":0,"x_max":0,"o":"m 634 956 b 431 756 634 817 542 756 b 227 956 319 756 227 817 b 431 1158 227 1094 319 1158 b 634 956 542 1158 634 1094 m 541 956 b 431 1088 541 1050 495 1088 b 320 956 366 1088 320 1050 b 431 826 320 861 366 826 b 541 956 495 826 541 861 "},"ᵖ":{"ha":861,"x_min":0,"x_max":0,"o":"m 634 958 b 473 756 634 838 578 756 b 349 813 413 756 372 781 l 343 813 l 343 626 l 252 626 l 252 1149 l 331 1149 l 336 1101 l 348 1101 b 476 1158 376 1133 417 1158 b 634 958 581 1158 634 1076 m 343 859 b 435 830 373 838 404 830 b 541 958 503 830 541 870 b 435 1083 541 1043 506 1083 b 343 1054 403 1083 373 1075 l 343 859 "},"ᵗ":{"ha":861,"x_min":0,"x_max":0,"o":"m 509 755 b 336 921 386 755 336 788 l 336 1076 l 224 1076 l 224 1149 l 336 1149 l 336 1262 l 427 1262 l 427 1149 l 604 1149 l 604 1076 l 427 1076 l 427 922 b 519 833 427 849 452 833 b 614 844 550 833 583 837 l 614 767 b 509 755 583 759 546 755 "},"ᵘ":{"ha":861,"x_min":0,"x_max":0,"o":"m 343 1149 l 343 893 b 410 828 343 842 373 828 b 518 874 451 828 487 844 l 518 1149 l 609 1149 l 609 764 l 531 764 l 524 821 l 513 821 b 367 756 477 783 434 756 b 252 869 295 756 252 789 l 252 1149 "},"ᵛ":{"ha":861,"x_min":0,"x_max":0,"o":"m 315 1149 l 432 873 l 438 873 l 553 1149 l 643 1149 l 478 764 l 383 764 l 217 1149 "},"ᶻ":{"ha":861,"x_min":0,"x_max":0,"o":"m 599 1149 l 599 1096 l 374 838 l 613 838 l 613 764 l 249 764 l 249 818 l 474 1076 l 249 1076 l 249 1149 "},"⓿":{"ha":861,"x_min":0,"x_max":0,"o":"m 431 86 b 848 507 660 86 848 252 b 431 928 848 762 660 928 b 13 507 201 928 13 762 b 431 86 13 252 201 86 m 607 506 b 431 306 607 371 543 306 b 254 506 319 306 254 371 b 431 705 254 648 319 705 b 607 506 543 705 607 648 m 513 506 b 431 628 513 599 489 628 b 349 506 373 628 349 599 b 431 382 349 412 373 382 b 513 506 489 382 513 412 "},"❶":{"ha":861,"x_min":0,"x_max":0,"o":"m 431 86 b 848 507 660 86 848 252 b 431 928 848 762 660 928 b 13 507 201 928 13 762 b 431 86 13 252 201 86 m 297 642 b 396 698 330 642 385 663 l 487 698 l 487 385 l 596 385 l 596 313 l 285 313 l 285 385 l 396 385 l 396 592 b 297 551 367 568 331 551 l 297 642 "},"❷":{"ha":861,"x_min":0,"x_max":0,"o":"m 431 86 b 848 507 660 86 848 252 b 431 928 848 762 660 928 b 13 507 201 928 13 762 b 431 86 13 252 201 86 m 425 704 b 582 594 517 704 582 672 b 444 453 582 509 503 480 b 356 385 386 426 361 413 l 593 385 l 593 313 l 269 313 l 269 385 b 406 515 269 449 330 482 b 492 590 449 535 492 549 b 428 635 492 623 469 635 b 351 576 381 635 356 620 l 268 585 b 425 704 265 658 324 704 "},"❸":{"ha":861,"x_min":0,"x_max":0,"o":"m 431 86 b 848 507 660 86 848 252 b 431 928 848 762 660 928 b 13 507 201 928 13 762 b 431 86 13 252 201 86 m 433 704 b 590 599 532 704 590 669 b 518 507 590 549 558 521 b 600 420 565 497 600 474 b 431 306 600 339 532 306 b 261 422 326 306 262 335 l 344 431 b 431 377 353 392 378 377 b 508 424 487 377 508 394 b 404 472 508 456 476 472 l 385 472 l 385 531 l 405 531 b 503 590 472 531 503 553 b 431 635 503 622 477 635 b 353 579 386 635 360 622 l 273 588 b 433 704 273 661 326 704 "},"❹":{"ha":861,"x_min":0,"x_max":0,"o":"m 431 86 b 848 507 660 86 848 252 b 431 928 848 762 660 928 b 13 507 201 928 13 762 b 431 86 13 252 201 86 m 450 313 l 450 400 l 243 400 l 243 473 l 442 698 l 538 698 l 538 473 l 591 473 l 591 400 l 538 400 l 538 313 m 450 466 l 450 595 l 329 466 "},"❺":{"ha":861,"x_min":0,"x_max":0,"o":"m 431 86 b 848 507 660 86 848 252 b 431 928 848 762 660 928 b 13 507 201 928 13 762 b 431 86 13 252 201 86 m 577 698 l 577 625 l 372 625 l 358 542 b 453 562 384 554 413 562 b 600 442 544 562 600 522 b 429 307 600 349 534 307 b 261 422 331 307 262 338 l 347 430 b 428 378 354 390 385 378 b 510 443 481 378 510 397 b 430 506 510 481 486 506 b 350 479 400 506 370 497 l 270 489 l 301 698 "},"❻":{"ha":861,"x_min":0,"x_max":0,"o":"m 431 86 b 848 507 660 86 848 252 b 431 928 848 762 660 928 b 13 507 201 928 13 762 b 431 86 13 252 201 86 m 438 704 b 589 596 530 704 583 669 l 506 588 b 436 635 501 622 478 635 b 349 509 381 635 351 608 b 467 546 377 528 415 546 b 599 435 541 546 599 519 b 431 307 599 347 533 307 b 255 506 329 307 255 355 b 438 704 255 654 328 704 m 351 460 b 431 378 359 397 388 378 b 509 435 479 378 509 397 b 441 487 509 470 483 487 b 351 460 406 487 375 475 "},"❼":{"ha":861,"x_min":0,"x_max":0,"o":"m 431 86 b 848 507 660 86 848 252 b 431 928 848 762 660 928 b 13 507 201 928 13 762 b 431 86 13 252 201 86 m 590 696 l 590 646 l 438 310 l 347 310 l 489 622 l 271 622 l 271 696 "},"❽":{"ha":861,"x_min":0,"x_max":0,"o":"m 431 86 b 848 507 660 86 848 252 b 431 928 848 762 660 928 b 13 507 201 928 13 762 b 431 86 13 252 201 86 m 431 704 b 591 601 525 705 591 668 b 524 515 591 558 561 531 b 605 421 572 494 605 465 b 430 307 605 344 542 307 b 257 415 314 307 257 341 b 337 506 257 460 289 488 b 271 597 296 528 271 559 b 431 704 271 667 335 704 m 344 424 b 433 375 344 384 389 375 b 511 419 482 375 511 392 b 400 483 511 449 458 465 b 344 424 372 471 344 456 m 358 597 b 444 540 358 574 388 556 b 510 594 476 549 510 561 b 429 638 510 626 477 638 b 358 597 385 638 358 628 "},"❾":{"ha":861,"x_min":0,"x_max":0,"o":"m 431 86 b 848 507 660 86 848 252 b 431 928 848 762 660 928 b 13 507 201 928 13 762 b 431 86 13 252 201 86 m 423 307 b 272 415 331 307 278 342 l 355 424 b 424 376 360 390 382 376 b 511 501 479 376 509 403 b 394 465 483 482 446 465 b 262 576 320 465 262 492 b 430 704 262 664 328 704 b 606 505 531 704 606 656 b 423 307 606 357 532 307 m 351 576 b 419 524 351 540 378 524 b 509 550 455 524 485 536 b 429 633 502 614 472 633 b 351 576 382 633 351 614 "},"⓪":{"ha":861,"x_min":0,"x_max":0,"o":"m 431 86 b 13 507 201 86 13 252 b 431 928 13 762 201 928 b 848 507 660 928 848 762 b 431 86 848 252 660 86 m 431 158 b 777 507 624 158 777 297 b 431 857 777 717 624 857 b 85 507 238 857 85 717 b 431 158 85 297 238 158 m 607 506 b 431 306 607 371 543 306 b 254 506 319 306 254 371 b 431 705 254 648 319 705 b 607 506 543 705 607 648 m 513 506 b 431 628 513 599 489 628 b 349 506 373 628 349 599 b 431 382 349 412 373 382 b 513 506 489 382 513 412 "},"①":{"ha":861,"x_min":0,"x_max":0,"o":"m 431 86 b 13 507 201 86 13 252 b 431 928 13 762 201 928 b 848 507 660 928 848 762 b 431 86 848 252 660 86 m 431 158 b 777 507 624 158 777 297 b 431 857 777 717 624 857 b 85 507 238 857 85 717 b 431 158 85 297 238 158 m 297 642 b 396 698 330 642 385 663 l 487 698 l 487 385 l 596 385 l 596 313 l 285 313 l 285 385 l 396 385 l 396 592 b 297 551 367 568 331 551 l 297 642 "},"②":{"ha":861,"x_min":0,"x_max":0,"o":"m 431 86 b 13 507 201 86 13 252 b 431 928 13 762 201 928 b 848 507 660 928 848 762 b 431 86 848 252 660 86 m 431 158 b 777 507 624 158 777 297 b 431 857 777 717 624 857 b 85 507 238 857 85 717 b 431 158 85 297 238 158 m 425 704 b 582 594 517 704 582 672 b 444 453 582 509 503 480 b 356 385 386 426 361 413 l 593 385 l 593 313 l 269 313 l 269 385 b 406 515 269 449 330 482 b 492 590 449 535 492 549 b 428 635 492 623 469 635 b 351 576 381 635 356 620 l 268 585 b 425 704 265 658 324 704 "},"③":{"ha":861,"x_min":0,"x_max":0,"o":"m 431 86 b 13 507 201 86 13 252 b 431 928 13 762 201 928 b 848 507 660 928 848 762 b 431 86 848 252 660 86 m 431 158 b 777 507 624 158 777 297 b 431 857 777 717 624 857 b 85 507 238 857 85 717 b 431 158 85 297 238 158 m 433 704 b 590 599 532 704 590 669 b 518 507 590 549 558 521 b 600 420 565 497 600 474 b 431 306 600 339 532 306 b 261 422 326 306 262 335 l 344 431 b 431 377 353 392 378 377 b 508 424 487 377 508 394 b 404 472 508 456 476 472 l 385 472 l 385 531 l 405 531 b 503 590 472 531 503 553 b 431 635 503 622 477 635 b 353 579 386 635 360 622 l 273 588 b 433 704 273 661 326 704 "},"④":{"ha":861,"x_min":0,"x_max":0,"o":"m 431 86 b 13 507 201 86 13 252 b 431 928 13 762 201 928 b 848 507 660 928 848 762 b 431 86 848 252 660 86 m 431 158 b 777 507 624 158 777 297 b 431 857 777 717 624 857 b 85 507 238 857 85 717 b 431 158 85 297 238 158 m 450 313 l 450 400 l 243 400 l 243 473 l 442 698 l 538 698 l 538 473 l 591 473 l 591 400 l 538 400 l 538 313 m 450 466 l 450 595 l 329 466 "},"⑤":{"ha":861,"x_min":0,"x_max":0,"o":"m 431 86 b 13 507 201 86 13 252 b 431 928 13 762 201 928 b 848 507 660 928 848 762 b 431 86 848 252 660 86 m 431 158 b 777 507 624 158 777 297 b 431 857 777 717 624 857 b 85 507 238 857 85 717 b 431 158 85 297 238 158 m 577 698 l 577 625 l 372 625 l 358 542 b 453 562 384 554 413 562 b 600 442 544 562 600 522 b 429 307 600 349 534 307 b 261 422 331 307 262 338 l 347 430 b 428 378 354 390 385 378 b 510 443 481 378 510 397 b 430 506 510 481 486 506 b 350 479 400 506 370 497 l 270 489 l 301 698 "},"⑥":{"ha":861,"x_min":0,"x_max":0,"o":"m 431 86 b 13 507 201 86 13 252 b 431 928 13 762 201 928 b 848 507 660 928 848 762 b 431 86 848 252 660 86 m 431 158 b 777 507 624 158 777 297 b 431 857 777 717 624 857 b 85 507 238 857 85 717 b 431 158 85 297 238 158 m 438 704 b 589 596 530 704 583 669 l 506 588 b 436 635 501 622 478 635 b 349 509 381 635 351 608 b 467 546 377 528 415 546 b 599 435 541 546 599 519 b 431 307 599 347 533 307 b 255 506 329 307 255 355 b 438 704 255 654 328 704 m 351 460 b 431 378 359 397 388 378 b 509 435 479 378 509 397 b 441 487 509 470 483 487 b 351 460 406 487 375 475 "},"⑦":{"ha":861,"x_min":0,"x_max":0,"o":"m 431 86 b 13 507 201 86 13 252 b 431 928 13 762 201 928 b 848 507 660 928 848 762 b 431 86 848 252 660 86 m 431 158 b 777 507 624 158 777 297 b 431 857 777 717 624 857 b 85 507 238 857 85 717 b 431 158 85 297 238 158 m 590 696 l 590 646 l 438 310 l 347 310 l 489 622 l 271 622 l 271 696 "},"⑧":{"ha":861,"x_min":0,"x_max":0,"o":"m 431 86 b 13 507 201 86 13 252 b 431 928 13 762 201 928 b 848 507 660 928 848 762 b 431 86 848 252 660 86 m 431 158 b 777 507 624 158 777 297 b 431 857 777 717 624 857 b 85 507 238 857 85 717 b 431 158 85 297 238 158 m 431 704 b 591 601 525 705 591 668 b 524 515 591 558 561 531 b 605 421 572 494 605 465 b 430 307 605 344 542 307 b 257 415 314 307 257 341 b 337 506 257 460 289 488 b 271 597 296 528 271 559 b 431 704 271 667 335 704 m 344 424 b 433 375 344 384 389 375 b 511 419 482 375 511 392 b 400 483 511 449 458 465 b 344 424 372 471 344 456 m 358 597 b 444 540 358 574 388 556 b 510 594 476 549 510 561 b 429 638 510 626 477 638 b 358 597 385 638 358 628 "},"⑨":{"ha":861,"x_min":0,"x_max":0,"o":"m 431 86 b 13 507 201 86 13 252 b 431 928 13 762 201 928 b 848 507 660 928 848 762 b 431 86 848 252 660 86 m 431 158 b 777 507 624 158 777 297 b 431 857 777 717 624 857 b 85 507 238 857 85 717 b 431 158 85 297 238 158 m 423 307 b 272 415 331 307 278 342 l 355 424 b 424 376 360 390 382 376 b 511 501 479 376 509 403 b 394 465 483 482 446 465 b 262 576 320 465 262 492 b 430 704 262 664 328 704 b 606 505 531 704 606 656 b 423 307 606 357 532 307 m 351 576 b 419 524 351 540 378 524 b 509 550 455 524 485 536 b 429 633 502 614 472 633 b 351 576 382 633 351 614 "},"⑴":{"ha":861,"x_min":0,"x_max":0,"o":"m 97 507 b 257 152 97 351 167 248 l 179 152 b 13 507 99 223 13 337 b 179 863 13 676 99 792 l 257 863 b 97 507 167 767 97 663 m 765 507 b 605 863 765 663 695 767 l 682 863 b 848 507 763 792 848 676 b 682 152 848 337 763 223 l 605 152 b 765 507 695 248 765 351 m 297 642 b 396 698 330 642 385 663 l 487 698 l 487 385 l 596 385 l 596 313 l 285 313 l 285 385 l 396 385 l 396 592 b 297 551 367 568 331 551 l 297 642 "},"⑵":{"ha":861,"x_min":0,"x_max":0,"o":"m 97 507 b 257 152 97 351 167 248 l 179 152 b 13 507 99 223 13 337 b 179 863 13 676 99 792 l 257 863 b 97 507 167 767 97 663 m 765 507 b 605 863 765 663 695 767 l 682 863 b 848 507 763 792 848 676 b 682 152 848 337 763 223 l 605 152 b 765 507 695 248 765 351 m 425 704 b 582 594 517 704 582 672 b 444 453 582 509 503 480 b 356 385 386 426 361 413 l 593 385 l 593 313 l 269 313 l 269 385 b 406 515 269 449 330 482 b 492 590 449 535 492 549 b 428 635 492 623 469 635 b 351 576 381 635 356 620 l 268 585 b 425 704 265 658 324 704 "},"⑶":{"ha":861,"x_min":0,"x_max":0,"o":"m 97 507 b 257 152 97 351 167 248 l 179 152 b 13 507 99 223 13 337 b 179 863 13 676 99 792 l 257 863 b 97 507 167 767 97 663 m 765 507 b 605 863 765 663 695 767 l 682 863 b 848 507 763 792 848 676 b 682 152 848 337 763 223 l 605 152 b 765 507 695 248 765 351 m 433 704 b 590 599 532 704 590 669 b 518 507 590 549 558 521 b 600 420 565 497 600 474 b 431 306 600 339 532 306 b 261 422 326 306 262 335 l 344 431 b 431 377 353 392 378 377 b 508 424 487 377 508 394 b 404 472 508 456 476 472 l 385 472 l 385 531 l 405 531 b 503 590 472 531 503 553 b 431 635 503 622 477 635 b 353 579 386 635 360 622 l 273 588 b 433 704 273 661 326 704 "},"⑷":{"ha":861,"x_min":0,"x_max":0,"o":"m 97 507 b 257 152 97 351 167 248 l 179 152 b 13 507 99 223 13 337 b 179 863 13 676 99 792 l 257 863 b 97 507 167 767 97 663 m 765 507 b 605 863 765 663 695 767 l 682 863 b 848 507 763 792 848 676 b 682 152 848 337 763 223 l 605 152 b 765 507 695 248 765 351 m 450 313 l 450 400 l 243 400 l 243 473 l 442 698 l 538 698 l 538 473 l 591 473 l 591 400 l 538 400 l 538 313 m 450 466 l 450 595 l 329 466 "},"⑸":{"ha":861,"x_min":0,"x_max":0,"o":"m 97 507 b 257 152 97 351 167 248 l 179 152 b 13 507 99 223 13 337 b 179 863 13 676 99 792 l 257 863 b 97 507 167 767 97 663 m 765 507 b 605 863 765 663 695 767 l 682 863 b 848 507 763 792 848 676 b 682 152 848 337 763 223 l 605 152 b 765 507 695 248 765 351 m 577 698 l 577 625 l 372 625 l 358 542 b 453 562 384 554 413 562 b 600 442 544 562 600 522 b 429 307 600 349 534 307 b 261 422 331 307 262 338 l 347 430 b 428 378 354 390 385 378 b 510 443 481 378 510 397 b 430 506 510 481 486 506 b 350 479 400 506 370 497 l 270 489 l 301 698 "},"⑹":{"ha":861,"x_min":0,"x_max":0,"o":"m 97 507 b 257 152 97 351 167 248 l 179 152 b 13 507 99 223 13 337 b 179 863 13 676 99 792 l 257 863 b 97 507 167 767 97 663 m 765 507 b 605 863 765 663 695 767 l 682 863 b 848 507 763 792 848 676 b 682 152 848 337 763 223 l 605 152 b 765 507 695 248 765 351 m 438 704 b 589 596 530 704 583 669 l 506 588 b 436 635 501 622 478 635 b 349 509 381 635 351 608 b 467 546 377 528 415 546 b 599 435 541 546 599 519 b 431 307 599 347 533 307 b 255 506 329 307 255 355 b 438 704 255 654 328 704 m 351 460 b 431 378 359 397 388 378 b 509 435 479 378 509 397 b 441 487 509 470 483 487 b 351 460 406 487 375 475 "},"⑺":{"ha":861,"x_min":0,"x_max":0,"o":"m 97 507 b 257 152 97 351 167 248 l 179 152 b 13 507 99 223 13 337 b 179 863 13 676 99 792 l 257 863 b 97 507 167 767 97 663 m 765 507 b 605 863 765 663 695 767 l 682 863 b 848 507 763 792 848 676 b 682 152 848 337 763 223 l 605 152 b 765 507 695 248 765 351 m 590 696 l 590 646 l 438 310 l 347 310 l 489 622 l 271 622 l 271 696 "},"⑻":{"ha":861,"x_min":0,"x_max":0,"o":"m 97 507 b 257 152 97 351 167 248 l 179 152 b 13 507 99 223 13 337 b 179 863 13 676 99 792 l 257 863 b 97 507 167 767 97 663 m 765 507 b 605 863 765 663 695 767 l 682 863 b 848 507 763 792 848 676 b 682 152 848 337 763 223 l 605 152 b 765 507 695 248 765 351 m 431 704 b 591 601 525 705 591 668 b 524 515 591 558 561 531 b 605 421 572 494 605 465 b 430 307 605 344 542 307 b 257 415 314 307 257 341 b 337 506 257 460 289 488 b 271 597 296 528 271 559 b 431 704 271 667 335 704 m 344 424 b 433 375 344 384 389 375 b 511 419 482 375 511 392 b 400 483 511 449 458 465 b 344 424 372 471 344 456 m 358 597 b 444 540 358 574 388 556 b 510 594 476 549 510 561 b 429 638 510 626 477 638 b 358 597 385 638 358 628 "},"⑼":{"ha":861,"x_min":0,"x_max":0,"o":"m 97 507 b 257 152 97 351 167 248 l 179 152 b 13 507 99 223 13 337 b 179 863 13 676 99 792 l 257 863 b 97 507 167 767 97 663 m 765 507 b 605 863 765 663 695 767 l 682 863 b 848 507 763 792 848 676 b 682 152 848 337 763 223 l 605 152 b 765 507 695 248 765 351 m 423 307 b 272 415 331 307 278 342 l 355 424 b 424 376 360 390 382 376 b 511 501 479 376 509 403 b 394 465 483 482 446 465 b 262 576 320 465 262 492 b 430 704 262 664 328 704 b 606 505 531 704 606 656 b 423 307 606 357 532 307 m 351 576 b 419 524 351 540 378 524 b 509 550 455 524 485 536 b 429 633 502 614 472 633 b 351 576 382 633 351 614 "},"⁄":{"ha":861,"x_min":0,"x_max":0,"o":"m 736 723 l 193 215 l 126 285 l 669 793 "},"½":{"ha":861,"x_min":0,"x_max":0,"o":"m 70 958 b 169 1014 103 958 159 978 l 260 1014 l 260 701 l 369 701 l 369 628 l 59 628 l 59 701 l 169 701 l 169 908 b 70 867 140 884 105 867 l 70 958 m 761 723 l 218 215 l 151 285 l 694 793 m 652 392 b 809 282 744 392 809 359 b 672 141 809 197 730 167 b 582 73 613 114 588 100 l 820 73 l 820 0 l 496 0 l 496 73 b 633 203 496 137 557 169 b 719 277 676 223 719 237 b 656 323 719 310 697 323 b 578 264 608 323 583 308 l 495 272 b 652 392 492 346 551 392 "},"⅓":{"ha":861,"x_min":0,"x_max":0,"o":"m 70 958 b 169 1014 103 958 159 978 l 260 1014 l 260 701 l 369 701 l 369 628 l 59 628 l 59 701 l 169 701 l 169 908 b 70 867 140 884 105 867 l 70 958 m 761 723 l 218 215 l 151 285 l 694 793 m 656 392 b 813 286 755 392 813 356 b 740 194 813 235 780 208 b 823 108 787 185 823 162 b 653 -6 823 26 755 -6 b 484 109 549 -6 485 23 l 567 118 b 654 65 576 79 601 65 b 731 111 710 65 731 82 b 627 160 731 143 699 160 l 608 160 l 608 219 l 628 219 b 726 277 694 219 726 241 b 653 323 726 309 700 323 b 576 267 609 323 583 310 l 496 275 b 656 392 496 349 549 392 "},"⅔":{"ha":861,"x_min":0,"x_max":0,"o":"m 222 1020 b 378 910 314 1020 378 988 b 241 769 378 825 299 796 b 151 701 182 742 157 728 l 390 701 l 390 628 l 65 628 l 65 701 b 202 831 65 765 126 798 b 288 906 245 851 288 865 b 225 951 288 939 266 951 b 148 892 178 951 152 936 l 65 901 b 222 1020 62 974 121 1020 m 761 723 l 218 215 l 151 285 l 694 793 m 656 392 b 813 286 755 392 813 356 b 740 194 813 235 780 208 b 823 108 787 185 823 162 b 653 -6 823 26 755 -6 b 484 109 549 -6 485 23 l 567 118 b 654 65 576 79 601 65 b 731 111 710 65 731 82 b 627 160 731 143 699 160 l 608 160 l 608 219 l 628 219 b 726 277 694 219 726 241 b 653 323 726 309 700 323 b 576 267 609 323 583 310 l 496 275 b 656 392 496 349 549 392 "},"¼":{"ha":861,"x_min":0,"x_max":0,"o":"m 70 958 b 169 1014 103 958 159 978 l 260 1014 l 260 701 l 369 701 l 369 628 l 59 628 l 59 701 l 169 701 l 169 908 b 70 867 140 884 105 867 l 70 958 m 768 723 l 225 215 l 158 285 l 701 793 m 646 0 l 646 88 l 439 88 l 439 160 l 639 385 l 734 385 l 734 160 l 787 160 l 787 88 l 734 88 l 734 0 m 646 153 l 646 283 l 526 153 "},"¾":{"ha":861,"x_min":0,"x_max":0,"o":"m 223 1020 b 381 915 322 1020 381 985 b 307 823 381 864 347 836 b 390 736 354 813 390 790 b 221 622 390 655 322 622 b 51 738 116 622 52 651 l 135 747 b 222 693 143 708 168 693 b 298 740 277 693 298 710 b 194 788 298 772 267 788 l 176 788 l 176 847 l 195 847 b 293 906 262 847 293 869 b 221 951 293 938 267 951 b 144 895 176 951 151 938 l 63 903 b 223 1020 63 977 117 1020 m 768 723 l 225 215 l 158 285 l 701 793 m 646 0 l 646 88 l 439 88 l 439 160 l 639 385 l 734 385 l 734 160 l 787 160 l 787 88 l 734 88 l 734 0 m 646 153 l 646 283 l 526 153 "},"⅛":{"ha":861,"x_min":0,"x_max":0,"o":"m 70 958 b 169 1014 103 958 159 978 l 260 1014 l 260 701 l 369 701 l 369 628 l 59 628 l 59 701 l 169 701 l 169 908 b 70 867 140 884 105 867 l 70 958 m 761 723 l 218 215 l 151 285 l 694 793 m 649 392 b 810 288 743 392 810 356 b 742 202 810 244 779 218 b 823 108 788 182 823 153 b 648 -6 823 31 760 -6 b 475 102 532 -6 475 28 b 556 193 475 148 509 175 b 489 285 515 215 489 246 b 649 392 489 355 553 392 m 563 112 b 651 63 563 72 608 63 b 729 106 701 63 729 80 b 617 169 729 135 680 152 b 563 112 590 158 563 142 m 576 285 b 665 227 576 261 608 242 b 728 282 695 237 728 249 b 647 326 728 313 696 326 b 576 285 603 326 576 315 "},"⅜":{"ha":861,"x_min":0,"x_max":0,"o":"m 223 1020 b 381 915 322 1020 381 985 b 307 823 381 864 347 836 b 390 736 354 813 390 790 b 221 622 390 655 322 622 b 51 738 116 622 52 651 l 135 747 b 222 693 143 708 168 693 b 298 740 277 693 298 710 b 194 788 298 772 267 788 l 176 788 l 176 847 l 195 847 b 293 906 262 847 293 869 b 221 951 293 938 267 951 b 144 895 176 951 151 938 l 63 903 b 223 1020 63 977 117 1020 m 761 723 l 218 215 l 151 285 l 694 793 m 649 392 b 810 288 743 392 810 356 b 742 202 810 244 779 218 b 823 108 788 182 823 153 b 648 -6 823 31 760 -6 b 475 102 532 -6 475 28 b 556 193 475 148 509 175 b 489 285 515 215 489 246 b 649 392 489 355 553 392 m 563 112 b 651 63 563 72 608 63 b 729 106 701 63 729 80 b 617 169 729 135 680 152 b 563 112 590 158 563 142 m 576 285 b 665 227 576 261 608 242 b 728 282 695 237 728 249 b 647 326 728 313 696 326 b 576 285 603 326 576 315 "},"⅝":{"ha":861,"x_min":0,"x_max":0,"o":"m 374 1014 l 374 941 l 169 941 l 154 858 b 250 878 181 870 210 878 b 397 758 341 878 397 838 b 226 623 397 665 331 623 b 58 738 128 623 59 653 l 144 746 b 226 694 151 706 182 694 b 308 759 278 694 308 713 b 227 822 308 797 283 822 b 147 795 197 822 167 813 l 67 805 l 98 1014 m 761 723 l 218 215 l 151 285 l 694 793 m 649 392 b 810 288 743 392 810 356 b 742 202 810 244 779 218 b 823 108 788 182 823 153 b 648 -6 823 31 760 -6 b 475 102 532 -6 475 28 b 556 193 475 148 509 175 b 489 285 515 215 489 246 b 649 392 489 355 553 392 m 563 112 b 651 63 563 72 608 63 b 729 106 701 63 729 80 b 617 169 729 135 680 152 b 563 112 590 158 563 142 m 576 285 b 665 227 576 261 608 242 b 728 282 695 237 728 249 b 647 326 728 313 696 326 b 576 285 603 326 576 315 "},"⅞":{"ha":861,"x_min":0,"x_max":0,"o":"m 434 1012 l 434 962 l 282 626 l 190 626 l 333 938 l 115 938 l 115 1012 m 740 723 l 197 215 l 131 285 l 674 793 m 649 392 b 810 288 743 392 810 356 b 742 202 810 244 779 218 b 823 108 788 182 823 153 b 648 -6 823 31 760 -6 b 475 102 532 -6 475 28 b 556 193 475 148 509 175 b 489 285 515 215 489 246 b 649 392 489 355 553 392 m 563 112 b 651 63 563 72 608 63 b 729 106 701 63 729 80 b 617 169 729 135 680 152 b 563 112 590 158 563 142 m 576 285 b 665 227 576 261 608 242 b 728 282 695 237 728 249 b 647 326 728 313 696 326 b 576 285 603 326 576 315 "},"₀":{"ha":861,"x_min":0,"x_max":0,"o":"m 607 -1 b 431 -201 607 -136 543 -201 b 254 -1 319 -201 254 -136 b 431 198 254 141 319 198 b 607 -1 543 198 607 141 m 513 -1 b 431 122 513 92 489 122 b 349 -1 373 122 349 92 b 431 -125 349 -95 373 -125 b 513 -1 489 -125 513 -95 m 431 -45 b 469 -4 456 -45 469 -30 b 431 37 469 22 456 37 b 392 -4 406 37 392 22 b 431 -45 392 -29 406 -45 "},"₁":{"ha":861,"x_min":0,"x_max":0,"o":"m 296 135 b 395 191 329 135 385 156 l 486 191 l 486 -122 l 595 -122 l 595 -194 l 285 -194 l 285 -122 l 395 -122 l 395 85 b 296 44 366 61 331 44 l 296 135 "},"₂":{"ha":861,"x_min":0,"x_max":0,"o":"m 415 197 b 572 88 507 197 572 165 b 434 -53 572 2 492 -27 b 344 -122 375 -81 350 -94 l 583 -122 l 583 -194 l 258 -194 l 258 -122 b 395 8 258 -58 319 -25 b 481 83 438 28 481 42 b 418 128 481 116 459 128 b 341 69 371 128 345 113 l 258 78 b 415 197 255 151 314 197 "},"₃":{"ha":861,"x_min":0,"x_max":0,"o":"m 421 197 b 578 92 520 197 578 162 b 505 0 578 41 545 13 b 588 -87 552 -10 588 -33 b 419 -201 588 -168 520 -201 b 249 -85 314 -201 250 -172 l 333 -76 b 419 -130 341 -115 366 -130 b 496 -83 475 -130 496 -112 b 392 -35 496 -51 465 -35 l 374 -35 l 374 24 l 393 24 b 491 83 460 24 491 47 b 419 128 491 115 465 128 b 342 72 374 128 349 115 l 261 81 b 421 197 261 154 315 197 "},"₄":{"ha":861,"x_min":0,"x_max":0,"o":"m 458 -194 l 458 -107 l 251 -107 l 251 -34 l 451 191 l 546 191 l 546 -34 l 599 -34 l 599 -107 l 546 -107 l 546 -194 m 458 -41 l 458 88 l 338 -41 "},"₅":{"ha":861,"x_min":0,"x_max":0,"o":"m 572 191 l 572 118 l 367 118 l 352 35 b 448 55 378 47 408 55 b 595 -65 539 55 595 15 b 424 -200 595 -158 529 -200 b 256 -85 326 -200 257 -169 l 342 -77 b 424 -129 349 -117 380 -129 b 506 -64 476 -129 506 -110 b 425 -1 506 -26 481 -1 b 345 -28 395 -1 365 -10 l 265 -18 l 296 191 "},"₆":{"ha":861,"x_min":0,"x_max":0,"o":"m 442 197 b 593 89 534 197 587 162 l 510 81 b 440 128 505 115 482 128 b 353 2 385 128 356 100 b 471 39 381 22 419 39 b 603 -72 545 39 603 12 b 435 -200 603 -160 537 -200 b 259 -1 333 -200 259 -152 b 442 197 259 147 333 197 m 356 -45 b 435 -129 363 -110 392 -129 b 513 -72 483 -129 513 -110 b 445 -20 513 -37 487 -20 b 356 -45 410 -20 379 -31 "},"₇":{"ha":861,"x_min":0,"x_max":0,"o":"m 593 189 l 593 139 l 441 -197 l 349 -197 l 492 115 l 274 115 l 274 189 "},"₈":{"ha":861,"x_min":0,"x_max":0,"o":"m 431 197 b 591 94 524 198 591 161 b 523 8 591 50 560 24 b 604 -86 569 -12 604 -41 b 429 -200 604 -163 542 -200 b 256 -92 313 -200 256 -166 b 337 -1 256 -47 290 -19 b 270 90 297 20 270 51 b 431 197 270 160 335 197 m 344 -83 b 433 -132 344 -123 389 -132 b 510 -88 482 -132 510 -115 b 399 -25 510 -59 461 -42 b 344 -83 371 -37 344 -52 m 358 90 b 446 33 358 67 390 48 b 510 88 476 42 510 55 b 428 131 510 119 477 131 b 358 90 384 131 358 121 "},"₉":{"ha":861,"x_min":0,"x_max":0,"o":"m 420 -200 b 269 -92 328 -200 275 -165 l 352 -83 b 422 -131 357 -117 379 -131 b 508 -6 476 -131 506 -103 b 392 -42 481 -26 443 -42 b 259 69 317 -42 259 -15 b 427 197 259 157 325 197 b 603 -2 528 197 603 149 b 420 -200 603 -150 529 -200 m 349 69 b 417 17 349 33 375 17 b 507 42 452 17 483 28 b 426 126 499 107 470 126 b 349 69 379 126 349 107 "},"⁰":{"ha":861,"x_min":0,"x_max":0,"o":"m 607 957 b 431 758 607 822 543 758 b 254 957 319 758 254 822 b 431 1156 254 1099 319 1156 b 607 957 543 1156 607 1099 m 513 957 b 431 1080 513 1050 489 1080 b 349 957 373 1080 349 1050 b 431 833 349 863 373 833 b 513 957 489 833 513 863 m 431 913 b 469 954 456 913 469 928 b 431 995 469 981 456 995 b 392 954 406 995 392 980 b 431 913 392 929 406 913 "},"¹":{"ha":861,"x_min":0,"x_max":0,"o":"m 296 1094 b 395 1149 329 1094 385 1114 l 486 1149 l 486 837 l 595 837 l 595 764 l 285 764 l 285 837 l 395 837 l 395 1043 b 296 1003 366 1019 331 1003 l 296 1094 "},"²":{"ha":861,"x_min":0,"x_max":0,"o":"m 415 1156 b 572 1046 507 1156 572 1123 b 434 905 572 960 492 931 b 344 837 375 878 350 864 l 583 837 l 583 764 l 258 764 l 258 837 b 395 967 258 901 319 933 b 481 1041 438 987 481 1001 b 418 1087 481 1074 459 1087 b 341 1028 371 1087 345 1072 l 258 1036 b 415 1156 255 1110 314 1156 "},"³":{"ha":861,"x_min":0,"x_max":0,"o":"m 421 1156 b 578 1050 520 1156 578 1120 b 505 958 578 999 545 972 b 588 872 552 949 588 926 b 419 758 588 790 520 758 b 249 873 314 758 250 787 l 333 882 b 419 828 341 843 366 828 b 496 875 475 828 496 846 b 392 924 496 907 465 924 l 374 924 l 374 983 l 393 983 b 491 1041 460 983 491 1005 b 419 1087 491 1073 465 1087 b 342 1031 374 1087 349 1074 l 261 1039 b 421 1156 261 1113 315 1156 "},"⁴":{"ha":861,"x_min":0,"x_max":0,"o":"m 458 764 l 458 851 l 251 851 l 251 924 l 451 1149 l 546 1149 l 546 924 l 599 924 l 599 851 l 546 851 l 546 764 m 458 917 l 458 1047 l 338 917 "},"⁵":{"ha":861,"x_min":0,"x_max":0,"o":"m 572 1149 l 572 1076 l 367 1076 l 352 994 b 448 1013 378 1006 408 1013 b 595 893 539 1013 595 974 b 424 758 595 800 529 758 b 256 873 326 758 257 789 l 342 881 b 424 829 349 842 380 829 b 506 894 476 829 506 848 b 425 958 506 933 481 958 b 345 931 395 958 365 948 l 265 940 l 296 1149 "},"⁶":{"ha":861,"x_min":0,"x_max":0,"o":"m 442 1156 b 593 1047 534 1156 587 1120 l 510 1039 b 440 1087 505 1074 482 1087 b 353 960 385 1087 356 1058 b 471 997 381 981 419 997 b 603 886 545 997 603 970 b 435 758 603 798 537 758 b 259 958 333 758 259 806 b 442 1156 259 1106 333 1156 m 356 913 b 435 829 363 848 392 829 b 513 887 483 829 513 849 b 445 938 513 922 487 938 b 356 913 410 938 379 927 "},"⁷":{"ha":861,"x_min":0,"x_max":0,"o":"m 593 1147 l 593 1097 l 441 762 l 349 762 l 492 1074 l 274 1074 l 274 1147 "},"⁸":{"ha":861,"x_min":0,"x_max":0,"o":"m 431 1156 b 591 1052 524 1156 591 1119 b 523 966 591 1008 560 982 b 604 872 569 946 604 917 b 429 758 604 795 542 758 b 256 866 313 758 256 792 b 337 957 256 912 290 939 b 270 1049 297 978 270 1010 b 431 1156 270 1119 335 1156 m 344 876 b 433 826 344 835 389 826 b 510 870 482 826 510 844 b 399 933 510 899 461 916 b 344 876 371 922 344 906 m 358 1049 b 446 991 358 1025 390 1006 b 510 1046 476 1001 510 1013 b 428 1090 510 1077 477 1090 b 358 1049 384 1090 358 1079 "},"⁹":{"ha":861,"x_min":0,"x_max":0,"o":"m 420 758 b 269 867 328 758 275 794 l 352 875 b 422 827 357 841 379 827 b 508 952 476 827 506 855 b 392 916 481 933 443 916 b 259 1028 317 916 259 944 b 427 1156 259 1115 325 1156 b 603 956 528 1156 603 1107 b 420 758 603 808 529 758 m 349 1027 b 417 975 349 992 375 975 b 507 1001 452 975 483 987 b 426 1085 499 1065 470 1085 b 349 1027 379 1085 349 1065 "}," ":{"ha":861,"x_min":0,"x_max":0,"o":""}," ":{"ha":861,"x_min":0,"x_max":0,"o":""},"⁤":{"ha":861,"x_min":0,"x_max":0,"o":""},"⁣":{"ha":861,"x_min":0,"x_max":0,"o":""},"⁢":{"ha":861,"x_min":0,"x_max":0,"o":""},"⟦":{"ha":861,"x_min":0,"x_max":0,"o":"m 227 1113 l 703 1113 l 703 1043 l 506 1043 l 506 -208 l 703 -208 l 703 -278 l 227 -278 m 419 -208 l 419 1043 l 315 1043 l 315 -208 "},"⟧":{"ha":861,"x_min":0,"x_max":0,"o":"m 634 1113 l 158 1113 l 158 1043 l 442 1043 l 442 1067 l 355 1067 l 355 -233 l 442 -233 l 442 -208 l 158 -208 l 158 -278 l 634 -278 m 442 1043 l 547 1043 l 547 -208 l 442 -208 "},"⟨":{"ha":861,"x_min":0,"x_max":0,"o":"m 343 418 l 681 -226 l 547 -290 l 181 418 l 547 1126 l 681 1062 "},"⟩":{"ha":861,"x_min":0,"x_max":0,"o":"m 314 1126 l 680 418 l 314 -290 l 181 -226 l 519 418 l 181 1062 "},"⟪":{"ha":861,"x_min":0,"x_max":0,"o":"m 210 417 l 538 -278 l 394 -278 l 66 417 l 394 1113 l 538 1113 m 468 417 l 795 -278 l 652 -278 l 324 417 l 652 1113 l 795 1113 "},"⟫":{"ha":861,"x_min":0,"x_max":0,"o":"m 467 1113 l 795 417 l 467 -278 l 324 -278 l 651 417 l 324 1113 m 210 1113 l 538 417 l 210 -278 l 66 -278 l 393 417 l 66 1113 "},".":{"ha":858,"x_min":0,"x_max":0,"o":"m 428 -25 b 292 109 353 -25 292 26 b 428 242 292 193 353 242 b 566 109 505 242 566 193 b 428 -25 566 26 505 -25 "},",":{"ha":861,"x_min":0,"x_max":0,"o":"m 431 -26 b 291 109 350 -26 291 26 b 430 242 291 193 351 242 b 583 62 515 242 583 186 b 349 -316 583 -97 471 -229 l 274 -255 b 463 -23 369 -181 438 -106 b 431 -26 452 -25 442 -26 "},":":{"ha":861,"x_min":0,"x_max":0,"o":"m 433 -21 b 296 113 358 -21 296 30 b 433 247 296 197 358 247 b 571 113 509 247 571 197 b 433 -21 571 30 509 -21 m 433 518 b 296 652 358 518 296 569 b 433 785 296 736 358 785 b 571 652 509 785 571 736 b 433 518 571 569 509 518 "},";":{"ha":861,"x_min":0,"x_max":0,"o":"m 431 -26 b 291 109 350 -26 291 26 b 430 242 291 193 351 242 b 583 62 515 242 583 186 b 349 -316 583 -97 471 -229 l 274 -255 b 463 -23 369 -181 438 -106 b 431 -26 452 -25 442 -26 m 432 518 b 294 652 356 518 294 569 b 432 785 294 736 356 785 b 569 652 508 785 569 736 b 432 518 569 569 508 518 "},"…":{"ha":861,"x_min":0,"x_max":0,"o":"m 150 -17 b 51 82 95 -17 51 20 b 150 181 51 144 95 181 b 249 82 205 181 249 144 b 150 -17 249 20 205 -17 m 433 -17 b 333 82 377 -17 333 20 b 433 181 333 144 377 181 b 531 82 487 181 531 144 b 433 -17 531 20 487 -17 m 715 -17 b 615 82 660 -17 615 20 b 715 181 615 144 660 181 b 814 82 769 181 814 144 b 715 -17 814 20 769 -17 "},"!":{"ha":861,"x_min":0,"x_max":0,"o":"m 365 415 l 349 1014 l 513 1014 l 497 415 m 433 -18 b 315 95 367 -18 315 25 b 433 207 315 166 367 207 b 551 95 498 207 551 166 b 433 -18 551 25 498 -18 "},"¡":{"ha":861,"x_min":0,"x_max":0,"o":"m 496 309 l 512 -291 l 349 -291 l 364 309 m 428 741 b 547 628 493 741 547 698 b 428 516 547 557 493 516 b 310 628 363 516 310 557 b 428 741 310 698 363 741 "},"?":{"ha":861,"x_min":0,"x_max":0,"o":"m 433 -18 b 315 95 367 -18 315 25 b 433 207 315 166 367 207 b 551 95 498 207 551 166 b 433 -18 551 25 498 -18 m 86 746 b 415 1031 88 942 220 1031 b 732 765 605 1031 732 944 b 499 504 732 594 617 531 l 497 397 l 365 397 l 361 556 b 574 756 488 587 574 632 b 413 902 574 860 514 902 b 234 732 306 902 244 853 l 86 746 "},"¿":{"ha":861,"x_min":0,"x_max":0,"o":"m 428 741 b 547 628 493 741 547 698 b 428 516 547 557 493 516 b 310 628 363 516 310 557 b 428 741 310 698 363 741 m 129 -41 b 362 219 129 129 244 193 l 364 326 l 496 326 l 500 168 b 287 -33 373 137 287 91 b 448 -179 287 -137 347 -179 b 627 -8 556 -179 617 -131 l 775 -23 b 447 -307 774 -219 641 -307 b 129 -41 256 -307 129 -220 "},"·":{"ha":861,"x_min":0,"x_max":0,"o":"m 431 324 b 293 458 355 324 293 375 b 431 592 293 542 355 592 b 568 458 507 592 568 542 b 431 324 568 375 507 324 "},"•":{"ha":861,"x_min":0,"x_max":0,"o":"m 434 272 b 242 458 328 272 242 342 b 434 644 242 576 328 644 b 625 458 540 644 625 576 b 434 272 625 342 540 272 "},"*":{"ha":861,"x_min":0,"x_max":0,"o":"m 110 644 l 371 542 l 353 822 l 509 822 l 491 542 l 751 644 l 800 497 l 528 428 l 708 212 l 582 120 l 431 360 l 279 120 l 153 212 l 333 428 l 62 497 "},"﹡":{"ha":861,"x_min":0,"x_max":0,"o":"m 266 574 l 386 511 l 369 649 l 493 649 l 475 511 l 596 574 l 633 457 l 501 428 l 594 336 l 495 262 l 431 376 l 367 262 l 268 336 l 360 429 l 228 457 "},"⁅":{"ha":861,"x_min":0,"x_max":0,"o":"m 238 1113 l 703 1113 l 703 994 l 389 994 l 389 476 l 703 476 l 703 358 l 389 358 l 389 -160 l 703 -160 l 703 -278 l 238 -278 "},"⁆":{"ha":861,"x_min":0,"x_max":0,"o":"m 473 476 l 473 358 l 550 358 l 550 476 m 624 1113 l 158 1113 l 158 994 l 473 994 l 473 476 l 158 476 l 158 358 l 473 358 l 473 -160 l 158 -160 l 158 -278 l 624 -278 "},"⁀":{"ha":861,"x_min":0,"x_max":0,"o":"m 13 1117 b 431 1253 117 1202 251 1253 b 849 1117 611 1253 745 1202 l 904 1178 b 431 1378 792 1299 639 1378 b -43 1178 223 1378 69 1299 l 13 1117 "},"‖":{"ha":861,"x_min":0,"x_max":0,"o":"m 206 -278 l 206 1113 l 344 1113 l 344 -278 m 517 -278 l 517 1113 l 656 1113 l 656 -278 "},"⁉":{"ha":861,"x_min":0,"x_max":0,"o":"m 76 415 l 61 1014 l 224 1014 l 209 415 m 144 -18 b 26 95 79 -18 26 25 b 144 207 26 166 79 207 b 263 95 210 207 263 166 b 144 -18 263 25 210 -18 m 588 -18 b 469 95 523 -18 469 25 b 588 207 469 166 523 207 b 706 95 653 207 706 166 b 588 -18 706 25 653 -18 m 309 746 b 570 1031 310 942 416 1031 b 832 771 736 1031 832 944 b 655 509 832 613 745 540 l 653 397 l 520 397 l 517 556 b 678 763 616 587 678 646 b 570 902 678 861 641 902 b 453 732 498 902 460 860 l 309 746 "},"‼":{"ha":861,"x_min":0,"x_max":0,"o":"m 148 415 l 133 1014 l 295 1014 l 281 415 m 216 -18 b 97 95 151 -18 97 25 b 216 207 97 166 151 207 b 334 95 281 207 334 166 b 216 -18 334 25 281 -18 m 578 415 l 563 1014 l 725 1014 l 710 415 m 646 -18 b 527 95 581 -18 527 25 b 646 207 527 166 581 207 b 764 95 711 207 764 166 b 646 -18 764 25 711 -18 "},"‽":{"ha":861,"x_min":0,"x_max":0,"o":"m 365 397 l 354 776 l 508 776 l 503 599 b 588 751 556 627 588 672 b 422 902 588 857 533 902 b 229 732 300 902 245 851 l 83 746 b 423 1031 90 938 220 1031 b 746 763 617 1031 746 944 b 500 503 746 589 622 528 l 497 397 m 433 -18 b 315 95 367 -18 315 25 b 433 207 315 166 367 207 b 551 95 498 207 551 166 b 433 -18 551 25 498 -18 "},"⸘":{"ha":861,"x_min":0,"x_max":0,"o":"m 496 326 l 507 -53 l 353 -53 l 358 124 b 274 -28 305 96 274 52 b 440 -179 274 -134 328 -179 b 632 -8 561 -179 616 -128 l 778 -23 b 438 -307 772 -215 641 -307 b 115 -40 244 -307 115 -220 b 361 221 115 134 240 196 l 364 326 m 428 741 b 547 628 493 741 547 698 b 428 516 547 557 493 516 b 310 628 363 516 310 557 b 428 741 310 698 363 741 "},"#":{"ha":861,"x_min":0,"x_max":0,"o":"m 142 -139 l 172 152 l 44 152 l 44 285 l 185 285 l 217 591 l 88 591 l 88 723 l 231 723 l 260 1014 l 394 1014 l 365 723 l 555 723 l 585 1014 l 719 1014 l 690 723 l 818 723 l 818 591 l 676 591 l 644 285 l 774 285 l 774 152 l 631 152 l 601 -139 l 467 -139 l 497 152 l 306 152 l 276 -139 m 510 285 l 542 591 l 351 591 l 319 285 "},"․":{"ha":861,"x_min":0,"x_max":0,"o":"m 431 -25 b 293 109 355 -25 293 26 b 431 242 293 193 355 242 b 568 109 507 242 568 193 b 431 -25 568 26 507 -25 "},"‾":{"ha":861,"x_min":0,"x_max":0,"o":"m 63 1222 l 799 1222 l 799 1313 l 63 1313 "},"⁇":{"ha":861,"x_min":0,"x_max":0,"o":"m 227 -18 b 125 95 166 -18 125 25 b 227 208 125 166 166 208 b 328 95 288 208 328 166 b 227 -18 328 25 288 -18 m 658 -18 b 556 95 597 -18 556 25 b 658 208 556 166 597 208 b 759 95 718 208 759 166 b 658 -18 759 25 718 -18 m 27 746 b 215 1031 19 949 90 1031 b 405 783 349 1031 405 949 b 290 540 405 649 357 578 l 287 397 l 164 397 l 160 563 b 279 775 242 603 279 665 b 212 915 279 880 265 915 b 144 732 158 915 141 874 l 27 746 m 458 746 b 646 1031 450 949 520 1031 b 835 783 779 1031 835 949 b 720 540 835 649 788 578 l 717 397 l 594 397 l 591 563 b 710 775 672 603 710 665 b 642 915 710 880 696 915 b 574 732 588 915 572 874 l 458 746 "},"⁈":{"ha":861,"x_min":0,"x_max":0,"o":"m 649 415 l 634 1014 l 797 1014 l 782 415 m 717 -18 b 599 95 652 -18 599 25 b 717 207 599 166 652 207 b 835 95 783 207 835 166 b 717 -18 835 25 783 -18 m 297 -18 b 178 95 232 -18 178 25 b 297 207 178 166 232 207 b 415 95 363 207 415 166 b 297 -18 415 25 363 -18 m 18 746 b 279 1031 19 942 125 1031 b 541 771 445 1031 541 944 b 364 509 541 613 454 540 l 362 397 l 229 397 l 226 556 b 387 763 325 587 387 646 b 279 902 387 861 350 902 b 163 732 207 902 169 860 l 18 746 "},"/":{"ha":861,"x_min":0,"x_max":0,"o":"m 103 -139 l 565 1014 l 729 1014 l 267 -139 "},"\\":{"ha":861,"x_min":0,"x_max":0,"o":"m 132 1014 l 297 1014 l 759 -139 l 594 -139 "},"‣":{"ha":861,"x_min":0,"x_max":0,"o":"m 669 458 l 243 214 l 243 701 "},"‿":{"ha":861,"x_min":0,"x_max":0,"o":"m 13 -54 b 431 -191 117 -139 251 -191 b 849 -54 611 -191 745 -139 l 904 -115 b 431 -316 792 -237 639 -316 b -43 -115 223 -316 69 -237 l 13 -54 "},"-":{"ha":861,"x_min":0,"x_max":0,"o":"m 208 524 l 653 524 l 653 392 l 208 392 "},"­":{"ha":861,"x_min":0,"x_max":0,"o":"m 208 524 l 653 524 l 653 392 l 208 392 "},"–":{"ha":861,"x_min":0,"x_max":0,"o":"m 111 524 l 750 524 l 750 392 l 111 392 "},"—":{"ha":861,"x_min":0,"x_max":0,"o":"m 14 524 l 847 524 l 847 392 l 14 392 "},"‒":{"ha":861,"x_min":0,"x_max":0,"o":"m 208 524 l 653 524 l 653 392 l 208 392 "},"―":{"ha":861,"x_min":0,"x_max":0,"o":"m -7 524 l 868 524 l 868 392 l -7 392 "},"‐":{"ha":861,"x_min":0,"x_max":0,"o":"m 208 524 l 653 524 l 653 392 l 208 392 "},"_":{"ha":861,"x_min":0,"x_max":0,"o":"m 63 -160 l 799 -160 l 799 -250 l 63 -250 "},"‗":{"ha":861,"x_min":0,"x_max":0,"o":"m 63 -139 l 799 -139 l 799 -222 l 63 -222 m 63 -326 l 799 -326 l 799 -410 l 63 -410 "},"₍":{"ha":861,"x_min":0,"x_max":0,"o":"m 474 0 b 619 -278 474 -129 537 -202 l 522 -278 b 368 0 459 -232 368 -151 b 522 278 368 152 459 233 l 619 278 b 474 0 534 201 474 127 "},"₎":{"ha":861,"x_min":0,"x_max":0,"o":"m 388 0 b 242 -278 388 -129 325 -202 l 339 -278 b 493 0 403 -232 493 -151 b 339 278 493 152 403 233 l 242 278 b 388 0 328 201 388 127 "},"(":{"ha":861,"x_min":0,"x_max":0,"o":"m 395 417 b 739 -278 395 73 552 -110 l 596 -278 b 242 417 429 -149 242 49 b 596 1113 242 785 429 983 l 739 1113 b 395 417 552 946 395 762 "},")":{"ha":861,"x_min":0,"x_max":0,"o":"m 467 417 b 122 1113 467 762 310 946 l 266 1113 b 620 417 432 983 620 786 b 266 -278 620 50 432 -149 l 122 -278 b 467 417 310 -110 467 73 "},"{":{"ha":861,"x_min":0,"x_max":0,"o":"m 88 491 b 360 756 331 495 405 581 l 348 803 b 582 1113 297 1003 379 1113 l 774 1113 l 774 995 l 643 995 b 503 777 522 995 467 944 l 515 728 b 297 418 553 554 475 447 b 515 108 475 389 553 281 l 503 58 b 643 -160 467 -108 522 -160 l 774 -160 l 774 -278 l 582 -278 b 348 32 379 -278 297 -168 l 360 80 b 88 344 405 253 331 340 "},"}":{"ha":861,"x_min":0,"x_max":0,"o":"m 88 -160 l 219 -160 b 358 58 340 -160 394 -108 l 347 108 b 565 417 309 281 387 389 b 347 728 386 447 308 554 l 358 777 b 219 995 394 944 340 995 l 88 995 l 88 1113 l 279 1113 b 513 803 483 1113 565 1003 l 501 756 b 774 491 457 581 530 495 l 774 344 b 501 80 530 340 456 253 l 513 32 b 279 -278 565 -168 483 -278 l 88 -278 "},"[":{"ha":861,"x_min":0,"x_max":0,"o":"m 238 1113 l 703 1113 l 703 994 l 389 994 l 389 -160 l 703 -160 l 703 -278 l 238 -278 "},"]":{"ha":861,"x_min":0,"x_max":0,"o":"m 158 -278 l 158 -160 l 473 -160 l 473 994 l 158 994 l 158 1113 l 624 1113 l 624 -278 "},"〈":{"ha":861,"x_min":0,"x_max":0,"o":"m 489 418 l 826 -226 l 694 -290 l 328 418 l 694 1126 l 826 1062 "},"〉":{"ha":861,"x_min":0,"x_max":0,"o":"m 372 418 l 35 -226 l 168 -290 l 534 418 l 401 472 l 372 418 l 401 364 l 534 418 l 168 1126 l 35 1062 "},"｛":{"ha":861,"x_min":0,"x_max":0,"o":"m 88 491 b 360 756 331 495 405 581 l 348 803 b 582 1113 297 1003 379 1113 l 774 1113 l 774 995 l 643 995 b 503 777 522 995 467 944 l 515 728 b 297 418 553 554 475 447 b 515 108 475 389 553 281 l 503 58 b 643 -160 467 -108 522 -160 l 774 -160 l 774 -278 l 582 -278 b 348 32 379 -278 297 -168 l 360 80 b 88 344 405 253 331 340 "},"｝":{"ha":861,"x_min":0,"x_max":0,"o":"m 88 -160 l 219 -160 b 358 58 340 -160 394 -108 l 347 108 b 565 417 309 281 387 389 b 347 728 386 447 308 554 l 358 777 b 219 995 394 944 340 995 l 88 995 l 88 1113 l 279 1113 b 513 803 483 1113 565 1003 l 501 756 b 774 491 457 581 530 495 l 774 344 b 501 80 530 340 456 253 l 513 32 b 279 -278 565 -168 483 -278 l 88 -278 "},"❰":{"ha":861,"x_min":0,"x_max":0,"o":"m 506 417 l 817 -278 l 356 -278 l 45 417 l 356 1113 l 817 1113 "},"❮":{"ha":861,"x_min":0,"x_max":0,"o":"m 427 374 l 707 -136 l 435 -136 l 154 374 l 435 885 l 707 885 "},"❱":{"ha":861,"x_min":0,"x_max":0,"o":"m 505 1113 l 816 417 l 505 -278 l 44 -278 l 355 417 l 44 1113 "},"❯":{"ha":861,"x_min":0,"x_max":0,"o":"m 426 885 l 707 374 l 426 -136 l 154 -136 l 434 374 l 154 885 "},"⌈":{"ha":861,"x_min":0,"x_max":0,"o":"m 238 1113 l 703 1113 l 703 994 l 389 994 l 389 -278 l 238 -278 "},"⌊":{"ha":861,"x_min":0,"x_max":0,"o":"m 238 -278 l 703 -278 l 703 -160 l 389 -160 l 389 1113 l 238 1113 "},"⦑":{"ha":861,"x_min":0,"x_max":0,"o":"m 610 319 b 513 418 557 319 513 357 b 610 517 513 481 557 517 b 708 418 664 517 708 481 b 610 319 708 357 664 319 m 343 418 l 681 -226 l 547 -290 l 181 418 l 547 1126 l 681 1062 "},"⦃":{"ha":861,"x_min":0,"x_max":0,"o":"m 797 -278 l 552 -278 b 318 32 349 -278 267 -168 l 331 80 b 57 344 375 253 301 340 l 57 491 b 331 756 301 495 374 581 l 318 803 b 552 1113 267 1003 349 1113 l 797 1113 m 606 995 b 474 777 492 995 437 944 l 485 728 b 266 417 523 554 445 447 b 485 108 444 389 522 281 l 474 58 b 606 -160 437 -108 492 -160 l 648 -160 l 648 995 l 606 995 "},"⌉":{"ha":861,"x_min":0,"x_max":0,"o":"m 624 1113 l 158 1113 l 158 994 l 473 994 l 473 -278 l 624 -278 "},"⌋":{"ha":861,"x_min":0,"x_max":0,"o":"m 624 -278 l 158 -278 l 158 -160 l 473 -160 l 473 1113 l 624 1113 "},"⦒":{"ha":861,"x_min":0,"x_max":0,"o":"m 251 319 b 349 418 305 319 349 357 b 251 517 349 481 305 517 b 153 418 197 517 153 481 b 251 319 153 357 197 319 m 519 418 l 181 -226 l 314 -290 l 680 418 l 547 472 l 519 418 l 547 364 l 680 418 l 314 1126 l 181 1062 "},"⦄":{"ha":861,"x_min":0,"x_max":0,"o":"m 310 1113 b 544 803 513 1113 594 1003 l 531 756 b 804 491 487 581 560 495 l 804 344 b 531 80 560 340 487 253 l 544 32 b 310 -278 595 -168 513 -278 l 64 -278 l 64 1113 l 310 1113 m 256 -160 b 388 58 370 -160 424 -108 l 377 108 b 595 418 339 281 417 389 b 377 728 417 447 339 554 l 388 777 b 256 995 425 944 370 995 l 213 995 l 213 -160 "},"⁽":{"ha":861,"x_min":0,"x_max":0,"o":"m 474 958 b 619 681 474 829 537 756 l 522 681 b 368 958 459 726 368 807 b 522 1237 368 1110 459 1191 l 619 1237 b 474 958 534 1159 474 1085 "},"⁾":{"ha":861,"x_min":0,"x_max":0,"o":"m 388 958 b 242 681 388 829 325 756 l 339 681 b 493 958 403 726 493 807 b 339 1237 493 1110 403 1191 l 242 1237 b 388 958 328 1159 388 1085 "},"⦉":{"ha":861,"x_min":0,"x_max":0,"o":"m 516 -278 l 94 417 l 516 1113 l 692 1113 l 692 -278 m 542 -34 l 542 869 l 269 418 "},"⦇":{"ha":861,"x_min":0,"x_max":0,"o":"m 523 -278 b 169 417 356 -149 169 49 b 523 1113 169 785 356 983 l 697 1113 l 697 -278 l 523 -278 m 322 417 b 548 -161 322 148 418 -22 l 548 996 b 322 417 418 856 322 687 "},"⦊":{"ha":861,"x_min":0,"x_max":0,"o":"m 170 1113 l 345 1113 l 767 417 l 345 -278 l 170 -278 m 592 418 l 319 868 l 319 -33 "},"⦈":{"ha":861,"x_min":0,"x_max":0,"o":"m 339 -278 b 693 417 505 -149 693 49 b 339 1113 693 785 505 983 l 165 1113 l 165 -278 l 339 -278 m 540 417 b 314 -161 540 148 443 -22 l 314 996 b 540 417 443 856 540 687 "},"‚":{"ha":861,"x_min":0,"x_max":0,"o":"m 431 -26 b 291 109 350 -26 291 26 b 430 242 291 193 351 242 b 583 62 515 242 583 186 b 349 -316 583 -97 471 -229 l 274 -255 b 463 -23 369 -181 438 -106 b 431 -26 452 -25 442 -26 "},"„":{"ha":861,"x_min":0,"x_max":0,"o":"m 248 -26 b 108 109 167 -26 108 26 b 247 242 108 193 167 242 b 399 62 331 242 399 186 b 166 -316 399 -97 288 -229 l 90 -255 b 279 -23 186 -181 254 -106 b 248 -26 269 -25 258 -26 m 627 -26 b 487 109 546 -26 487 26 b 626 242 487 193 547 242 b 778 62 710 242 778 186 b 545 -316 778 -97 667 -229 l 469 -255 b 658 -23 565 -181 633 -106 b 627 -26 648 -25 638 -26 "},"“":{"ha":861,"x_min":0,"x_max":0,"o":"m 242 747 b 382 613 323 747 382 696 b 243 480 382 529 322 480 b 90 660 158 480 90 536 b 324 1038 90 819 202 951 l 399 977 b 210 744 303 903 235 828 b 242 747 221 747 231 747 m 621 747 b 761 613 702 747 761 696 b 622 480 761 529 701 480 b 469 660 538 480 469 536 b 703 1038 469 819 581 951 l 778 977 b 590 744 683 903 614 828 b 621 747 600 747 610 747 "},"”":{"ha":861,"x_min":0,"x_max":0,"o":"m 248 763 b 108 898 167 763 108 815 b 247 1031 108 981 167 1031 b 399 850 331 1031 399 974 b 166 473 399 691 288 560 l 90 533 b 279 766 186 608 254 683 b 248 763 269 764 258 763 m 627 763 b 487 898 546 763 487 815 b 626 1031 487 981 547 1031 b 778 850 710 1031 778 974 b 545 473 778 691 667 560 l 469 533 b 658 766 565 608 633 683 b 627 763 648 764 638 763 "},"‘":{"ha":861,"x_min":0,"x_max":0,"o":"m 430 747 b 570 613 511 747 570 696 b 431 480 570 529 510 480 b 279 660 347 480 279 536 b 512 1038 279 819 390 951 l 588 977 b 399 744 492 903 424 828 b 430 747 409 747 419 747 "},"’":{"ha":861,"x_min":0,"x_max":0,"o":"m 431 763 b 291 898 350 763 291 815 b 430 1031 291 981 351 1031 b 583 850 515 1031 583 974 b 349 473 583 691 471 560 l 274 533 b 463 766 369 608 438 683 b 431 763 452 764 442 763 "},"‛":{"ha":861,"x_min":0,"x_max":0,"o":"m 430 763 b 570 898 511 763 570 815 b 431 1031 570 981 510 1031 b 279 850 347 1031 279 974 b 512 473 279 691 390 560 l 588 533 b 399 766 492 608 424 683 b 430 763 409 764 419 763 "},"‟":{"ha":861,"x_min":0,"x_max":0,"o":"m 614 763 b 754 898 695 763 754 815 b 615 1031 754 981 694 1031 b 463 850 531 1031 463 974 b 696 473 463 691 574 560 l 771 533 b 583 766 676 608 607 683 b 614 763 592 764 603 763 m 235 763 b 375 898 316 763 375 815 b 236 1031 375 981 315 1031 b 83 850 151 1031 83 974 b 317 473 83 691 195 560 l 392 533 b 203 766 297 608 228 683 b 235 763 213 764 224 763 "},"«":{"ha":861,"x_min":0,"x_max":0,"o":"m 269 1 l 42 362 l 269 724 l 406 690 l 199 366 l 406 35 m 630 -1 l 403 360 l 630 722 l 767 688 l 560 365 l 767 34 "},"»":{"ha":861,"x_min":0,"x_max":0,"o":"m 593 722 l 819 362 l 593 -1 l 455 33 l 664 357 l 455 688 m 232 724 l 458 363 l 232 1 l 94 35 l 303 358 l 94 690 "},"‹":{"ha":861,"x_min":0,"x_max":0,"o":"m 481 -17 l 215 361 l 481 740 l 611 667 l 391 365 l 611 58 "},"›":{"ha":861,"x_min":0,"x_max":0,"o":"m 381 740 l 646 363 l 380 -17 l 250 57 l 471 359 l 250 666 "},"‵":{"ha":861,"x_min":0,"x_max":0,"o":"m 585 543 l 438 1014 l 261 1014 l 458 543 "},"‴":{"ha":861,"x_min":0,"x_max":0,"o":"m 78 543 l 64 1014 l 220 1014 l 206 543 m 367 543 l 353 1014 l 509 1014 l 495 543 m 656 543 l 642 1014 l 798 1014 l 784 543 "},"\"":{"ha":861,"x_min":0,"x_max":0,"o":"m 175 543 l 161 1014 l 317 1014 l 303 543 m 559 543 l 544 1014 l 701 1014 l 687 543 "},"'":{"ha":861,"x_min":0,"x_max":0,"o":"m 367 543 l 353 1014 l 509 1014 l 495 543 "},"ƒ":{"ha":861,"x_min":0,"x_max":0,"o":"m 652 1031 b 764 1009 693 1031 729 1025 l 751 890 b 687 901 731 897 713 901 b 552 720 608 901 571 869 l 538 608 l 740 608 l 740 488 l 522 488 l 456 -30 b 209 -294 430 -237 340 -294 b 97 -273 169 -294 132 -289 l 111 -154 b 174 -165 131 -161 149 -165 b 310 16 253 -165 292 -133 l 371 488 l 167 488 l 167 608 l 386 608 l 406 766 b 652 1031 431 974 522 1031 "},"♩":{"ha":861,"x_min":0,"x_max":0,"o":"m 728 163 b 349 -187 728 -57 544 -187 b 108 26 202 -187 108 -115 b 445 319 108 201 257 319 b 591 293 497 319 544 310 l 599 294 l 599 1113 l 728 1113 l 728 163 "},"♭":{"ha":861,"x_min":0,"x_max":0,"o":"m 147 0 l 148 1 l 148 1113 l 277 1113 l 277 593 l 284 593 b 536 740 359 681 439 740 b 737 485 653 740 737 658 b 148 0 737 169 458 0 m 277 119 b 585 436 455 151 585 269 b 472 583 585 536 538 583 b 277 450 412 583 347 546 l 277 119 "},"♮":{"ha":861,"x_min":0,"x_max":0,"o":"m 538 -99 l 538 212 l 194 115 l 194 1113 l 324 1113 l 324 803 l 667 899 l 667 -99 m 538 384 l 538 691 l 324 631 l 324 324 "},"♯":{"ha":861,"x_min":0,"x_max":0,"o":"m 667 728 l 667 421 l 802 459 l 802 287 l 667 249 l 667 0 l 538 0 l 538 212 l 324 152 l 324 -99 l 194 -99 l 194 115 l 59 77 l 59 249 l 194 288 l 194 594 l 59 556 l 59 728 l 194 766 l 194 1014 l 324 1014 l 324 803 l 538 863 l 538 1113 l 667 1113 l 667 900 l 802 938 l 802 766 m 538 384 l 538 691 l 324 631 l 324 324 "},"฿":{"ha":861,"x_min":0,"x_max":0,"o":"m 119 1014 l 376 1014 l 376 1233 l 451 1233 l 451 1014 b 749 796 631 1012 749 954 b 529 542 749 633 627 556 l 529 536 b 803 294 653 528 803 476 b 451 0 803 116 669 7 l 451 -219 l 376 -219 l 376 0 l 119 0 m 376 118 l 376 472 l 277 472 l 277 118 m 376 585 l 376 896 l 277 896 l 277 585 m 451 121 b 641 297 572 133 641 184 b 451 469 641 417 565 459 l 451 121 m 451 592 b 590 758 542 610 590 670 b 451 892 590 833 549 880 l 451 592 "},"⌶":{"ha":861,"x_min":0,"x_max":0,"o":"m 774 594 l 502 594 l 502 133 l 774 133 l 774 0 l 87 0 l 87 133 l 360 133 l 360 594 l 87 594 l 87 726 l 774 726 "},"⍀":{"ha":861,"x_min":0,"x_max":0,"o":"m 381 392 l 165 392 l 165 524 l 328 524 l 132 1014 l 297 1014 l 493 524 l 709 524 l 709 392 l 547 392 l 759 -139 l 594 -139 "},"⍉":{"ha":861,"x_min":0,"x_max":0,"o":"m 431 120 b 47 507 219 120 47 273 b 431 894 47 742 219 894 b 815 507 642 894 815 742 b 431 120 815 273 642 120 m 431 219 b 593 266 491 219 547 236 l 190 669 b 145 507 162 624 145 569 b 431 219 145 334 272 219 m 672 346 b 716 507 700 390 716 445 b 431 794 716 681 590 794 b 269 748 371 794 315 778 "},"⍥":{"ha":861,"x_min":0,"x_max":0,"o":"m 431 120 b 47 507 219 120 47 273 b 431 894 47 742 219 894 b 815 507 642 894 815 742 b 431 120 815 273 642 120 m 431 219 b 716 507 590 219 716 334 b 431 794 716 681 590 794 b 145 507 272 794 145 681 b 431 219 145 334 272 219 m 248 1020 b 156 1107 194 1020 156 1053 b 248 1193 156 1160 194 1193 b 340 1107 303 1193 340 1160 b 248 1020 340 1053 303 1020 m 614 1020 b 522 1107 560 1020 522 1053 b 614 1193 522 1160 560 1193 b 706 1107 669 1193 706 1160 b 614 1020 706 1053 669 1020 "},"⌾":{"ha":861,"x_min":0,"x_max":0,"o":"m 431 117 b 48 505 220 117 48 270 b 431 892 48 739 220 892 b 815 505 643 892 815 739 b 431 117 815 270 643 117 m 431 217 b 717 505 590 217 717 331 b 431 792 717 678 590 792 b 146 505 273 792 146 678 b 431 217 146 331 273 217 m 431 328 b 250 508 325 328 250 403 b 431 686 250 613 325 686 b 611 508 537 686 611 613 b 431 328 611 403 537 328 m 431 424 b 510 508 480 424 510 459 b 431 590 510 556 480 590 b 352 508 381 590 352 556 b 431 424 352 459 381 424 "},"⍟":{"ha":861,"x_min":0,"x_max":0,"o":"m 431 120 b 47 507 219 120 47 273 b 431 894 47 742 219 894 b 815 507 642 894 815 742 b 431 120 815 273 642 120 m 431 219 b 716 507 590 219 716 334 b 431 794 716 681 590 794 b 145 507 272 794 145 681 b 431 219 145 334 272 219 m 266 625 l 386 562 l 369 699 l 493 699 l 475 562 l 596 625 l 633 508 l 501 479 l 594 386 l 495 312 l 431 426 l 367 312 l 268 386 l 360 479 l 228 508 "},"⌽":{"ha":861,"x_min":0,"x_max":0,"o":"m 491 890 b 815 507 674 864 815 719 b 491 124 815 296 674 151 l 491 -99 l 371 -99 l 371 124 b 47 507 188 150 47 295 b 371 890 47 719 188 865 l 371 1113 l 491 1113 m 145 507 b 371 225 145 356 242 250 l 371 789 b 145 507 242 764 145 658 m 491 225 b 716 507 620 251 716 357 b 491 789 716 658 620 764 l 491 225 "},"⍜":{"ha":861,"x_min":0,"x_max":0,"o":"m 431 120 b 47 507 219 120 47 273 b 431 894 47 742 219 894 b 815 507 642 894 815 742 b 431 120 815 273 642 120 m 431 219 b 716 507 590 219 716 334 b 431 794 716 681 590 794 b 145 507 272 794 145 681 b 431 219 145 334 272 219 m 781 0 l 781 -125 l 80 -125 l 80 0 "},"⍪":{"ha":861,"x_min":0,"x_max":0,"o":"m 435 -26 b 294 109 353 -26 294 26 b 433 242 294 193 355 242 b 586 62 518 242 586 186 b 353 -316 586 -97 474 -229 l 278 -255 b 466 -23 373 -181 442 -106 b 435 -26 456 -25 445 -26 m 707 524 l 707 399 l 154 399 l 154 524 "},"⍢":{"ha":861,"x_min":0,"x_max":0,"o":"m 792 841 l 482 0 l 378 0 l 69 841 l 69 875 l 792 875 m 248 1021 b 156 1108 194 1021 156 1054 b 248 1194 156 1162 194 1194 b 340 1108 303 1194 340 1162 b 248 1021 340 1054 303 1021 m 614 1021 b 522 1108 560 1021 522 1054 b 614 1194 522 1162 560 1194 b 706 1108 669 1194 706 1162 b 614 1021 706 1054 669 1021 m 426 245 l 437 245 l 609 750 l 256 750 "},"⍒":{"ha":861,"x_min":0,"x_max":0,"o":"m 510 1113 l 510 875 l 810 875 l 810 841 l 510 56 l 510 -278 l 352 -278 l 352 54 l 52 841 l 53 875 l 352 875 l 352 1113 m 369 358 l 369 750 l 231 750 m 636 750 l 496 750 l 496 360 "},"⍋":{"ha":861,"x_min":0,"x_max":0,"o":"m 352 -278 l 352 0 l 52 0 l 52 35 l 352 821 l 352 1113 l 510 1113 l 510 821 l 810 35 l 810 0 l 510 0 l 510 -278 m 367 125 l 367 516 l 226 125 m 633 125 l 493 515 l 493 125 "},"⍙":{"ha":861,"x_min":0,"x_max":0,"o":"m 791 0 l 791 -125 l 69 -125 l 69 0 m 69 174 l 378 1014 l 483 1014 l 792 174 l 792 139 l 69 139 m 606 264 l 434 769 l 424 769 l 251 264 "},"⍫":{"ha":861,"x_min":0,"x_max":0,"o":"m 792 841 l 482 0 l 378 0 l 69 841 l 69 875 l 792 875 m 310 1233 b 526 1101 419 1233 458 1101 b 603 1224 567 1101 592 1147 l 707 1194 b 552 979 694 1057 635 979 b 337 1112 443 979 406 1112 b 260 989 296 1112 270 1065 l 156 1019 b 310 1233 169 1156 226 1233 m 426 245 l 437 245 l 609 750 l 256 750 "},"⍚":{"ha":861,"x_min":0,"x_max":0,"o":"m 781 0 l 781 -125 l 80 -125 l 80 0 m 431 127 l 51 507 l 431 887 l 810 507 m 431 756 l 182 507 l 431 258 l 679 507 "},"⍱":{"ha":861,"x_min":0,"x_max":0,"o":"m 203 799 l 261 672 b 531 556 361 660 444 597 l 642 799 l 788 799 l 656 522 l 665 522 b 794 628 725 522 756 551 l 874 583 b 663 406 828 467 765 406 b 603 412 642 406 622 408 l 451 94 l 389 94 l 169 545 b 97 451 142 530 122 500 l 17 497 b 122 643 44 565 78 615 l 46 799 m 418 329 l 428 329 l 486 456 b 322 539 431 485 377 518 "},"⍦":{"ha":861,"x_min":0,"x_max":0,"o":"m 371 -13 b 94 368 172 10 94 154 l 94 723 l 230 723 l 230 382 b 371 131 230 233 267 152 l 371 869 l 491 869 l 491 131 b 631 382 594 152 631 233 l 631 723 l 768 723 l 768 368 b 491 -13 768 154 690 10 l 491 -264 l 371 -264 "},"⍎":{"ha":861,"x_min":0,"x_max":0,"o":"m 87 0 l 87 133 l 360 133 l 360 222 b 184 413 256 235 184 307 b 360 606 184 519 256 592 l 360 723 l 502 723 l 502 606 b 676 413 605 592 676 518 b 502 222 676 307 605 236 l 502 133 l 774 133 l 774 0 m 281 413 b 360 314 281 358 310 324 l 360 514 b 281 413 310 503 281 468 m 502 314 b 579 413 551 325 579 359 b 502 514 579 467 551 503 l 502 314 "},"⍊":{"ha":861,"x_min":0,"x_max":0,"o":"m 774 0 l 87 0 l 87 122 l 774 122 m 774 233 l 87 233 l 87 355 l 360 355 l 360 723 l 502 723 l 502 355 l 774 355 "},"⍖":{"ha":861,"x_min":0,"x_max":0,"o":"m 748 657 l 492 657 l 492 889 l 371 889 l 371 657 l 113 657 l 113 540 l 371 540 l 371 329 l 362 325 l 253 435 l 174 356 l 431 99 l 689 356 l 610 435 l 501 325 l 492 329 l 492 657 l 371 657 l 371 540 l 748 540 "},"⍷":{"ha":861,"x_min":0,"x_max":0,"o":"m 712 -139 l 712 -264 l 149 -264 l 149 -139 m 110 362 b 499 723 110 622 261 723 l 712 723 l 712 597 l 535 597 b 271 420 381 597 290 554 l 712 420 l 712 303 l 270 303 b 535 126 290 169 381 126 l 712 126 l 712 0 l 499 0 b 110 362 261 0 110 101 "},"⍩":{"ha":861,"x_min":0,"x_max":0,"o":"m 132 126 l 591 453 l 591 462 l 132 790 l 210 897 l 743 516 l 743 400 l 210 19 m 248 1020 b 156 1107 194 1020 156 1053 b 248 1193 156 1160 194 1193 b 340 1107 303 1193 340 1160 b 248 1020 340 1053 303 1020 m 614 1020 b 522 1107 560 1020 522 1053 b 614 1193 522 1160 560 1193 b 706 1107 669 1193 706 1160 b 614 1020 706 1053 669 1020 "},"⍤":{"ha":861,"x_min":0,"x_max":0,"o":"m 431 328 b 250 508 325 328 250 403 b 431 686 250 613 325 686 b 611 508 537 686 611 613 b 431 328 611 403 537 328 m 431 424 b 510 508 480 424 510 459 b 431 590 510 556 480 590 b 352 508 381 590 352 556 b 431 424 352 459 381 424 m 248 812 b 156 899 194 812 156 845 b 248 985 156 953 194 985 b 340 899 303 985 340 953 b 248 812 340 845 303 812 m 614 812 b 522 899 560 812 522 845 b 614 985 522 953 560 985 b 706 899 669 985 706 953 b 614 812 706 845 669 812 "},"⍛":{"ha":861,"x_min":0,"x_max":0,"o":"m 431 328 b 250 508 325 328 250 403 b 431 686 250 613 325 686 b 611 508 537 686 611 613 b 431 328 611 403 537 328 m 431 424 b 510 508 480 424 510 459 b 431 590 510 556 480 590 b 352 508 381 590 352 556 b 431 424 352 459 381 424 m 707 0 l 707 -125 l 154 -125 l 154 0 "},"⍧":{"ha":861,"x_min":0,"x_max":0,"o":"m 442 2 b 110 362 238 18 110 123 b 442 721 110 600 238 705 l 442 1014 l 562 1014 l 562 723 l 712 723 l 712 598 l 562 598 l 562 125 l 712 125 l 712 0 l 562 0 l 562 -264 l 442 -264 m 267 362 b 442 132 267 215 327 151 l 442 591 b 267 362 327 572 267 508 "},"⍅":{"ha":861,"x_min":0,"x_max":0,"o":"m 538 848 l 538 567 l 767 567 l 767 447 l 538 447 l 538 167 l 417 167 l 417 447 l 230 447 l 226 438 l 342 322 l 263 243 l 0 507 l 263 772 l 342 692 l 226 576 l 230 567 l 417 567 l 417 848 "},"⎕":{"ha":861,"x_min":0,"x_max":0,"o":"m 35 1108 l 826 1108 l 826 -94 l 35 -94 m 724 0 l 724 1014 l 138 1014 l 138 0 "},"⍂":{"ha":861,"x_min":0,"x_max":0,"o":"m 35 1108 l 826 1108 l 826 -94 l 35 -94 m 595 0 l 138 967 l 138 0 m 724 49 l 724 1014 l 267 1014 "},"⌼":{"ha":861,"x_min":0,"x_max":0,"o":"m 35 1108 l 826 1108 l 826 -94 l 35 -94 m 431 120 b 138 249 313 120 208 167 l 138 0 l 724 0 l 724 249 b 431 120 653 167 548 120 m 431 219 b 716 507 590 219 716 334 b 431 794 716 681 590 794 b 145 507 272 794 145 681 b 431 219 145 334 272 219 m 138 765 b 431 894 208 847 313 894 b 724 766 548 894 653 847 l 724 1014 l 138 1014 l 138 765 "},"⍠":{"ha":861,"x_min":0,"x_max":0,"o":"m 35 1108 l 826 1108 l 826 -94 l 35 -94 m 433 148 b 310 267 366 148 310 193 b 433 386 310 342 366 386 b 556 267 501 386 556 342 b 433 148 556 193 501 148 m 433 628 b 310 748 366 628 310 674 b 433 867 310 823 366 867 b 556 748 501 867 556 823 b 433 628 556 674 501 628 m 724 0 l 724 1014 l 138 1014 l 138 0 "},"⍔":{"ha":861,"x_min":0,"x_max":0,"o":"m 826 -94 l 35 -94 l 35 1108 l 826 1108 m 378 0 l 138 654 l 138 0 m 724 875 l 724 1014 l 138 1014 l 138 875 m 426 245 l 437 245 l 609 750 l 256 750 m 724 0 l 724 656 l 482 0 "},"⍍":{"ha":861,"x_min":0,"x_max":0,"o":"m 35 1108 l 826 1108 l 826 -94 l 35 -94 m 724 0 l 724 139 l 138 139 l 138 0 m 379 1014 l 138 1014 l 138 358 m 606 264 l 435 769 l 425 769 l 252 264 m 724 360 l 724 1014 l 483 1014 "},"⌺":{"ha":861,"x_min":0,"x_max":0,"o":"m 35 1108 l 826 1108 l 826 -94 l 35 -94 m 431 756 l 182 507 l 431 258 l 679 507 m 724 0 l 724 420 l 431 127 l 138 420 l 138 0 m 431 887 l 724 594 l 724 1014 l 138 1014 l 138 594 "},"⌹":{"ha":861,"x_min":0,"x_max":0,"o":"m 35 1108 l 826 1108 l 826 -94 l 35 -94 m 431 155 b 335 244 378 155 335 188 b 431 333 335 300 378 333 b 527 244 484 333 527 300 b 431 155 527 188 484 155 m 431 682 b 335 771 378 682 335 716 b 431 860 335 827 378 860 b 527 771 484 860 527 827 b 431 682 527 716 484 682 m 724 0 l 724 441 l 138 441 l 138 0 m 724 574 l 724 1014 l 138 1014 l 138 574 "},"⍗":{"ha":861,"x_min":0,"x_max":0,"o":"m 478 0 l 385 0 l 431 -47 m 35 -94 l 826 -94 l 826 1108 l 35 1108 m 488 1014 l 488 1060 l 374 1060 l 374 171 l 365 167 l 281 253 l 206 178 l 385 0 l 138 0 l 138 1014 m 656 178 l 581 253 l 497 167 l 488 171 l 488 1014 l 724 1014 l 724 0 l 478 0 "},"⍌":{"ha":861,"x_min":0,"x_max":0,"o":"m 826 -94 l 35 -94 l 35 1108 l 826 1108 m 724 0 l 724 699 l 460 158 l 399 158 l 138 684 l 138 0 m 427 393 l 437 393 l 724 992 l 724 1014 l 138 1014 l 138 997 "},"⌸":{"ha":861,"x_min":0,"x_max":0,"o":"m 215 733 l 645 733 l 645 600 l 215 600 m 215 414 l 645 414 l 645 282 l 215 282 m 35 1108 l 826 1108 l 826 -94 l 35 -94 m 724 0 l 724 1014 l 138 1014 l 138 0 "},"⍄":{"ha":861,"x_min":0,"x_max":0,"o":"m 35 1108 l 826 1108 l 826 -94 l 35 -94 m 724 0 l 724 1014 l 138 1014 l 138 0 "},"⌻":{"ha":861,"x_min":0,"x_max":0,"o":"m 35 1108 l 826 1108 l 826 -94 l 35 -94 m 431 328 b 250 508 325 328 250 403 b 431 686 250 613 325 686 b 611 508 537 686 611 613 b 431 328 611 403 537 328 m 431 424 b 510 508 480 424 510 459 b 431 590 510 556 480 590 b 352 508 381 590 352 556 b 431 424 352 459 381 424 m 724 0 l 724 1014 l 138 1014 l 138 0 "},"⍇":{"ha":861,"x_min":0,"x_max":0,"o":"m 35 1108 l 826 1108 l 826 -94 l 35 -94 m 724 0 l 724 447 l 315 447 l 311 438 l 428 322 l 349 243 l 138 455 l 138 0 m 349 772 l 428 692 l 311 576 l 315 567 l 724 567 l 724 1014 l 138 1014 l 138 559 "},"⍃":{"ha":861,"x_min":0,"x_max":0,"o":"m 826 1108 l 35 1108 l 35 -94 l 826 -94 m 138 0 l 138 1014 l 724 1014 l 724 0 "},"⍯":{"ha":861,"x_min":0,"x_max":0,"o":"m 294 85 l 331 282 l 215 282 l 215 414 l 356 414 l 392 600 l 215 600 l 215 733 l 417 733 l 455 928 l 567 928 l 530 733 l 645 733 l 645 600 l 505 600 l 469 414 l 645 414 l 645 282 l 444 282 l 407 85 m 35 1108 l 826 1108 l 826 -94 l 35 -94 m 724 0 l 724 1014 l 138 1014 l 138 0 "},"⍰":{"ha":861,"x_min":0,"x_max":0,"o":"m 35 1108 l 826 1108 l 826 -94 l 35 -94 m 439 114 b 344 204 388 114 344 149 b 439 294 344 261 388 294 b 533 204 491 294 533 261 b 439 114 533 149 491 114 m 180 681 b 426 901 178 828 272 901 b 675 700 575 901 675 835 b 495 505 675 576 593 526 l 493 414 l 385 414 l 382 547 b 547 692 482 571 547 603 b 425 794 547 765 500 794 b 290 669 346 794 297 761 l 180 681 m 724 0 l 724 1014 l 138 1014 l 138 0 "},"⍈":{"ha":861,"x_min":0,"x_max":0,"o":"m 724 559 l 724 455 l 776 507 m 826 1108 l 35 1108 l 35 -94 l 826 -94 m 138 0 l 138 567 l 92 567 l 92 447 l 546 447 l 550 438 l 433 322 l 513 243 l 724 455 l 724 0 m 138 1014 l 724 1014 l 724 559 l 513 772 l 433 692 l 550 576 l 546 567 l 138 567 "},"⍁":{"ha":861,"x_min":0,"x_max":0,"o":"m 267 0 l 138 0 l 138 49 l 89 -54 l 241 -54 m 826 1108 l 35 1108 l 35 -94 l 826 -94 m 267 0 l 772 1069 l 620 1069 l 594 1014 l 724 1014 l 724 0 m 138 1014 l 594 1014 l 138 49 "},"⍐":{"ha":861,"x_min":0,"x_max":0,"o":"m 35 1108 l 826 1108 l 826 -94 l 35 -94 m 374 0 l 374 843 l 365 847 l 281 761 l 206 837 l 384 1014 l 138 1014 l 138 0 m 656 837 l 581 761 l 497 847 l 488 843 l 488 0 l 724 0 l 724 1014 l 478 1014 "},"⍓":{"ha":861,"x_min":0,"x_max":0,"o":"m 35 1108 l 826 1108 l 826 -94 l 35 -94 m 724 0 l 724 17 l 434 621 l 424 621 l 138 23 l 138 0 m 401 856 l 463 856 l 724 331 l 724 1014 l 138 1014 l 138 314 "},"⍞":{"ha":861,"x_min":0,"x_max":0,"o":"m 35 1108 l 826 1108 l 826 -94 l 35 -94 m 367 543 l 353 1014 l 138 1014 l 138 0 l 724 0 l 724 1014 l 509 1014 l 495 543 "},"⍘":{"ha":861,"x_min":0,"x_max":0,"o":"m 367 543 l 353 1014 l 509 1014 l 495 543 m 707 0 l 707 -125 l 154 -125 l 154 0 "},"⍆":{"ha":861,"x_min":0,"x_max":0,"o":"m 323 848 l 323 567 l 94 567 l 94 447 l 323 447 l 323 167 l 444 167 l 444 447 l 631 447 l 635 438 l 519 322 l 598 243 l 861 507 l 598 772 l 519 692 l 635 576 l 631 567 l 323 567 l 323 447 l 444 447 l 444 848 "},"⍮":{"ha":861,"x_min":0,"x_max":0,"o":"m 431 -26 b 291 109 350 -26 291 26 b 430 242 291 193 351 242 b 583 62 515 242 583 186 b 555 -75 583 13 572 -32 l 707 -75 l 707 -183 l 491 -183 b 349 -316 451 -234 401 -279 l 274 -255 b 358 -183 305 -231 333 -207 l 154 -183 l 154 -75 l 441 -75 b 463 -23 450 -58 458 -40 b 431 -26 452 -25 442 -26 m 432 518 b 294 652 356 518 294 569 b 432 785 294 736 356 785 b 569 652 508 785 569 736 b 432 518 569 569 508 518 "},"⌿":{"ha":861,"x_min":0,"x_max":0,"o":"m 480 392 l 696 392 l 696 524 l 533 524 l 729 1014 l 565 1014 l 369 524 l 152 524 l 152 392 l 480 392 l 533 524 l 369 524 l 103 -139 l 267 -139 "},"⌷":{"ha":861,"x_min":0,"x_max":0,"o":"m 191 1108 l 670 1108 l 670 -94 l 191 -94 m 567 0 l 567 1014 l 294 1014 l 294 0 "},"⍣":{"ha":861,"x_min":0,"x_max":0,"o":"m 248 947 b 156 1035 194 947 156 981 b 248 1121 156 1088 194 1121 b 340 1035 303 1121 340 1088 b 248 947 340 981 303 947 m 614 947 b 522 1035 560 947 522 981 b 614 1121 522 1088 560 1121 b 706 1035 669 1121 706 1088 b 614 947 706 981 669 947 m 110 644 l 371 542 l 353 822 l 509 822 l 491 542 l 751 644 l 800 497 l 528 428 l 708 212 l 582 120 l 431 360 l 279 120 l 153 212 l 333 428 l 62 497 "},"⍭":{"ha":861,"x_min":0,"x_max":0,"o":"m 351 657 l 351 1113 l 510 1113 l 510 657 m 351 -278 l 351 258 l 510 258 l 510 -278 m 579 297 b 301 476 425 297 401 476 b 212 313 251 476 226 428 l 97 331 b 283 619 113 548 186 619 b 560 440 436 619 461 440 b 650 602 611 440 636 488 l 765 585 b 579 297 749 367 676 297 "},"⍨":{"ha":861,"x_min":0,"x_max":0,"o":"m 579 297 b 301 476 425 297 401 476 b 212 313 251 476 226 428 l 97 331 b 283 619 113 548 186 619 b 560 440 436 619 461 440 b 650 602 611 440 636 488 l 765 585 b 579 297 749 367 676 297 m 248 744 b 156 831 194 744 156 778 b 248 917 156 885 194 917 b 340 831 303 917 340 885 b 248 744 340 778 303 744 m 614 744 b 522 831 560 744 522 778 b 614 917 522 885 560 917 b 706 831 669 917 706 885 b 614 744 706 778 669 744 "},"⍲":{"ha":861,"x_min":0,"x_max":0,"o":"m 658 117 l 600 245 b 331 360 501 257 417 320 l 219 117 l 74 117 l 206 395 l 196 395 b 67 288 136 395 106 365 l -13 333 b 198 510 33 449 97 510 b 258 504 219 510 239 508 l 410 822 l 472 822 l 692 371 b 764 466 719 386 740 417 l 844 420 b 740 273 817 351 783 302 l 815 117 m 376 459 b 540 377 431 431 484 397 l 444 587 l 434 587 l 376 459 "},"⍝":{"ha":861,"x_min":0,"x_max":0,"o":"m 431 598 b 219 342 281 598 219 516 l 219 0 l 94 0 l 94 356 b 431 740 94 590 192 740 b 768 356 670 740 768 590 l 768 0 l 642 0 l 642 342 b 431 598 642 516 581 598 m 431 231 b 288 381 344 231 288 293 b 431 530 288 468 344 530 b 574 381 517 530 574 468 b 431 231 574 293 517 231 m 431 312 b 493 381 471 312 493 340 b 431 449 493 420 471 449 b 369 381 391 449 369 420 b 431 312 369 340 391 312 "},"⍡":{"ha":861,"x_min":0,"x_max":0,"o":"m 774 591 l 502 591 l 502 0 l 360 0 l 360 591 l 87 591 l 87 723 l 774 723 m 248 849 b 156 936 194 849 156 882 b 248 1022 156 990 194 1022 b 340 936 303 1022 340 990 b 248 849 340 882 303 849 m 614 849 b 522 936 560 849 522 882 b 614 1022 522 990 560 1022 b 706 936 669 1022 706 990 b 614 849 706 882 669 849 "},"⍕":{"ha":861,"x_min":0,"x_max":0,"o":"m 774 591 l 502 591 l 502 502 b 676 310 605 488 676 416 b 502 117 676 206 605 132 l 502 0 l 360 0 l 360 117 b 184 310 256 132 184 205 b 360 502 184 416 256 488 l 360 591 l 87 591 l 87 723 l 774 723 m 281 310 b 360 210 281 256 310 221 l 360 410 b 281 310 310 399 281 365 m 502 210 b 579 310 551 221 579 256 b 502 410 579 365 551 399 l 502 210 "},"⍑":{"ha":861,"x_min":0,"x_max":0,"o":"m 87 601 l 87 723 l 774 723 l 774 601 m 502 369 l 502 0 l 360 0 l 360 369 l 87 369 l 87 490 l 774 490 l 774 369 "},"⍏":{"ha":861,"x_min":0,"x_max":0,"o":"m 748 358 l 492 358 l 492 126 l 371 126 l 371 358 l 113 358 l 113 475 l 371 475 l 371 685 l 362 690 l 253 580 l 174 659 l 431 915 l 689 659 l 610 580 l 501 690 l 492 685 l 492 475 l 748 475 "},"⍬":{"ha":861,"x_min":0,"x_max":0,"o":"m 797 508 b 431 -17 797 153 660 -17 b 65 508 201 -17 65 153 b 431 1031 65 872 201 1031 b 797 508 660 1031 797 872 m 563 347 b 315 526 422 347 409 526 b 234 399 273 526 246 488 b 431 122 250 196 316 122 b 624 361 539 122 603 187 b 563 347 606 351 585 347 m 238 655 b 299 669 256 665 277 669 b 547 490 440 669 453 490 b 628 619 590 490 616 528 b 431 892 611 820 546 892 b 238 655 324 892 259 828 "},"☉":{"ha":861,"x_min":0,"x_max":0,"o":"m 431 120 b 48 507 219 120 48 274 b 431 894 48 740 219 894 b 813 507 642 894 813 740 b 431 120 813 274 642 120 m 431 201 b 733 507 599 201 733 323 b 431 813 733 691 599 813 b 128 507 262 813 128 691 b 431 201 128 323 262 201 m 431 424 b 348 507 385 424 348 457 b 431 590 348 557 385 590 b 513 507 476 590 513 557 b 431 424 513 457 476 424 "},"★":{"ha":861,"x_min":0,"x_max":0,"o":"m 282 442 l 42 618 l 339 618 l 431 901 l 523 618 l 819 618 l 580 443 l 672 160 l 430 334 l 190 160 "},"☆":{"ha":861,"x_min":0,"x_max":0,"o":"m 278 440 l 35 620 l 338 620 l 432 908 l 525 620 l 826 620 l 583 442 l 676 153 l 430 331 l 185 153 m 430 385 l 592 267 l 531 460 l 693 576 l 492 576 l 432 769 l 369 576 l 168 576 l 331 459 l 269 267 "},"☐":{"ha":861,"x_min":0,"x_max":0,"o":"m 826 111 l 35 111 l 35 903 l 826 903 m 89 849 l 89 165 l 772 165 l 772 849 "},"☑":{"ha":861,"x_min":0,"x_max":0,"o":"m 826 111 l 35 111 l 35 903 l 826 903 m 89 849 l 89 165 l 772 165 l 772 849 m 155 471 l 209 525 l 333 400 l 652 722 l 707 667 l 333 292 "},"☒":{"ha":861,"x_min":0,"x_max":0,"o":"m 826 111 l 35 111 l 35 903 l 826 903 m 89 849 l 89 165 l 772 165 l 772 849 m 207 336 l 376 507 l 207 678 l 261 731 l 431 561 l 600 732 l 655 678 l 485 507 l 655 336 l 601 282 l 431 453 l 261 282 "},"☢":{"ha":861,"x_min":0,"x_max":0,"o":"m 431 436 b 501 507 470 436 501 465 b 431 578 501 549 470 578 b 360 507 391 578 360 549 b 431 436 360 465 391 436 m 299 733 b 172 507 222 691 172 610 l 324 507 b 376 600 324 549 345 583 l 299 733 m 484 600 b 537 507 516 583 537 550 l 689 507 b 561 733 689 610 638 691 l 484 600 m 484 414 b 431 401 469 406 450 401 b 376 414 410 401 392 406 l 299 281 b 561 281 375 238 485 238 l 484 414 m 431 156 b 82 507 238 156 82 294 b 431 858 82 719 238 858 b 779 507 623 858 779 719 b 431 156 779 294 623 156 m 431 211 b 727 507 596 211 727 330 b 431 803 727 684 596 803 b 134 507 265 803 134 684 b 431 211 134 330 265 211 "},"☮":{"ha":861,"x_min":0,"x_max":0,"o":"m 431 156 b 82 507 238 156 82 294 b 431 858 82 719 238 858 b 779 507 623 858 779 719 b 431 156 779 294 623 156 m 134 507 b 178 344 134 444 151 390 l 403 569 l 403 801 b 134 507 251 790 134 674 m 212 301 b 403 213 260 250 328 218 l 403 492 l 212 301 m 458 213 b 649 301 533 218 601 250 l 458 492 l 458 213 m 683 344 b 727 507 710 390 727 444 b 458 801 727 674 610 790 l 458 569 "},"☯":{"ha":861,"x_min":0,"x_max":0,"o":"m 137 550 b 276 642 167 613 213 642 b 424 507 349 642 395 600 b 572 372 451 417 497 372 b 719 582 694 372 736 479 b 431 803 688 717 572 803 b 137 550 279 803 156 703 m 431 156 b 82 507 238 156 82 294 b 431 858 82 719 238 858 b 779 507 623 858 779 719 b 431 156 779 294 623 156 "},"☰":{"ha":861,"x_min":0,"x_max":0,"o":"m 122 775 l 740 775 l 740 664 l 122 664 m 122 513 l 740 513 l 740 401 l 122 401 m 122 251 l 740 251 l 740 140 l 122 140 "},"☱":{"ha":861,"x_min":0,"x_max":0,"o":"m 122 664 l 122 775 l 375 775 l 375 664 m 122 513 l 740 513 l 740 401 l 122 401 m 122 251 l 740 251 l 740 140 l 122 140 m 740 775 l 740 664 l 486 664 l 486 775 "},"☲":{"ha":861,"x_min":0,"x_max":0,"o":"m 375 401 l 122 401 l 122 513 l 375 513 m 740 775 l 740 664 l 122 664 l 122 775 m 122 251 l 740 251 l 740 140 l 122 140 m 486 513 l 740 513 l 740 401 l 486 401 "},"☳":{"ha":861,"x_min":0,"x_max":0,"o":"m 122 664 l 122 775 l 375 775 l 375 664 m 122 251 l 740 251 l 740 140 l 122 140 m 740 775 l 740 664 l 486 664 l 486 775 m 375 401 l 122 401 l 122 513 l 375 513 m 486 513 l 740 513 l 740 401 l 486 401 "},"☴":{"ha":861,"x_min":0,"x_max":0,"o":"m 375 140 l 122 140 l 122 251 l 375 251 m 740 513 l 740 401 l 122 401 l 122 513 m 740 775 l 740 664 l 122 664 l 122 775 m 486 251 l 740 251 l 740 140 l 486 140 "},"☵":{"ha":861,"x_min":0,"x_max":0,"o":"m 122 664 l 122 775 l 375 775 l 375 664 m 740 513 l 740 401 l 122 401 l 122 513 m 740 775 l 740 664 l 486 664 l 486 775 m 122 140 l 122 251 l 375 251 l 375 140 m 740 251 l 740 140 l 486 140 l 486 251 "},"☶":{"ha":861,"x_min":0,"x_max":0,"o":"m 375 140 l 122 140 l 122 251 l 375 251 m 740 775 l 740 664 l 122 664 l 122 775 m 486 251 l 740 251 l 740 140 l 486 140 m 122 402 l 122 513 l 375 513 l 375 402 m 740 513 l 740 402 l 486 402 l 486 513 "},"☷":{"ha":861,"x_min":0,"x_max":0,"o":"m 375 140 l 122 140 l 122 251 l 375 251 m 486 251 l 740 251 l 740 140 l 486 140 m 122 402 l 122 513 l 375 513 l 375 402 m 740 513 l 740 402 l 486 402 l 486 513 m 122 664 l 122 775 l 375 775 l 375 664 m 740 775 l 740 664 l 486 664 l 486 775 "},"☹":{"ha":861,"x_min":0,"x_max":0,"o":"m 338 571 b 294 615 314 571 294 588 b 338 659 294 643 314 659 b 381 615 362 659 381 643 b 338 571 381 588 362 571 m 524 571 b 481 615 500 571 481 588 b 524 659 481 643 500 659 b 567 615 548 659 567 643 b 524 571 567 588 548 571 m 431 433 b 319 338 363 433 334 391 l 274 355 b 431 481 291 415 334 481 b 588 355 527 481 570 415 l 542 338 b 431 433 527 391 498 433 m 431 156 b 82 507 238 156 82 294 b 431 858 82 719 238 858 b 779 507 623 858 779 719 b 431 156 779 294 623 156 m 431 211 b 727 507 596 211 727 330 b 431 803 727 684 596 803 b 134 507 265 803 134 684 b 431 211 134 330 265 211 "},"☺":{"ha":861,"x_min":0,"x_max":0,"o":"m 338 557 b 294 601 314 557 294 574 b 338 645 294 629 314 645 b 381 601 362 645 381 629 b 338 557 381 574 362 557 m 524 557 b 481 601 500 557 481 574 b 524 645 481 629 500 645 b 567 601 548 645 567 629 b 524 557 567 574 548 557 m 431 372 b 542 467 498 372 527 415 l 588 451 b 431 324 570 391 527 324 b 274 451 334 324 291 391 l 319 467 b 431 372 334 415 363 372 m 431 156 b 82 507 238 156 82 294 b 431 858 82 719 238 858 b 779 507 623 858 779 719 b 431 156 779 294 623 156 m 431 211 b 727 507 596 211 727 330 b 431 803 727 684 596 803 b 134 507 265 803 134 684 b 431 211 134 330 265 211 "},"☻":{"ha":861,"x_min":0,"x_max":0,"o":"m 324 573 b 367 617 348 573 367 590 b 324 661 367 645 348 661 b 281 617 300 661 281 645 b 324 573 281 590 300 573 m 538 573 b 581 617 562 573 581 590 b 538 661 581 645 562 661 b 494 617 514 661 494 645 b 538 573 494 590 514 573 m 431 349 b 290 469 346 349 309 403 l 244 451 b 431 301 265 380 316 301 b 617 451 545 301 597 380 l 572 469 b 431 349 552 403 515 349 m 431 156 b 82 507 238 156 82 294 b 431 858 82 719 238 858 b 779 507 623 858 779 719 b 431 156 779 294 623 156 "},"☿":{"ha":861,"x_min":0,"x_max":0,"o":"m 390 153 l 390 299 b 140 590 249 317 140 428 b 276 843 140 705 195 794 b 140 1096 195 892 140 981 l 220 1096 b 431 885 220 969 314 885 b 642 1096 547 885 642 969 l 722 1096 b 585 843 722 981 667 892 b 722 590 667 794 722 705 b 473 299 722 429 613 318 l 473 153 l 631 153 l 631 76 l 473 76 l 473 -81 l 390 -81 l 390 76 l 231 76 l 231 153 m 431 379 b 642 590 547 379 642 463 b 431 802 642 718 547 802 b 220 590 314 802 220 718 b 431 379 220 463 314 379 "},"♀":{"ha":861,"x_min":0,"x_max":0,"o":"m 431 467 b 669 707 563 467 669 563 b 431 947 669 852 563 947 b 192 707 298 947 192 852 b 431 467 192 563 298 467 m 390 233 l 390 386 b 111 707 233 405 111 527 b 431 1031 111 902 255 1031 b 751 707 606 1031 751 902 b 473 387 751 528 629 406 l 473 233 l 631 233 l 631 157 l 473 157 l 473 0 l 390 0 l 390 157 l 231 157 l 231 233 "},"♁":{"ha":861,"x_min":0,"x_max":0,"o":"m 431 120 b 48 507 219 120 48 274 b 431 894 48 740 219 894 b 813 507 642 894 813 740 b 431 120 813 274 642 120 m 130 469 b 389 204 145 321 252 221 l 389 469 l 130 469 m 389 545 l 389 810 b 130 545 252 793 145 693 m 472 204 b 731 469 609 221 716 321 l 472 469 l 472 204 m 731 545 b 472 810 716 693 609 793 l 472 545 "},"♂":{"ha":861,"x_min":0,"x_max":0,"o":"m 325 106 b 35 400 165 106 35 223 b 325 694 35 578 165 694 b 504 636 392 694 455 674 l 669 801 l 666 809 l 457 808 l 457 887 l 812 886 l 813 532 l 733 532 l 735 741 l 727 744 l 561 578 b 616 400 596 531 616 470 b 325 106 616 223 485 106 m 325 189 b 536 400 442 189 536 273 b 325 612 536 528 442 612 b 115 400 208 612 115 528 b 325 189 115 273 208 189 "},"♃":{"ha":861,"x_min":0,"x_max":0,"o":"m 132 357 b 365 631 261 395 365 491 b 169 863 365 759 281 847 l 189 942 b 444 631 333 918 444 800 b 283 343 444 502 379 403 l 632 343 l 632 763 l 715 763 l 715 74 l 632 74 l 632 267 l 132 267 "},"♄":{"ha":861,"x_min":0,"x_max":0,"o":"m 83 857 l 242 857 l 242 1014 l 326 1014 l 326 857 l 484 857 l 484 781 l 326 781 l 326 623 b 524 711 374 678 442 711 b 774 457 662 711 774 610 b 568 0 774 245 568 198 l 485 0 b 693 457 485 237 693 279 b 524 630 693 561 617 630 b 311 481 430 630 357 572 l 242 481 l 242 781 l 83 781 "},"♅":{"ha":861,"x_min":0,"x_max":0,"o":"m 431 547 b 192 307 298 547 192 451 b 431 67 192 162 298 67 b 669 307 563 67 669 162 b 431 547 669 451 563 547 m 683 792 l 626 736 l 480 885 l 472 882 l 472 627 b 751 307 628 609 751 486 b 431 -17 751 112 606 -17 b 111 307 255 -17 111 112 b 391 628 111 488 234 610 l 391 882 l 383 885 l 236 736 l 180 792 l 431 1042 m 431 224 b 348 307 385 224 348 257 b 431 390 348 357 385 390 b 513 307 476 390 513 357 b 431 224 513 257 476 224 "}}}
